<?xml version="1.0" encoding="utf-8"?>
<!-- Generator: Adobe Illustrator 22.1.0, SVG Export Plug-In . SVG Version: 6.00 Build 0)  -->
<svg version="1.1" id="Capa_1" xmlns="http://www.w3.org/2000/svg" xmlns:xlink="http://www.w3.org/1999/xlink" x="0px" y="0px"
	 width="36.726px" height="19.193px" viewBox="0 0 36.726 19.193" enable-background="new 0 0 36.726 19.193" xml:space="preserve">
<g>
	<g>
		<path fill="#FFFFFF" d="M26.93,3.883h2.305c0.318,0,0.576-0.258,0.576-0.576V2.154c0-0.318-0.258-0.576-0.576-0.576H26.93
			c-0.318,0-0.576,0.258-0.576,0.576v1.153C26.354,3.625,26.612,3.883,26.93,3.883z M26.93,8.493h4.61
			c0.318,0,0.576-0.258,0.576-0.576V6.764c0-0.318-0.258-0.576-0.576-0.576h-4.61c-0.318,0-0.576,0.258-0.576,0.576v1.153
			C26.354,8.235,26.612,8.493,26.93,8.493z M36.15,15.408h-9.22c-0.318,0-0.576,0.258-0.576,0.576v1.153
			c0,0.318,0.258,0.576,0.576,0.576h9.22c0.318,0,0.576-0.258,0.576-0.576v-1.153C36.726,15.666,36.468,15.408,36.15,15.408z
			 M26.93,13.103h6.915c0.318,0,0.576-0.258,0.576-0.576v-1.153c0-0.318-0.258-0.576-0.576-0.576H26.93
			c-0.318,0-0.576,0.258-0.576,0.576v1.153C26.354,12.845,26.612,13.103,26.93,13.103z M18.862,6.188h1.729v10.949
			c0,0.318,0.258,0.576,0.576,0.576h1.153c0.318,0,0.576-0.258,0.576-0.576V6.188h1.729c0.512,0,0.77-0.621,0.407-0.984
			l-2.881-3.458c-0.225-0.225-0.59-0.225-0.815,0l-2.881,3.458C18.093,5.566,18.35,6.188,18.862,6.188z"/>
	</g>
	<g>
		<path fill="#FFFFFF" d="M26.93,3.883h2.305c0.318,0,0.576-0.258,0.576-0.576V2.154c0-0.318-0.258-0.576-0.576-0.576H26.93
			c-0.318,0-0.576,0.258-0.576,0.576v1.153C26.354,3.625,26.612,3.883,26.93,3.883z M26.93,8.493h4.61
			c0.318,0,0.576-0.258,0.576-0.576V6.764c0-0.318-0.258-0.576-0.576-0.576h-4.61c-0.318,0-0.576,0.258-0.576,0.576v1.153
			C26.354,8.235,26.612,8.493,26.93,8.493z M36.15,15.408h-9.22c-0.318,0-0.576,0.258-0.576,0.576v1.153
			c0,0.318,0.258,0.576,0.576,0.576h9.22c0.318,0,0.576-0.258,0.576-0.576v-1.153C36.726,15.666,36.468,15.408,36.15,15.408z
			 M26.93,13.103h6.915c0.318,0,0.576-0.258,0.576-0.576v-1.153c0-0.318-0.258-0.576-0.576-0.576H26.93
			c-0.318,0-0.576,0.258-0.576,0.576v1.153C26.354,12.845,26.612,13.103,26.93,13.103z M18.862,6.188h1.729v10.949
			c0,0.318,0.258,0.576,0.576,0.576h1.153c0.318,0,0.576-0.258,0.576-0.576V6.188h1.729c0.512,0,0.77-0.621,0.407-0.984
			l-2.881-3.458c-0.225-0.225-0.59-0.225-0.815,0l-2.881,3.458C18.093,5.566,18.35,6.188,18.862,6.188z"/>
	</g>
	<g>
		<path fill="#FFFFFF" d="M18.643,0H3.78C2.408,0,1.292,1.116,1.292,2.488h1.099c0-0.766,0.623-1.39,1.389-1.39h14.2l0.9-1.075
			C18.801,0.018,18.725,0,18.643,0z"/>
		<path fill="#FFFFFF" d="M4.426,12.828c0.714,0,1.292-0.579,1.292-1.292c0-0.713-0.579-1.292-1.292-1.292
			c-0.714,0-1.292,0.579-1.292,1.292C3.134,12.249,3.713,12.828,4.426,12.828z"/>
		<path fill="#FFFFFF" d="M2.601,18.094c-0.828,0-1.502-0.623-1.502-1.389V6.366c0-0.766,0.674-1.389,1.502-1.389h12.743
			c0.069-0.384,0.207-0.753,0.4-1.099H2.601C1.167,3.878,0,4.994,0,6.366v10.339c0,1.372,1.167,2.488,2.601,2.488h15.65
			c-0.233-0.329-0.401-0.701-0.513-1.099H2.601z"/>
	</g>
	<path opacity="0.3" fill="#64AFFF" d="M1.099,6.366v10.339c0,0.766,0.674,1.389,1.502,1.389h15.137
		c-0.086-0.307-0.147-0.624-0.147-0.958V8.956c-0.902-0.342-1.645-1.044-2.03-1.974c-0.27-0.65-0.336-1.345-0.217-2.005H2.601
		C1.772,4.977,1.099,5.6,1.099,6.366z M4.426,10.243c0.714,0,1.292,0.579,1.292,1.292c0,0.714-0.579,1.292-1.292,1.292
		c-0.714,0-1.292-0.579-1.292-1.292C3.134,10.822,3.713,10.243,4.426,10.243z"/>
</g>
</svg>
