<?xml version="1.0" encoding="utf-8"?>
<!-- Generator: Adobe Illustrator 22.1.0, SVG Export Plug-In . SVG Version: 6.00 Build 0)  -->
<svg version="1.1" id="Capa_1" xmlns="http://www.w3.org/2000/svg" xmlns:xlink="http://www.w3.org/1999/xlink" x="0px" y="0px"
	 width="39.716px" height="18.635px" viewBox="0 0 39.716 18.635" enable-background="new 0 0 39.716 18.635" xml:space="preserve">
<g>
	<path opacity="0.3" fill="#64AFFF" d="M16.319,9.571c0,1.705-1.104,3.093-2.462,3.093s-2.463-1.388-2.463-3.093
		c0-1.706,1.105-3.094,2.463-3.094S16.319,7.865,16.319,9.571z"/>
	<path fill="#FFFFFF" d="M29.919,3.325h2.305c0.318,0,0.576-0.258,0.576-0.576V1.596c0-0.318-0.258-0.576-0.576-0.576h-2.305
		c-0.318,0-0.576,0.258-0.576,0.576v1.153C29.343,3.067,29.601,3.325,29.919,3.325z M29.919,7.935h4.61
		c0.318,0,0.576-0.258,0.576-0.576V6.206c0-0.318-0.258-0.576-0.576-0.576h-4.61c-0.318,0-0.576,0.258-0.576,0.576v1.153
		C29.343,7.677,29.601,7.935,29.919,7.935z M39.139,14.85h-9.22c-0.318,0-0.576,0.258-0.576,0.576v1.153
		c0,0.318,0.258,0.576,0.576,0.576h9.22c0.318,0,0.576-0.258,0.576-0.576v-1.153C39.716,15.108,39.458,14.85,39.139,14.85z
		 M29.919,12.545h6.915c0.318,0,0.576-0.258,0.576-0.576v-1.153c0-0.318-0.258-0.576-0.576-0.576h-6.915
		c-0.318,0-0.576,0.258-0.576,0.576v1.153C29.343,12.287,29.601,12.545,29.919,12.545z M21.852,5.63h1.729v10.949
		c0,0.318,0.258,0.576,0.576,0.576h1.153c0.318,0,0.576-0.258,0.576-0.576V5.63h1.729c0.512,0,0.77-0.621,0.407-0.984L25.14,1.188
		c-0.225-0.225-0.59-0.225-0.815,0l-2.881,3.458C21.083,5.008,21.339,5.63,21.852,5.63z"/>
	<g>
		<path fill="none" d="M2.698,4.713C2.281,4.668,1.891,4.614,1.52,4.548v1.085C2.002,5.465,2.417,5.141,2.698,4.713z"/>
		<path fill="none" d="M1.52,15.921v0.866c0.43,0.132,0.865,0.236,1.316,0.313C2.569,16.551,2.094,16.124,1.52,15.921z"/>
		<path fill="none" d="M11.394,9.571c0,1.705,1.105,3.093,2.463,3.093s2.462-1.388,2.462-3.093c0-1.706-1.104-3.094-2.462-3.094
			S11.394,7.865,11.394,9.571z"/>
		<path fill="none" d="M30.543,1.02H31.6c-0.159-0.155-0.332-0.296-0.528-0.403C30.875,0.723,30.703,0.864,30.543,1.02z"/>
		<path fill="#FFFFFF" d="M14.554,15.371c-4.133,1.845-8.458,1.932-10.079,1.888c-0.337-1.462-1.496-2.596-2.956-2.893V7.193
			c1.24-0.253,2.285-1.112,2.773-2.283c1.514,0.061,6.273,0.039,10.88-2.018c1.828-0.816,3.489-1.149,4.88-1.257L21.423,0
			c-1.888,0.035-4.192,0.417-6.869,1.504c-4.207,1.709-11.09,2.182-13.609,1.37l-0.479-0.12C0.354,2.726,0.235,2.751,0.145,2.822
			C0.053,2.894,0,3.002,0,3.118v14.485c0,0.158,0.099,0.299,0.247,0.353L0.5,18.048c3.839,1.305,10.611,0.239,14.673-1.29
			c1.92-0.723,3.766-1.032,5.407-1.124V13.93C18.92,13.988,16.866,14.339,14.554,15.371z M1.228,4.223
			c0.598,0.105,1.228,0.194,1.9,0.265c-0.453,0.69-1.121,1.212-1.9,1.485V4.223z M1.52,16.964v-1.418
			c0.941,0.332,1.718,1.03,2.155,1.931C2.936,17.35,2.223,17.18,1.52,16.964z"/>
		<path fill="#FFFFFF" d="M10.014,9.571c0,2.466,1.724,4.473,3.843,4.473c2.118,0,3.842-2.007,3.842-4.473
			c0-2.467-1.724-4.474-3.842-4.474C11.738,5.098,10.014,7.104,10.014,9.571z M16.319,9.571c0,1.705-1.104,3.093-2.462,3.093
			s-2.463-1.388-2.463-3.093c0-1.706,1.105-3.094,2.463-3.094S16.319,7.865,16.319,9.571z"/>
	</g>
	<path opacity="0.3" fill="#64AFFF" d="M4.293,4.91C3.804,6.081,2.759,6.939,1.52,7.193v7.173c1.46,0.297,2.619,1.43,2.956,2.893
		c1.621,0.044,5.946-0.043,10.079-1.888c2.312-1.032,4.366-1.383,6.026-1.441V8.397c-0.903-0.342-1.646-1.044-2.032-1.976
		c-0.531-1.282-0.277-2.736,0.642-3.758l0.863-1.03c-1.392,0.108-3.052,0.441-4.88,1.257C10.566,4.949,5.807,4.97,4.293,4.91z
		 M17.699,9.571c0,2.466-1.724,4.473-3.842,4.473c-2.119,0-3.843-2.007-3.843-4.473c0-2.467,1.724-4.474,3.843-4.474
		C15.975,5.098,17.699,7.104,17.699,9.571z"/>
	<path opacity="0.3" fill="#64AFFF" d="M1.228,4.223c0.598,0.105,1.228,0.194,1.9,0.265c-0.453,0.69-1.121,1.212-1.9,1.485V4.223z"
		/>
	<path opacity="0.3" fill="#64AFFF" d="M1.52,16.964v-1.418c0.941,0.332,1.718,1.03,2.155,1.931
		C2.936,17.35,2.223,17.18,1.52,16.964z"/>
</g>
</svg>
