<?xml version="1.0" encoding="utf-8"?>
<!-- Generator: Adobe Illustrator 22.1.0, SVG Export Plug-In . SVG Version: 6.00 Build 0)  -->
<svg version="1.1" id="Capa_1" xmlns="http://www.w3.org/2000/svg" xmlns:xlink="http://www.w3.org/1999/xlink" x="0px" y="0px"
	 width="26.012px" height="26.012px" viewBox="0 0 26.012 26.012" enable-background="new 0 0 26.012 26.012" xml:space="preserve">
<g>
	<g>
		<g>
			<g>
				<g>
					<path fill="#0092D2" d="M26.012,13.006c0,7.183-5.823,13.006-13.006,13.006S0,20.189,0,13.006S5.823,0,13.006,0
						S26.012,5.823,26.012,13.006z"/>
				</g>
			</g>
		</g>
	</g>
	<g>
		<path fill="#35385C" d="M17.229,9.101l2.001,2.003c0.104,0.104,0.104,0.273,0,0.378l-6.268,6.268
			c-0.043,0.043-0.099,0.07-0.16,0.077l-2.253,0.249c-0.17,0.019-0.314-0.125-0.295-0.295l0.254-2.254
			c0.007-0.06,0.034-0.116,0.077-0.159l6.266-6.265C16.956,8.996,17.125,8.996,17.229,9.101z M21.277,7.842l-0.785-0.787
			c-0.44-0.44-1.153-0.44-1.593,0l-1.327,1.327l2.379,2.381l1.327-1.327C21.717,8.995,21.717,8.282,21.277,7.842z"/>
		<g>
			<path fill="none" d="M8.402,8.931v8.049c0,0.017,0.007,0.032,0.01,0.049l0.253-2.246c0.057-0.509,0.289-0.992,0.654-1.356
				l4.78-4.78H8.687C8.53,8.646,8.402,8.774,8.402,8.931z"/>
			<path fill="none" d="M16.45,16.98v-0.235l-0.52,0.52h0.235C16.323,17.265,16.45,17.137,16.45,16.98z"/>
			<path fill="#35385C" d="M15.071,18.662c-0.069,0.069-0.144,0.129-0.222,0.186h1.598c0.885,0,1.604-0.72,1.604-1.604v-1.562
				L15.071,18.662z"/>
			<path fill="#35385C" d="M8.411,17.029c-0.003-0.017-0.01-0.032-0.01-0.049V8.931c0-0.157,0.128-0.285,0.285-0.285h5.411
				l0.783-0.783h0l0.827-0.827H8.687c-1.045,0-1.895,0.85-1.895,1.895v8.049c0,1.045,0.85,1.895,1.895,1.895h0.354
				c-0.474-0.49-0.706-1.155-0.63-1.834L8.411,17.029z"/>
		</g>
	</g>
</g>
</svg>
