<?xml version="1.0" encoding="utf-8"?>
<!-- Generator: Adobe Illustrator 22.1.0, SVG Export Plug-In . SVG Version: 6.00 Build 0)  -->
<svg version="1.1" id="Capa_1" xmlns="http://www.w3.org/2000/svg" xmlns:xlink="http://www.w3.org/1999/xlink" x="0px" y="0px"
	 width="23.025px" height="23.025px" viewBox="0 0 23.025 23.025" enable-background="new 0 0 23.025 23.025" xml:space="preserve">
<path fill="#A5A4AA" d="M11.513,0C5.154,0,0,5.154,0,11.513s5.154,11.513,11.513,11.513s11.513-5.154,11.513-11.513
	S17.871,0,11.513,0z M5.408,13.092C4.901,13.138,4.41,12.95,4.047,12.58c-0.084-0.086-0.161-0.181-0.23-0.286
	c-0.364-0.553-0.429-1.257-0.162-1.754c0.228-0.423,0.653-0.656,1.196-0.656L17.553,9.76c0.609-0.027,1.149,0.262,1.473,0.796
	c0.323,0.533,0.353,1.216,0.074,1.699c-0.244,0.422-0.696,0.657-1.24,0.644C16.146,12.89,5.408,13.092,5.408,13.092z"/>
</svg>
