<?xml version="1.0" encoding="utf-8"?>
<!-- Generator: Adobe Illustrator 22.1.0, SVG Export Plug-In . SVG Version: 6.00 Build 0)  -->
<svg version="1.1" id="Capa_1" xmlns="http://www.w3.org/2000/svg" xmlns:xlink="http://www.w3.org/1999/xlink" x="0px" y="0px"
	 width="24.58px" height="21.553px" viewBox="0 0 24.58 21.553" enable-background="new 0 0 24.58 21.553" xml:space="preserve">
<g>
	<g>
		<path fill="#FFFFFF" d="M16.999,21.553c-4.18,0-7.58-3.401-7.58-7.58c0-4.18,3.4-7.581,7.58-7.581c4.18,0,7.581,3.401,7.581,7.581
			C24.58,18.152,21.179,21.553,16.999,21.553z M16.999,7.392c-3.628,0-6.58,2.952-6.58,6.581s2.952,6.58,6.58,6.58
			s6.581-2.952,6.581-6.58S20.628,7.392,16.999,7.392z"/>
		<g>
			<path fill="#FFFFFF" d="M11.281,6.927H0.577C0.26,6.927,0,7.187,0,7.504v1.155c0,0.318,0.26,0.577,0.577,0.577h8.689
				C9.807,8.358,10.485,7.575,11.281,6.927z"/>
			<path fill="#FFFFFF" d="M0.577,3.464h7.504v0.577c0,0.318,0.26,0.577,0.577,0.577h1.155c0.318,0,0.577-0.26,0.577-0.577V3.464
				h7.505c0.317,0,0.577-0.26,0.577-0.577V1.732c0-0.318-0.26-0.577-0.577-0.577h-7.505V0.577C10.391,0.26,10.131,0,9.813,0H8.659
				C8.342,0,8.082,0.26,8.082,0.577v0.577H0.577C0.26,1.155,0,1.414,0,1.732v1.154C0,3.204,0.26,3.464,0.577,3.464z"/>
			<path fill="#FFFFFF" d="M8.019,12.7H5.773v-0.577c0-0.317-0.26-0.577-0.577-0.577H4.041c-0.318,0-0.577,0.26-0.577,0.577V12.7
				H0.577C0.26,12.7,0,12.959,0,13.277v1.155c0,0.317,0.26,0.577,0.577,0.577h2.886v0.577c0,0.317,0.26,0.577,0.577,0.577h1.155
				c0.318,0,0.577-0.26,0.577-0.577v-0.577h2.21c-0.039-0.341-0.064-0.686-0.064-1.036C7.919,13.54,7.96,13.117,8.019,12.7z"/>
		</g>
		<g>
			<path fill="#64AFFF" d="M16.18,17.721l5.253-5.253c0.178-0.178,0.178-0.468,0-0.646l-0.646-0.646
				c-0.178-0.178-0.468-0.178-0.646,0l-4.284,4.284l-2-2c-0.178-0.178-0.468-0.178-0.646,0l-0.646,0.646
				c-0.178,0.178-0.178,0.468,0,0.646l2.969,2.969C15.713,17.9,16.002,17.9,16.18,17.721L16.18,17.721z"/>
		</g>
	</g>
	<path opacity="0.2" fill="#64AFFF" d="M16.999,7.392c-3.628,0-6.58,2.952-6.58,6.581s2.952,6.58,6.58,6.58s6.581-2.952,6.581-6.58
		S20.628,7.392,16.999,7.392z"/>
</g>
</svg>
