<?xml version="1.0" encoding="utf-8"?>
<!-- Generator: Adobe Illustrator 22.1.0, SVG Export Plug-In . SVG Version: 6.00 Build 0)  -->
<svg version="1.1" id="Capa_1" xmlns="http://www.w3.org/2000/svg" xmlns:xlink="http://www.w3.org/1999/xlink" x="0px" y="0px"
	 width="24.553px" height="13.512px" viewBox="0 0 24.553 13.512" enable-background="new 0 0 24.553 13.512" xml:space="preserve">
<path fill="#FFFFFF" d="M19.861,4.128c-2.591,0-4.692,2.101-4.692,4.692c0,2.591,2.101,4.692,4.692,4.692s4.692-2.1,4.692-4.692
	C24.553,6.229,22.452,4.128,19.861,4.128z M19.874,12.196c-0.536,0-0.912-0.375-0.912-0.92c0-0.537,0.376-0.912,0.912-0.912
	c0.545,0,0.921,0.375,0.921,0.912C20.795,11.821,20.42,12.196,19.874,12.196z M20.652,9.891h-1.493c0-1.332,0.984-1.475,0.984-2.163
	c0-0.259-0.125-0.376-0.394-0.376c-0.331,0-0.483,0.224-0.483,0.706h-1.538c0-1.439,0.813-2.288,2.208-2.288
	c1.296,0,2.056,0.599,2.056,1.627C21.993,8.693,20.652,8.952,20.652,9.891z M8.753,2.874c-0.605,0-1.166,0.176-1.654,0.461
	C6.751,3.466,6.461,3.709,6.271,4.024c-0.503,0.579-0.818,1.325-0.818,2.15c0,1.82,1.481,3.301,3.3,3.301s3.3-1.48,3.3-3.301
	C12.053,4.355,10.573,2.874,8.753,2.874z M8.753,8.323c-1.185,0-2.148-0.964-2.148-2.149c0-0.019,0.005-0.037,0.006-0.057
	c0.287,0.246,0.656,0.399,1.063,0.399c0.908,0,1.645-0.737,1.645-1.645c0-0.296-0.084-0.57-0.222-0.81
	c1.02,0.166,1.804,1.047,1.804,2.113C10.901,7.359,9.938,8.323,8.753,8.323z M13.269,9.397c0.046,0.458,0.146,0.9,0.287,1.323
	c-0.669,0.392-1.473,0.778-2.427,1.059C10.405,11.992,9.606,12.1,8.753,12.1c-3.606,0-6.896-2.049-8.586-5.346
	C-0.056,6.312-0.056,5.789,0.166,5.35c0.28-0.546,0.641-1.093,1.105-1.677c0.006-0.016,1.09-1.682,3.431-2.741l0.161-0.073
	C6.081,0.298,7.421,0.001,8.753,0c2.894,0,5.569,1.335,7.392,3.56c-0.364,0.227-0.704,0.489-1.012,0.784
	C13.55,2.43,11.244,1.283,8.753,1.283C7.552,1.284,6.34,1.564,5.251,2.095L4.99,2.221L4.983,2.218
	C3.176,3.113,2.321,4.407,2.312,4.421C1.863,4.989,1.548,5.465,1.309,5.932C1.272,6.004,1.272,6.096,1.31,6.173
	c1.468,2.863,4.321,4.644,7.443,4.644c0.73,0,1.407-0.09,2.013-0.269C11.798,10.246,12.646,9.796,13.269,9.397z"/>
</svg>
