<?xml version="1.0" encoding="utf-8"?>
<!-- Generator: Adobe Illustrator 22.1.0, SVG Export Plug-In . SVG Version: 6.00 Build 0)  -->
<svg version="1.1" id="Capa_1" xmlns="http://www.w3.org/2000/svg" xmlns:xlink="http://www.w3.org/1999/xlink" x="0px" y="0px"
	 width="26.012px" height="26.012px" viewBox="0 0 26.012 26.012" enable-background="new 0 0 26.012 26.012" xml:space="preserve">
<path fill="#FF4A94" d="M14.697,0.107C6.189-0.965-0.965,6.189,0.107,14.697c0.731,5.797,5.412,10.478,11.209,11.208
	c8.508,1.072,15.662-6.083,14.59-14.59C25.175,5.518,20.494,0.837,14.697,0.107z M19.034,17.882
	c-0.173,0.494-0.654,0.871-1.254,0.984c-0.657,0.124-1.303-0.105-1.734-0.609l-3.074-3.36l-3.035,3.443
	c-0.314,0.383-0.78,0.597-1.286,0.597c-0.117,0-0.236-0.011-0.357-0.035c-0.633-0.124-1.168-0.56-1.331-1.085
	c-0.139-0.448-0.011-0.903,0.361-1.28l3.441-3.72C9.683,11.66,8.66,10.567,7.624,9.539c-0.558-0.566-0.495-1.107-0.408-1.38
	c0.169-0.53,0.692-0.945,1.333-1.058c0.624-0.11,1.21,0.105,1.572,0.574l2.88,3.043l2.91-3.106c0.397-0.442,0.968-0.621,1.56-0.481
	c0.592,0.139,1.088,0.585,1.233,1.108c0.127,0.458-0.019,0.933-0.399,1.303c-1.177,1.187-2.197,2.26-3.105,3.266l3.506,3.72
	C19.079,16.961,19.191,17.436,19.034,17.882z"/>
</svg>
