<?xml version="1.0" encoding="utf-8"?>
<!-- Generator: Adobe Illustrator 22.1.0, SVG Export Plug-In . SVG Version: 6.00 Build 0)  -->
<svg version="1.1" id="Capa_1" xmlns="http://www.w3.org/2000/svg" xmlns:xlink="http://www.w3.org/1999/xlink" x="0px" y="0px"
	 width="23.232px" height="23.232px" viewBox="0 0 23.232 23.232" enable-background="new 0 0 23.232 23.232" xml:space="preserve">
<path fill="#3CC85E" d="M23.232,11.616c0,6.415-5.201,11.616-11.616,11.616S0,18.032,0,11.616S5.201,0,11.616,0
	S23.232,5.201,23.232,11.616z M10.273,17.767l8.618-8.618c0.293-0.293,0.293-0.767,0-1.06l-1.06-1.06
	c-0.293-0.293-0.767-0.293-1.06,0l-7.029,7.029l-3.282-3.282c-0.293-0.293-0.767-0.293-1.06,0l-1.06,1.06
	c-0.293,0.293-0.293,0.767,0,1.06l4.871,4.871C9.505,18.06,9.98,18.06,10.273,17.767L10.273,17.767z"/>
</svg>
