<?xml version="1.0" encoding="utf-8"?>
<!-- Generator: Adobe Illustrator 22.1.0, SVG Export Plug-In . SVG Version: 6.00 Build 0)  -->
<svg version="1.1" id="Capa_1" xmlns="http://www.w3.org/2000/svg" xmlns:xlink="http://www.w3.org/1999/xlink" x="0px" y="0px"
	 width="41.238px" height="17.108px" viewBox="0 0 41.238 17.108" enable-background="new 0 0 41.238 17.108" xml:space="preserve">
<g>
	<g>
		<g>
			<path fill="#FFFFFF" d="M31.441,2.305h2.305c0.318,0,0.576-0.258,0.576-0.576V0.576C34.322,0.258,34.064,0,33.746,0h-2.305
				c-0.318,0-0.576,0.258-0.576,0.576v1.153C30.865,2.047,31.123,2.305,31.441,2.305z M31.441,6.915h4.61
				c0.318,0,0.576-0.258,0.576-0.576V5.186c0-0.318-0.258-0.576-0.576-0.576h-4.61c-0.318,0-0.576,0.258-0.576,0.576v1.153
				C30.865,6.657,31.123,6.915,31.441,6.915z M40.661,13.83h-9.22c-0.318,0-0.576,0.258-0.576,0.576v1.153
				c0,0.318,0.258,0.576,0.576,0.576h9.22c0.318,0,0.576-0.258,0.576-0.576v-1.153C41.238,14.088,40.98,13.83,40.661,13.83z
				 M31.441,11.525h6.915c0.318,0,0.576-0.258,0.576-0.576V9.796c0-0.318-0.258-0.576-0.576-0.576h-6.915
				c-0.318,0-0.576,0.258-0.576,0.576v1.153C30.865,11.267,31.123,11.525,31.441,11.525z M23.374,4.61h1.729v10.949
				c0,0.318,0.258,0.576,0.576,0.576h1.153c0.318,0,0.576-0.258,0.576-0.576V4.61h1.729c0.512,0,0.77-0.621,0.407-0.984
				l-2.881-3.458c-0.225-0.225-0.59-0.225-0.815,0l-2.881,3.458C22.605,3.988,22.861,4.61,23.374,4.61z"/>
		</g>
		<g>
			<path fill="#FFFFFF" d="M31.441,2.305h2.305c0.318,0,0.576-0.258,0.576-0.576V0.576C34.322,0.258,34.064,0,33.746,0h-2.305
				c-0.318,0-0.576,0.258-0.576,0.576v1.153C30.865,2.047,31.123,2.305,31.441,2.305z M31.441,6.915h4.61
				c0.318,0,0.576-0.258,0.576-0.576V5.186c0-0.318-0.258-0.576-0.576-0.576h-4.61c-0.318,0-0.576,0.258-0.576,0.576v1.153
				C30.865,6.657,31.123,6.915,31.441,6.915z M40.661,13.83h-9.22c-0.318,0-0.576,0.258-0.576,0.576v1.153
				c0,0.318,0.258,0.576,0.576,0.576h9.22c0.318,0,0.576-0.258,0.576-0.576v-1.153C41.238,14.088,40.98,13.83,40.661,13.83z
				 M31.441,11.525h6.915c0.318,0,0.576-0.258,0.576-0.576V9.796c0-0.318-0.258-0.576-0.576-0.576h-6.915
				c-0.318,0-0.576,0.258-0.576,0.576v1.153C30.865,11.267,31.123,11.525,31.441,11.525z M23.374,4.61h1.729v10.949
				c0,0.318,0.258,0.576,0.576,0.576h1.153c0.318,0,0.576-0.258,0.576-0.576V4.61h1.729c0.512,0,0.77-0.621,0.407-0.984
				l-2.881-3.458c-0.225-0.225-0.59-0.225-0.815,0l-2.881,3.458C22.605,3.988,22.861,4.61,23.374,4.61z"/>
		</g>
	</g>
	<g>
		<path fill="none" d="M1.845,11.192c-0.608,0-1.102,0.495-1.102,1.103c0,0.607,0.494,1.103,1.102,1.103
			c0.608,0,1.103-0.495,1.103-1.103C2.948,11.687,2.453,11.192,1.845,11.192z"/>
		<path fill="none" d="M14.758,7.667l-0.61,0.558c-1.63,1.49-3.539,0.5-4.16-0.18C9.457,7.467,9.183,6.718,9.216,5.933
			C9.25,5.15,9.588,4.425,10.169,3.894l2.474-2.27H9.093l-0.396,0.13L5.836,4.568H3.692V11.2h1.5l4.393,3.973
			c0.369,0.3,0.844,0.463,1.334,0.463c0.083,0,0.167-0.005,0.25-0.015c0.584-0.066,1.109-0.353,1.477-0.807l0.482-0.593l1.42,1.215
			c0.305,0.243,0.939,0.322,1.34-0.164l1.151-1.401l0.821,0.666c0.315,0.253,0.777,0.202,1.033-0.11l1.202-1.483l0.003-0.003
			c0.248-0.314,0.2-0.775-0.111-1.031L14.758,7.667z"/>
		<path fill="#FFFFFF" d="M21.335,11.2l-0.109-0.134c-0.09-0.11-0.193-0.213-0.303-0.303l-5.059-4.109l0.889-0.812
			c0.073-0.066,0.116-0.16,0.121-0.26c0.004-0.098-0.03-0.191-0.097-0.262l-0.5-0.54c-0.141-0.151-0.379-0.161-0.529-0.023
			l-2.542,2.33c-0.606,0.554-1.571,0.549-2.106-0.018c-0.274-0.291-0.416-0.669-0.4-1.063c0.015-0.394,0.184-0.756,0.474-1.021
			l3.022-2.767c0.407-0.374,0.937-0.58,1.491-0.58l3.854-0.009c0.201,0,0.39,0.081,0.521,0.222l0.287,0.286
			c0.108-0.171,0.226-0.337,0.364-0.492l0.566-0.676l-0.177-0.176c-0.418-0.416-0.975-0.645-1.566-0.645H9.088
			c-0.582,0-1.153,0.235-1.568,0.646L5.222,3.092H0v11.049h2.583c0.605,0,1.101-0.493,1.104-1.098l0.002-0.364h0.924l4.001,3.614
			c1.264,1.027,3.043,1.089,4.412,0.146l0.232-0.16l0.214,0.184c0.502,0.434,1.044,0.644,1.655,0.644c0.78,0,1.44-0.327,1.965-0.971
			l0.168-0.207l0.249,0.098c0.902,0.355,1.918,0.088,2.531-0.665l1.207-1.488c0.209-0.258,0.354-0.563,0.429-0.908l0.063-0.288
			h0.364V11.2H21.335z M1.845,13.398c-0.608,0-1.102-0.495-1.102-1.103c0-0.608,0.494-1.103,1.102-1.103
			c0.608,0,1.103,0.495,1.103,1.103C2.948,12.903,2.453,13.398,1.845,13.398z M20.099,12.942l-0.003,0.003l-1.202,1.483
			c-0.256,0.312-0.718,0.363-1.033,0.11l-0.821-0.666l-1.151,1.401c-0.401,0.486-1.034,0.407-1.34,0.164l-1.42-1.215l-0.482,0.593
			c-0.368,0.454-0.893,0.74-1.477,0.807c-0.084,0.01-0.167,0.015-0.25,0.015c-0.49,0-0.965-0.164-1.334-0.463L5.192,11.2h-1.5V4.568
			h2.144l2.861-2.813l0.396-0.13h3.551l-2.474,2.27C9.588,4.425,9.25,5.15,9.216,5.933c-0.033,0.785,0.24,1.534,0.772,2.112
			c0.621,0.68,2.53,1.669,4.16,0.18l0.61-0.558l5.229,4.244C20.299,12.166,20.347,12.628,20.099,12.942z"/>
	</g>
	<path opacity="0.3" fill="#64AFFF" d="M20.099,12.942l-0.003,0.003l-1.202,1.483c-0.256,0.312-0.718,0.363-1.033,0.11l-0.821-0.666
		l-1.151,1.401c-0.401,0.486-1.034,0.407-1.34,0.164l-1.42-1.215l-0.482,0.593c-0.368,0.454-0.893,0.74-1.477,0.807
		c-0.084,0.01-0.167,0.015-0.25,0.015c-0.49,0-0.965-0.164-1.334-0.463L5.192,11.2h-1.5V4.568h2.144l2.861-2.813l0.396-0.13h3.551
		l-2.474,2.27C9.588,4.425,9.25,5.15,9.216,5.933c-0.033,0.785,0.24,1.534,0.772,2.112c0.621,0.68,2.53,1.669,4.16,0.18l0.61-0.558
		l5.229,4.244C20.299,12.166,20.347,12.628,20.099,12.942z"/>
	<path opacity="0.3" fill="#64AFFF" d="M19.54,1.629l-3.854,0.009c-0.554,0-1.083,0.206-1.491,0.58l-3.022,2.767
		c-0.29,0.265-0.459,0.627-0.474,1.021c-0.016,0.394,0.125,0.771,0.4,1.063c0.535,0.567,1.5,0.572,2.106,0.018l2.542-2.33
		c0.15-0.137,0.388-0.128,0.529,0.023l0.5,0.54c0.067,0.071,0.101,0.165,0.097,0.262c-0.005,0.1-0.047,0.193-0.121,0.26
		l-0.889,0.812l5.059,4.109c0.11,0.09,0.213,0.193,0.303,0.303l0.109,0.134h0.768V7.378c-0.903-0.342-1.646-1.044-2.031-1.975
		c-0.452-1.088-0.332-2.299,0.276-3.267l-0.287-0.286C19.93,1.71,19.74,1.629,19.54,1.629z"/>
</g>
</svg>
