<?xml version="1.0" encoding="utf-8"?>
<!-- Generator: Adobe Illustrator 22.1.0, SVG Export Plug-In . SVG Version: 6.00 Build 0)  -->
<svg version="1.1" id="Capa_1" xmlns="http://www.w3.org/2000/svg" xmlns:xlink="http://www.w3.org/1999/xlink" x="0px" y="0px"
	 width="202.288px" height="157.277px" viewBox="0 0 202.288 157.277" enable-background="new 0 0 202.288 157.277"
	 xml:space="preserve">
<g>
	<g opacity="0.9">
		<g opacity="0.7">
			<g>
				<path fill="#E6E8EC" d="M184.776,155.413c0,1.03-37.443,1.865-83.632,1.865s-83.632-0.835-83.632-1.865
					c0-1.03,37.443-1.865,83.632-1.865S184.776,154.383,184.776,155.413z"/>
			</g>
			<g>
				<g>
					<g>
						<path opacity="0.7" fill="#709F3B" d="M182.718,154.973c-3.708-7.815-18.339-14.92-9.549-24.787
							c8.79-9.867-19.217-20.905-6.372-30.158c14.151-10.193,6.834-24.739,15.92-24.739V154.973z"/>
						<path fill="#C0C7D0" d="M182.938,155.95l-0.419-0.883c-1.128-2.378-3.251-4.658-5.499-7.071
							c-5.029-5.399-10.229-10.982-4.015-17.957c4.062-4.559,0.097-9.288-4.101-14.294c-3.028-3.61-6.158-7.343-5.714-10.897
							c0.23-1.843,1.369-3.478,3.479-4.999c7.494-5.398,8.935-12.135,9.988-17.054c0.959-4.485,1.653-7.726,6.061-7.726h0.22V155.95
							z M182.498,75.512c-3.856,0.105-4.478,3.014-5.411,7.375c-1.067,4.989-2.529,11.822-10.161,17.319
							c-2.006,1.445-3.085,2.981-3.3,4.696c-0.421,3.364,2.647,7.022,5.614,10.56c4.133,4.929,8.407,10.026,4.092,14.869
							c-5.947,6.676-0.886,12.11,4.008,17.365c2.021,2.169,3.942,4.232,5.156,6.378V75.512z"/>
					</g>
					<g>
						<path opacity="0.7" fill="#709F3B" d="M182.718,154.973c3.708-7.815,18.339-14.92,9.549-24.787
							c-8.79-9.867,19.217-20.905,6.371-30.158c-14.151-10.193-6.834-24.739-15.92-24.739V154.973z"/>
						<path fill="#C0C7D0" d="M182.498,155.949v-80.88h0.22c4.408,0,5.102,3.241,6.061,7.726c1.053,4.919,2.494,11.656,9.988,17.054
							c2.111,1.52,3.248,3.155,3.479,4.998c0.445,3.554-2.686,7.287-5.713,10.898c-4.198,5.006-8.163,9.734-4.101,14.294
							c6.214,6.975,1.014,12.558-4.015,17.957c-2.248,2.413-4.371,4.693-5.499,7.071L182.498,155.949z M182.938,75.512v78.562
							c1.215-2.146,3.135-4.209,5.156-6.378c4.895-5.255,9.955-10.689,4.009-17.365c-4.315-4.843-0.041-9.94,4.092-14.869
							c2.967-3.538,6.035-7.196,5.614-10.56c-0.214-1.715-1.293-3.251-3.299-4.696c-7.632-5.497-9.093-12.33-10.161-17.319
							C187.416,78.526,186.794,75.617,182.938,75.512z"/>
					</g>
				</g>
				<g>
					<path fill="#C0C7D0" d="M182.938,149.473h-0.44c0-10.661-12.01-12.869-12.131-12.89l0.075-0.434
						C170.567,136.172,182.938,138.439,182.938,149.473z"/>
				</g>
				<g>
					<path fill="#C0C7D0" d="M182.938,125.636h-0.44c0-5.482-2.582-10.994-7.083-15.124c-3.791-3.478-8.403-5.444-12.029-5.131
						l-0.038-0.438c3.743-0.326,8.485,1.686,12.364,5.245C180.305,114.401,182.938,120.031,182.938,125.636z"/>
				</g>
				<g>
					<path fill="#C0C7D0" d="M182.938,102.929h-0.44c0-12.154-6.057-18.326-6.118-18.386l0.31-0.312
						C176.753,84.293,182.938,90.594,182.938,102.929z"/>
				</g>
				<g>
					<path fill="#C0C7D0" d="M182.938,149.473h-0.44c0-11.034,12.372-13.302,12.497-13.323l0.075,0.434
						C194.949,136.605,182.938,138.812,182.938,149.473z"/>
				</g>
				<g>
					<path fill="#C0C7D0" d="M182.938,125.636h-0.44c0-5.605,2.634-11.235,7.225-15.448c3.879-3.559,8.616-5.571,12.365-5.245
						l-0.038,0.438c-3.632-0.313-8.238,1.653-12.03,5.131C185.52,114.642,182.938,120.155,182.938,125.636z"/>
				</g>
				<g>
					<path fill="#C0C7D0" d="M182.938,102.929h-0.44c0-12.335,6.186-18.636,6.249-18.698l0.31,0.312
						C188.996,84.603,182.938,90.788,182.938,102.929z"/>
				</g>
			</g>
			<g>
				<g>
					<g>
						<path opacity="0.7" fill="#709F3B" d="M19.57,154.973c3.708-7.815,18.339-14.92,9.549-24.787
							c-8.79-9.867,19.217-20.905,6.371-30.158c-14.151-10.193-6.834-24.739-15.92-24.739V154.973z"/>
						<path fill="#C0C7D0" d="M19.35,155.949v-80.88h0.22c4.408,0,5.102,3.241,6.061,7.726c1.053,4.919,2.494,11.656,9.988,17.054
							c2.111,1.52,3.248,3.155,3.479,4.998c0.445,3.554-2.686,7.287-5.714,10.898c-4.198,5.006-8.163,9.734-4.101,14.294
							c6.214,6.975,1.014,12.558-4.015,17.957c-2.248,2.413-4.371,4.692-5.499,7.071L19.35,155.949z M19.79,75.512v78.562
							c1.215-2.146,3.135-4.209,5.156-6.378c4.894-5.255,9.955-10.689,4.008-17.365c-4.315-4.843-0.041-9.94,4.093-14.869
							c2.967-3.538,6.035-7.196,5.614-10.56c-0.214-1.715-1.293-3.251-3.299-4.696c-7.632-5.497-9.093-12.33-10.161-17.319
							C24.268,78.526,23.646,75.617,19.79,75.512z"/>
					</g>
					<g>
						<path opacity="0.7" fill="#709F3B" d="M19.57,154.973c-3.708-7.815-18.339-14.92-9.549-24.787
							c8.79-9.867-19.217-20.905-6.371-30.158c14.151-10.193,6.834-24.739,15.92-24.739V154.973z"/>
						<path fill="#C0C7D0" d="M19.79,155.95l-0.419-0.883c-1.128-2.378-3.251-4.658-5.499-7.071
							c-5.029-5.399-10.229-10.982-4.015-17.957c4.062-4.559,0.097-9.288-4.101-14.294c-3.028-3.61-6.158-7.343-5.714-10.897
							c0.23-1.843,1.369-3.478,3.479-4.999c7.494-5.398,8.935-12.135,9.988-17.054c0.959-4.485,1.653-7.726,6.061-7.726h0.22V155.95
							z M19.35,75.512c-3.856,0.105-4.478,3.014-5.411,7.375c-1.067,4.989-2.529,11.822-10.161,17.319
							c-2.006,1.445-3.085,2.981-3.3,4.696c-0.421,3.364,2.647,7.022,5.614,10.56c4.133,4.929,8.407,10.026,4.092,14.869
							c-5.947,6.676-0.886,12.11,4.008,17.365c2.021,2.169,3.942,4.232,5.156,6.378V75.512z"/>
					</g>
				</g>
				<g>
					<path fill="#C0C7D0" d="M19.79,149.473h-0.44c0-11.034,12.372-13.302,12.497-13.323l0.075,0.434
						C31.801,136.605,19.79,138.812,19.79,149.473z"/>
				</g>
				<g>
					<path fill="#C0C7D0" d="M19.79,125.636h-0.44c0-5.605,2.634-11.235,7.225-15.448c3.879-3.559,8.616-5.571,12.364-5.245
						l-0.038,0.438c-3.633-0.313-8.238,1.653-12.029,5.131C22.371,114.642,19.79,120.155,19.79,125.636z"/>
				</g>
				<g>
					<path fill="#C0C7D0" d="M19.79,102.929h-0.44c0-12.335,6.186-18.636,6.249-18.698l0.31,0.312
						C25.848,84.603,19.79,90.788,19.79,102.929z"/>
				</g>
				<g>
					<path fill="#C0C7D0" d="M19.79,149.473h-0.44c0-10.661-12.01-12.869-12.131-12.89l0.075-0.434
						C7.418,136.172,19.79,138.439,19.79,149.473z"/>
				</g>
				<g>
					<path fill="#C0C7D0" d="M19.79,125.636h-0.44c0-5.482-2.582-10.994-7.083-15.124c-3.791-3.478-8.401-5.444-12.029-5.131
						L0.2,104.943c3.743-0.326,8.485,1.686,12.364,5.245C17.156,114.401,19.79,120.031,19.79,125.636z"/>
				</g>
				<g>
					<path fill="#C0C7D0" d="M19.79,102.929h-0.44c0-12.154-6.057-18.326-6.118-18.386l0.31-0.312
						C13.605,84.293,19.79,90.594,19.79,102.929z"/>
				</g>
			</g>
			<g>
				<path fill="#C0C7D0" d="M47.757,52.462c0-0.824-0.075-1.631-0.217-2.414c-0.087-0.483,0.143-0.966,0.568-1.211l1.891-1.092
					c0.561-0.324,0.754-1.042,0.43-1.603l-2.659-4.605c-0.324-0.561-1.042-0.754-1.603-0.43L44.273,42.2
					c-0.425,0.245-0.959,0.203-1.333-0.114c-1.226-1.038-2.639-1.863-4.181-2.417c-0.461-0.165-0.763-0.607-0.763-1.096V36.39
					c0-0.648-0.525-1.173-1.173-1.173h-5.317c-0.648,0-1.173,0.525-1.173,1.173v2.182c0,0.489-0.303,0.931-0.763,1.096
					c-1.542,0.554-2.954,1.379-4.181,2.417c-0.374,0.317-0.908,0.359-1.333,0.114l-1.893-1.093
					c-0.561-0.324-1.279-0.132-1.603,0.429L17.9,46.141c-0.324,0.561-0.132,1.279,0.43,1.603l1.891,1.092
					c0.425,0.245,0.655,0.729,0.568,1.211c-0.142,0.784-0.217,1.59-0.217,2.414c0,0.824,0.075,1.631,0.217,2.414
					c0.087,0.483-0.143,0.966-0.568,1.211l-1.891,1.092c-0.561,0.324-0.754,1.042-0.43,1.603l2.659,4.605
					c0.324,0.561,1.042,0.754,1.603,0.429l1.893-1.093c0.425-0.245,0.959-0.203,1.333,0.114c1.226,1.038,2.639,1.863,4.181,2.417
					c0.461,0.165,0.763,0.607,0.763,1.096v2.182c0,0.648,0.525,1.173,1.173,1.173h5.317c0.648,0,1.173-0.525,1.173-1.173v-2.182
					c0-0.489,0.303-0.931,0.763-1.096c1.542-0.554,2.954-1.379,4.181-2.417c0.374-0.317,0.908-0.359,1.333-0.114l1.893,1.093
					c0.561,0.324,1.279,0.132,1.603-0.43l2.659-4.605c0.324-0.561,0.132-1.279-0.43-1.603l-1.891-1.092
					c-0.425-0.245-0.655-0.729-0.567-1.211C47.682,54.093,47.757,53.286,47.757,52.462z M35.116,59.728
					c-4.792,0.604-8.822-3.426-8.218-8.219c0.412-3.265,3.048-5.902,6.314-6.314c4.792-0.604,8.823,3.426,8.219,8.219
					C41.019,56.68,38.382,59.316,35.116,59.728z"/>
				<path fill="#C0C7D0" d="M36.823,69.927h-5.317c-0.768,0-1.393-0.625-1.393-1.393v-2.182c0-0.399-0.248-0.757-0.617-0.889
					c-1.554-0.558-2.983-1.385-4.249-2.457c-0.3-0.254-0.734-0.292-1.081-0.091l-1.893,1.093c-0.665,0.384-1.52,0.155-1.904-0.51
					l-2.659-4.605c-0.384-0.665-0.156-1.519,0.51-1.904l1.891-1.092c0.346-0.2,0.531-0.594,0.461-0.981
					c-0.146-0.809-0.22-1.635-0.22-2.454s0.074-1.644,0.22-2.454c0.07-0.388-0.115-0.782-0.461-0.981l-1.891-1.092
					c-0.666-0.384-0.894-1.238-0.51-1.904l2.659-4.605c0.384-0.665,1.237-0.894,1.904-0.51l1.893,1.093
					c0.346,0.2,0.78,0.163,1.081-0.092c1.265-1.072,2.695-1.898,4.249-2.457c0.369-0.133,0.617-0.49,0.617-0.889V36.39
					c0-0.768,0.625-1.393,1.393-1.393h5.317c0.768,0,1.393,0.625,1.393,1.393v2.183c0,0.399,0.248,0.756,0.617,0.889
					c1.554,0.558,2.983,1.385,4.249,2.457c0.301,0.254,0.735,0.291,1.081,0.092l1.894-1.093c0.322-0.186,0.697-0.236,1.057-0.139
					c0.359,0.096,0.66,0.327,0.846,0.649l2.659,4.605c0.384,0.665,0.156,1.519-0.51,1.904l-1.891,1.092
					c-0.346,0.2-0.531,0.594-0.461,0.981c0.146,0.808,0.22,1.634,0.22,2.454c0,0.82-0.074,1.645-0.22,2.454
					c-0.07,0.387,0.115,0.782,0.461,0.981l1.891,1.092c0.666,0.384,0.894,1.238,0.51,1.904l-2.659,4.605
					c-0.186,0.322-0.486,0.553-0.846,0.649c-0.36,0.096-0.734,0.047-1.057-0.139l-1.894-1.093c-0.346-0.2-0.78-0.163-1.081,0.092
					c-1.265,1.072-2.695,1.898-4.249,2.456c-0.369,0.133-0.617,0.49-0.617,0.889v2.182C38.216,69.302,37.591,69.927,36.823,69.927z
					 M24.642,62.346c0.319,0,0.636,0.11,0.888,0.324c1.225,1.037,2.609,1.838,4.113,2.378c0.544,0.195,0.909,0.719,0.909,1.304
					v2.182c0,0.526,0.428,0.953,0.953,0.953h5.317c0.526,0,0.953-0.428,0.953-0.953v-2.182c0-0.584,0.365-1.108,0.909-1.304
					c1.504-0.54,2.888-1.34,4.113-2.378c0.442-0.374,1.079-0.429,1.585-0.137l1.894,1.093c0.22,0.127,0.476,0.162,0.723,0.095
					c0.246-0.066,0.452-0.224,0.579-0.444l2.659-4.605c0.263-0.455,0.106-1.039-0.349-1.302l-1.891-1.092
					c-0.506-0.292-0.777-0.871-0.674-1.441c0.142-0.783,0.214-1.582,0.214-2.375c0-0.793-0.072-1.592-0.214-2.375
					c-0.103-0.57,0.168-1.148,0.674-1.441l1.891-1.092c0.22-0.127,0.378-0.333,0.444-0.579c0.066-0.246,0.032-0.503-0.095-0.723
					l-2.659-4.605c-0.128-0.221-0.333-0.378-0.579-0.444c-0.247-0.067-0.503-0.032-0.723,0.095l-1.894,1.093
					c-0.506,0.292-1.143,0.237-1.585-0.137c-1.225-1.037-2.609-1.838-4.113-2.378c-0.544-0.196-0.909-0.719-0.909-1.303V36.39
					c0-0.526-0.428-0.953-0.953-0.953h-5.317c-0.526,0-0.953,0.428-0.953,0.953v2.183c0,0.584-0.365,1.108-0.909,1.303
					c-1.504,0.54-2.888,1.34-4.113,2.378c-0.442,0.374-1.079,0.429-1.585,0.137l-1.893-1.093c-0.456-0.263-1.04-0.106-1.303,0.349
					l-2.659,4.605c-0.263,0.455-0.106,1.04,0.349,1.302l1.891,1.092c0.506,0.292,0.777,0.871,0.674,1.441
					c-0.141,0.784-0.213,1.583-0.213,2.375s0.072,1.592,0.213,2.375c0.103,0.57-0.168,1.149-0.674,1.441l-1.891,1.092
					c-0.455,0.263-0.612,0.847-0.349,1.302l2.659,4.605c0.263,0.455,0.846,0.612,1.303,0.349l1.893-1.093
					C24.162,62.407,24.403,62.346,24.642,62.346z M34.167,60.008c-2.003,0-3.908-0.779-5.338-2.21
					c-1.662-1.662-2.445-3.964-2.149-6.316c0.422-3.347,3.157-6.083,6.505-6.505c2.352-0.296,4.654,0.487,6.316,2.149
					c1.662,1.662,2.445,3.964,2.148,6.316c-0.422,3.347-3.157,6.082-6.505,6.504l0,0C34.817,59.987,34.49,60.008,34.167,60.008z
					 M34.16,45.356c-0.305,0-0.612,0.019-0.921,0.058c-3.151,0.397-5.726,2.972-6.123,6.123c-0.279,2.216,0.458,4.385,2.023,5.95
					c1.565,1.564,3.732,2.302,5.949,2.023l0,0c3.151-0.397,5.726-2.972,6.123-6.123c0.279-2.216-0.458-4.385-2.023-5.95
					C37.842,46.09,36.047,45.356,34.16,45.356z"/>
			</g>
			<g>
				<path fill="#C0C7D0" d="M67.034,28.209c0.503-0.845,0.919-1.718,1.252-2.608c0.205-0.548,0.736-0.903,1.321-0.895l2.605,0.035
					c0.773,0.01,1.409-0.608,1.419-1.381l0.086-6.345c0.01-0.773-0.608-1.409-1.381-1.419l-2.609-0.035
					c-0.585-0.008-1.107-0.378-1.297-0.931c-0.623-1.814-1.568-3.522-2.811-5.031c-0.371-0.451-0.412-1.089-0.113-1.59l1.333-2.238
					c0.396-0.665,0.178-1.524-0.487-1.92l-5.452-3.247c-0.665-0.396-1.524-0.178-1.92,0.487l-1.333,2.238
					c-0.299,0.502-0.879,0.77-1.452,0.658c-1.92-0.374-3.871-0.39-5.763-0.075c-0.577,0.096-1.151-0.186-1.436-0.697l-1.274-2.277
					c-0.378-0.675-1.231-0.916-1.906-0.538l-5.538,3.098c-0.675,0.378-0.916,1.231-0.538,1.906l1.272,2.274
					c0.286,0.511,0.226,1.147-0.158,1.588c-0.624,0.717-1.193,1.498-1.697,2.343c-0.503,0.845-0.919,1.718-1.252,2.608
					c-0.205,0.548-0.736,0.903-1.321,0.895l-2.605-0.035c-0.773-0.01-1.409,0.608-1.419,1.381l-0.086,6.345
					c-0.01,0.773,0.608,1.409,1.381,1.419l2.609,0.035c0.585,0.008,1.107,0.378,1.297,0.931c0.623,1.814,1.568,3.522,2.811,5.031
					c0.371,0.451,0.412,1.089,0.113,1.59l-1.333,2.238c-0.396,0.664-0.178,1.524,0.487,1.92l5.452,3.247
					c0.665,0.396,1.524,0.178,1.92-0.487l1.333-2.238c0.299-0.502,0.879-0.77,1.452-0.658c1.919,0.374,3.871,0.39,5.763,0.075
					c0.577-0.096,1.151,0.186,1.436,0.697l1.274,2.277c0.378,0.675,1.231,0.916,1.906,0.538l5.538-3.098
					c0.675-0.378,0.916-1.231,0.538-1.906l-1.272-2.274c-0.286-0.511-0.226-1.147,0.158-1.588
					C65.961,29.835,66.531,29.054,67.034,28.209z M49.636,27.94c-5.283-2.307-6.954-8.901-3.408-13.446
					c2.416-3.097,6.73-4.19,10.329-2.618c5.283,2.307,6.954,8.901,3.408,13.446C57.549,28.419,53.235,29.512,49.636,27.94z"/>
				<path fill="#C0C7D0" d="M59.694,39.817c-0.568,0-1.12-0.299-1.417-0.829l-1.274-2.277c-0.241-0.432-0.725-0.668-1.208-0.587
					c-1.947,0.325-3.912,0.3-5.841-0.076c-0.477-0.092-0.968,0.13-1.221,0.555L47.4,38.84c-0.222,0.372-0.574,0.635-0.994,0.742
					c-0.419,0.106-0.855,0.043-1.227-0.179l-5.452-3.247c-0.372-0.222-0.635-0.574-0.742-0.994c-0.106-0.42-0.043-0.856,0.179-1.227
					l1.332-2.238c0.253-0.425,0.215-0.962-0.094-1.338c-1.25-1.518-2.208-3.234-2.849-5.1c-0.159-0.461-0.598-0.776-1.092-0.783
					l-2.609-0.035c-0.433-0.006-0.837-0.18-1.14-0.49c-0.302-0.31-0.465-0.72-0.459-1.152l0.086-6.345
					c0.006-0.433,0.18-0.837,0.49-1.139c0.311-0.302,0.728-0.452,1.152-0.459l2.605,0.035c0.005,0,0.011,0,0.016,0
					c0.488,0,0.927-0.301,1.097-0.753c0.344-0.918,0.771-1.807,1.269-2.644s1.076-1.635,1.72-2.375
					c0.32-0.368,0.373-0.905,0.131-1.337l-1.272-2.274c-0.211-0.378-0.263-0.815-0.145-1.232c0.118-0.416,0.391-0.762,0.768-0.974
					l5.538-3.098c0.78-0.435,1.769-0.157,2.206,0.623l1.274,2.277c0.241,0.432,0.727,0.668,1.208,0.587
					c1.949-0.325,3.914-0.3,5.841,0.076c0.478,0.093,0.968-0.13,1.221-0.555l1.332-2.238c0.458-0.768,1.454-1.02,2.221-0.563
					l5.452,3.247c0.768,0.457,1.021,1.454,0.563,2.221l-1.333,2.238c-0.253,0.425-0.215,0.963,0.094,1.338
					c1.249,1.517,2.207,3.232,2.849,5.1c0.159,0.461,0.597,0.776,1.092,0.783l2.609,0.035c0.893,0.012,1.61,0.749,1.598,1.642
					l-0.086,6.345c-0.006,0.433-0.18,0.837-0.49,1.139c-0.311,0.302-0.718,0.457-1.152,0.459l-2.605-0.035
					c-0.503,0.003-0.941,0.296-1.112,0.752c-0.343,0.916-0.77,1.805-1.269,2.643l0,0c-0.499,0.838-1.078,1.637-1.72,2.375
					c-0.32,0.368-0.373,0.905-0.131,1.337l1.272,2.274c0.211,0.378,0.263,0.815,0.145,1.232c-0.118,0.417-0.391,0.762-0.768,0.974
					l-5.538,3.098C60.233,39.75,59.962,39.817,59.694,39.817z M55.982,35.668c0.573,0,1.116,0.312,1.405,0.828l1.274,2.277
					c0.154,0.275,0.406,0.474,0.709,0.56c0.303,0.086,0.622,0.048,0.897-0.106l5.538-3.098c0.275-0.154,0.474-0.406,0.56-0.709
					c0.086-0.303,0.048-0.622-0.106-0.897l-1.272-2.274c-0.332-0.593-0.258-1.332,0.184-1.84c0.625-0.719,1.188-1.496,1.674-2.312
					c0.486-0.816,0.901-1.681,1.235-2.573c0.236-0.63,0.85-1.042,1.53-1.038l2.605,0.035c0.33,0.002,0.614-0.115,0.839-0.334
					c0.226-0.22,0.353-0.515,0.357-0.83l0.086-6.345c0.009-0.651-0.513-1.188-1.164-1.196l-2.609-0.035
					c-0.68-0.009-1.283-0.443-1.502-1.08c-0.625-1.817-1.558-3.487-2.773-4.963c-0.427-0.518-0.48-1.259-0.132-1.843l1.333-2.238
					c0.162-0.271,0.208-0.588,0.13-0.894c-0.078-0.306-0.269-0.563-0.541-0.724l-5.452-3.247c-0.558-0.332-1.285-0.149-1.618,0.41
					l-1.332,2.238C57.49,4.023,56.812,4.329,56.154,4.2c-1.876-0.365-3.788-0.39-5.685-0.073c-0.665,0.11-1.333-0.213-1.665-0.806
					l-1.274-2.277c-0.318-0.568-1.039-0.773-1.607-0.454l-5.538,3.098c-0.275,0.154-0.474,0.406-0.56,0.709
					c-0.086,0.303-0.048,0.622,0.106,0.897l1.272,2.274c0.332,0.593,0.258,1.332-0.184,1.84c-0.626,0.72-1.189,1.497-1.673,2.312
					c-0.485,0.814-0.901,1.68-1.235,2.573c-0.236,0.63-0.85,1.036-1.531,1.038l-2.605-0.035c-0.315-0.006-0.613,0.115-0.839,0.335
					c-0.226,0.22-0.353,0.515-0.357,0.83l-0.086,6.345c-0.004,0.315,0.114,0.613,0.334,0.839c0.22,0.226,0.515,0.353,0.83,0.357
					l2.609,0.035c0.68,0.009,1.283,0.443,1.502,1.08c0.624,1.816,1.557,3.486,2.772,4.963c0.427,0.518,0.48,1.259,0.132,1.843
					l-1.332,2.238c-0.162,0.271-0.208,0.588-0.13,0.894c0.077,0.306,0.269,0.563,0.54,0.724l5.452,3.247
					c0.271,0.161,0.587,0.208,0.894,0.13c0.306-0.078,0.563-0.269,0.724-0.54l1.333-2.238c0.348-0.584,1.024-0.89,1.683-0.762
					c1.876,0.365,3.789,0.39,5.685,0.073C55.809,35.675,55.896,35.668,55.982,35.668z M53.052,28.867
					c-1.189,0-2.383-0.235-3.505-0.725l0,0c-2.581-1.127-4.454-3.325-5.14-6.031c-0.686-2.706-0.086-5.531,1.647-7.752
					c2.465-3.159,6.919-4.288,10.591-2.684c2.581,1.127,4.454,3.325,5.14,6.031c0.686,2.706,0.086,5.531-1.646,7.751
					C58.426,27.652,55.755,28.867,53.052,28.867z M49.724,27.739c3.491,1.524,7.725,0.451,10.068-2.552
					c1.648-2.112,2.219-4.799,1.567-7.373c-0.652-2.573-2.435-4.664-4.89-5.736c-3.49-1.524-7.725-0.452-10.068,2.552
					c-1.648,2.112-2.219,4.8-1.567,7.373C45.486,24.576,47.268,26.666,49.724,27.739L49.724,27.739z"/>
			</g>
			<g>
				<path fill="#C0C7D0" d="M186.707,41.115c0-1.127-0.103-2.229-0.296-3.301c-0.119-0.66,0.195-1.32,0.776-1.656l2.585-1.492
					c0.767-0.443,1.03-1.424,0.587-2.191l-3.635-6.295c-0.443-0.767-1.424-1.03-2.191-0.587l-2.588,1.494
					c-0.581,0.335-1.311,0.277-1.822-0.156c-1.676-1.42-3.607-2.547-5.715-3.304c-0.63-0.226-1.043-0.83-1.043-1.499v-2.983
					c0-0.886-0.718-1.604-1.604-1.604h-7.269c-0.886,0-1.604,0.718-1.604,1.604v2.983c0,0.669-0.414,1.273-1.043,1.499
					c-2.108,0.757-4.039,1.885-5.715,3.304c-0.512,0.433-1.242,0.491-1.822,0.156l-2.588-1.494c-0.767-0.443-1.748-0.18-2.191,0.587
					l-3.635,6.295c-0.443,0.767-0.18,1.748,0.587,2.191l2.585,1.492c0.581,0.335,0.895,0.996,0.776,1.656
					c-0.193,1.071-0.296,2.174-0.296,3.301c0,1.127,0.103,2.229,0.296,3.301c0.119,0.66-0.195,1.32-0.776,1.656l-2.585,1.492
					c-0.767,0.443-1.03,1.424-0.587,2.191l3.635,6.295c0.443,0.767,1.424,1.03,2.191,0.587l2.588-1.494
					c0.581-0.335,1.311-0.277,1.822,0.156c1.676,1.42,3.607,2.547,5.715,3.304c0.63,0.226,1.043,0.83,1.043,1.499v2.983
					c0,0.886,0.718,1.604,1.604,1.604h7.269c0.886,0,1.604-0.718,1.604-1.604v-2.983c0-0.669,0.414-1.273,1.043-1.499
					c2.108-0.757,4.039-1.885,5.715-3.304c0.512-0.433,1.242-0.491,1.822-0.156l2.588,1.494c0.767,0.443,1.748,0.18,2.191-0.587
					l3.635-6.295c0.443-0.767,0.18-1.748-0.587-2.191l-2.585-1.492c-0.581-0.335-0.895-0.996-0.776-1.656
					C186.604,43.344,186.707,42.242,186.707,41.115z M169.426,51.048c-6.551,0.826-12.061-4.684-11.235-11.235
					c0.563-4.464,4.167-8.068,8.631-8.631c6.551-0.826,12.061,4.684,11.235,11.235C177.495,46.881,173.89,50.486,169.426,51.048z"/>
				<path fill="#C0C7D0" d="M171.759,64.91h-7.269c-1.006,0-1.824-0.818-1.824-1.824v-2.983c0-0.58-0.361-1.099-0.898-1.292
					c-2.115-0.76-4.061-1.885-5.783-3.344c-0.437-0.37-1.067-0.424-1.57-0.133l-2.588,1.494c-0.422,0.244-0.914,0.308-1.384,0.182
					c-0.471-0.126-0.864-0.428-1.108-0.85l-3.634-6.295c-0.244-0.422-0.309-0.914-0.182-1.384c0.126-0.471,0.428-0.864,0.85-1.108
					l2.585-1.492c0.502-0.29,0.771-0.863,0.669-1.426c-0.199-1.101-0.299-2.225-0.299-3.34c0-1.115,0.101-2.238,0.299-3.34
					c0.102-0.563-0.167-1.136-0.669-1.426l-2.585-1.492c-0.422-0.244-0.724-0.637-0.85-1.108c-0.126-0.471-0.061-0.962,0.182-1.384
					l3.635-6.295c0.243-0.422,0.636-0.724,1.107-0.85c0.471-0.126,0.962-0.061,1.384,0.182l2.588,1.494
					c0.503,0.29,1.134,0.236,1.57-0.134c1.723-1.459,3.669-2.584,5.783-3.343c0.537-0.193,0.898-0.712,0.898-1.292v-2.984
					c0-1.006,0.818-1.824,1.824-1.824h7.269c1.006,0,1.824,0.818,1.824,1.824v2.984c0,0.58,0.361,1.099,0.898,1.292
					c2.115,0.76,4.061,1.885,5.783,3.344c0.436,0.369,1.066,0.423,1.57,0.133l2.588-1.494c0.422-0.244,0.914-0.308,1.384-0.182
					c0.471,0.126,0.864,0.428,1.108,0.85l3.634,6.295c0.503,0.871,0.204,1.989-0.667,2.492l-2.585,1.492
					c-0.502,0.29-0.771,0.863-0.669,1.426c0.199,1.103,0.3,2.226,0.3,3.34c0,1.114-0.101,2.237-0.3,3.34
					c-0.102,0.563,0.167,1.136,0.669,1.426l2.585,1.492c0.871,0.503,1.17,1.621,0.667,2.492l-3.634,6.295
					c-0.244,0.422-0.637,0.724-1.108,0.85c-0.471,0.126-0.963,0.061-1.384-0.182l-2.588-1.494c-0.503-0.29-1.134-0.236-1.57,0.134
					c-1.722,1.458-3.668,2.583-5.783,3.343c-0.537,0.193-0.898,0.712-0.898,1.292v2.983C173.583,64.092,172.765,64.91,171.759,64.91
					z M155.107,54.708c0.418,0,0.831,0.144,1.162,0.423c1.682,1.424,3.582,2.523,5.647,3.265c0.711,0.256,1.189,0.941,1.189,1.706
					v2.983c0,0.763,0.621,1.384,1.384,1.384h7.269c0.763,0,1.384-0.621,1.384-1.384v-2.983c0-0.765,0.478-1.45,1.189-1.706
					c2.066-0.742,3.966-1.841,5.647-3.265c0.578-0.49,1.412-0.561,2.075-0.179l2.588,1.494c0.32,0.185,0.694,0.234,1.05,0.138
					c0.357-0.096,0.656-0.325,0.841-0.645l3.634-6.295c0.382-0.661,0.154-1.509-0.507-1.891l-2.585-1.492
					c-0.662-0.382-1.017-1.14-0.882-1.885c0.195-1.077,0.293-2.174,0.293-3.262c0-1.087-0.098-2.185-0.293-3.262
					c-0.134-0.745,0.22-1.503,0.882-1.885l2.585-1.492c0.661-0.382,0.888-1.23,0.507-1.891l-3.634-6.295
					c-0.185-0.32-0.483-0.549-0.841-0.645c-0.356-0.096-0.73-0.047-1.05,0.138l-2.588,1.494c-0.662,0.382-1.496,0.311-2.075-0.179
					c-1.682-1.425-3.582-2.523-5.647-3.265c-0.711-0.256-1.189-0.941-1.189-1.706v-2.984c0-0.763-0.621-1.384-1.384-1.384h-7.269
					c-0.763,0-1.384,0.621-1.384,1.384v2.984c0,0.765-0.478,1.45-1.189,1.706c-2.065,0.742-3.965,1.84-5.647,3.265
					c-0.578,0.49-1.412,0.562-2.075,0.179l-2.588-1.494c-0.321-0.185-0.693-0.234-1.05-0.138c-0.357,0.096-0.656,0.325-0.84,0.645
					l-3.635,6.295c-0.185,0.32-0.234,0.693-0.138,1.05c0.095,0.357,0.325,0.656,0.645,0.84l2.585,1.492
					c0.663,0.383,1.017,1.14,0.882,1.885c-0.194,1.076-0.293,2.173-0.293,3.262c0,1.089,0.098,2.186,0.293,3.262
					c0.135,0.745-0.22,1.503-0.882,1.885l-2.585,1.492c-0.32,0.185-0.55,0.483-0.645,0.84c-0.096,0.357-0.047,0.73,0.138,1.05
					l3.635,6.295c0.185,0.32,0.483,0.549,0.84,0.645c0.356,0.096,0.73,0.046,1.05-0.138l2.588-1.494
					C154.478,54.788,154.794,54.708,155.107,54.708z M168.129,51.35c-2.717,0-5.301-1.057-7.242-2.998
					c-2.254-2.254-3.316-5.376-2.914-8.567c0.572-4.539,4.282-8.25,8.822-8.822c3.19-0.401,6.313,0.66,8.567,2.914
					c2.254,2.254,3.316,5.377,2.914,8.567c-0.572,4.54-4.282,8.25-8.822,8.822C169.01,51.322,168.567,51.35,168.129,51.35z
					 M169.399,50.83l0.028,0.218L169.399,50.83c4.343-0.547,7.893-4.097,8.44-8.44c0.385-3.055-0.631-6.044-2.788-8.201
					c-2.157-2.157-5.144-3.174-8.201-2.789c-4.343,0.547-7.893,4.097-8.44,8.44c-0.385,3.054,0.631,6.044,2.788,8.201
					C163.355,50.198,166.348,51.214,169.399,50.83z"/>
			</g>
			<g>
				<g>
					<g>
						<rect x="34.164" y="52.451" fill="#E6E8EC" width="133.96" height="85.872"/>
					</g>
					<g>
						<g>
							<rect x="34.164" y="55.891" fill="#C0C7D0" width="133.96" height="7.53"/>
						</g>
						<g>
							<g>
								<path fill="#2C4359" d="M42.135,58.773l0.752,0.791v1.064h-1.504v-1.064L42.135,58.773 M42.135,58.243
									c-0.065,0-0.129,0.028-0.182,0.083l-0.913,0.961c-0.062,0.065-0.098,0.161-0.098,0.261v1.178
									c0,0.19,0.125,0.344,0.279,0.344h1.826c0.154,0,0.279-0.154,0.279-0.344v-1.178c0-0.101-0.036-0.196-0.098-0.261
									l-0.913-0.961C42.265,58.271,42.2,58.243,42.135,58.243L42.135,58.243z"/>
							</g>
							<g>
								<g>
									<path fill="#2C4359" d="M45.678,60.689c-0.072,0-0.143-0.036-0.185-0.101c-0.066-0.102-0.037-0.238,0.066-0.304
										l0.975-0.628l-0.975-0.629c-0.102-0.066-0.132-0.202-0.066-0.304c0.065-0.102,0.201-0.131,0.304-0.066l1.054,0.678
										c0.122,0.078,0.192,0.195,0.192,0.32s-0.07,0.242-0.192,0.32l-1.054,0.678C45.76,60.678,45.718,60.689,45.678,60.689z"/>
								</g>
								<g>
									<path fill="#2C4359" d="M38.593,60.689c-0.041,0-0.082-0.011-0.119-0.035l-1.054-0.678
										c-0.122-0.078-0.192-0.195-0.192-0.32s0.07-0.242,0.192-0.32l1.054-0.678c0.102-0.066,0.238-0.036,0.304,0.066
										c0.066,0.102,0.037,0.238-0.066,0.304l-0.975,0.628l0.975,0.629c0.102,0.066,0.132,0.202,0.066,0.304
										C38.736,60.654,38.665,60.689,38.593,60.689z"/>
								</g>
							</g>
						</g>
						<g>
							<g>
								<g>
									<path fill="#F2F2F2" d="M151.648,61.995h-99.36c-1.174,0-2.126-0.952-2.126-2.126v-0.426c0-1.174,0.952-2.126,2.126-2.126
										l99.36,0c1.174,0,2.126,0.952,2.126,2.126v0.426C153.774,61.043,152.822,61.995,151.648,61.995z"/>
								</g>
							</g>
							<g>
								<rect x="84.899" y="58.95" fill="#C0C7D0" width="34.137" height="1.413"/>
							</g>
							<g>
								<g>
									<path fill="#C0C7D0" d="M53.096,60.874c-0.312,0-0.624-0.119-0.862-0.356c-0.475-0.475-0.475-1.249,0-1.724
										c0.475-0.475,1.249-0.475,1.724,0c0.475,0.475,0.475,1.249,0,1.724C53.721,60.756,53.408,60.874,53.096,60.874z
										 M53.096,58.877c-0.208,0-0.404,0.081-0.551,0.228c-0.304,0.304-0.304,0.798,0,1.102c0.303,0.304,0.798,0.304,1.102,0
										c0.304-0.304,0.304-0.798,0-1.102C53.5,58.958,53.304,58.877,53.096,58.877z"/>
								</g>
								<g>
									<path fill="#C0C7D0" d="M54.403,61.183c-0.056,0-0.113-0.021-0.156-0.064l-0.6-0.6c-0.086-0.086-0.086-0.225,0-0.311
										c0.086-0.086,0.225-0.086,0.311,0l0.6,0.6c0.086,0.086,0.086,0.225,0,0.311C54.515,61.161,54.459,61.183,54.403,61.183z"/>
								</g>
							</g>
							<g>
								<g>
									<path fill="#C0C7D0" d="M151.222,60.875c-0.672,0-1.219-0.547-1.219-1.219s0.547-1.219,1.219-1.219
										c0.122,0,0.22,0.098,0.22,0.22s-0.098,0.22-0.22,0.22c-0.43,0-0.779,0.35-0.779,0.779c0,0.429,0.349,0.779,0.779,0.779
										s0.779-0.35,0.779-0.779c0-0.122,0.098-0.22,0.22-0.22c0.122,0,0.22,0.098,0.22,0.22
										C152.441,60.328,151.894,60.875,151.222,60.875z"/>
								</g>
								<g>
									<path fill="#C0C7D0" d="M151.222,59.316c-0.035,0-0.071-0.009-0.103-0.026c-0.072-0.038-0.117-0.113-0.117-0.194v-0.718
										c0-0.081,0.045-0.156,0.117-0.194c0.071-0.038,0.158-0.034,0.226,0.012l0.532,0.359c0.061,0.041,0.097,0.109,0.097,0.182
										s-0.037,0.141-0.097,0.182l-0.532,0.359C151.308,59.303,151.265,59.316,151.222,59.316z"/>
								</g>
							</g>
						</g>
						<g>
							<path fill="#2C4359" d="M158.997,61.293c-0.046,0-0.091-0.014-0.129-0.042l-0.792-0.575l-0.791,0.575
								c-0.077,0.056-0.181,0.056-0.259,0c-0.077-0.056-0.109-0.155-0.08-0.246l0.302-0.93l-0.791-0.575
								c-0.077-0.056-0.109-0.155-0.08-0.246c0.03-0.09,0.114-0.152,0.209-0.152h0.978l0.302-0.93c0.059-0.181,0.359-0.181,0.419,0
								l0.303,0.93h0.978c0.095,0,0.18,0.061,0.209,0.152c0.029,0.091-0.003,0.19-0.08,0.246l-0.791,0.575l0.303,0.93
								c0.029,0.091-0.003,0.19-0.08,0.246C159.088,61.279,159.043,61.293,158.997,61.293z M158.076,60.184
								c0.046,0,0.091,0.014,0.129,0.042l0.373,0.271l-0.143-0.438c-0.029-0.091,0.003-0.19,0.08-0.246l0.373-0.271h-0.461
								c-0.095,0-0.18-0.061-0.209-0.152l-0.143-0.438l-0.142,0.438c-0.03,0.091-0.114,0.152-0.209,0.152h-0.461l0.373,0.271
								c0.077,0.056,0.109,0.155,0.08,0.246l-0.143,0.438l0.373-0.271C157.985,60.198,158.03,60.184,158.076,60.184z"/>
						</g>
						<g>
							<g>
								<path fill="#2C4359" d="M165.691,58.689h-3.718c-0.122,0-0.22-0.098-0.22-0.22s0.098-0.22,0.22-0.22h3.718
									c0.122,0,0.22,0.098,0.22,0.22S165.812,58.689,165.691,58.689z"/>
							</g>
							<g>
								<path fill="#2C4359" d="M165.691,59.876h-3.718c-0.122,0-0.22-0.098-0.22-0.22s0.098-0.22,0.22-0.22h3.718
									c0.122,0,0.22,0.098,0.22,0.22S165.812,59.876,165.691,59.876z"/>
							</g>
							<g>
								<path fill="#2C4359" d="M165.691,61.063h-3.718c-0.122,0-0.22-0.098-0.22-0.22s0.098-0.22,0.22-0.22h3.718
									c0.122,0,0.22,0.098,0.22,0.22S165.812,61.063,165.691,61.063z"/>
							</g>
						</g>
					</g>
					<g>
						<polygon fill="#2C4359" points="168.289,138.488 34.164,138.488 34.164,138.158 167.959,138.158 167.959,52.451 
							168.289,52.451 						"/>
					</g>
					<g>
						<g>
							<rect x="34.164" y="52.451" fill="#2C4359" width="133.96" height="3.44"/>
						</g>
						<g>
							<g>
								<circle fill="#F4E45C" cx="36.848" cy="54.171" r="0.806"/>
							</g>
							<g>
								<circle fill="#517FE6" cx="39.06" cy="54.171" r="0.806"/>
							</g>
							<g>
								<path fill="#C349B9" d="M42.078,54.171c0,0.445-0.361,0.806-0.806,0.806c-0.445,0-0.806-0.361-0.806-0.806
									c0-0.445,0.361-0.806,0.806-0.806C41.717,53.365,42.078,53.726,42.078,54.171z"/>
							</g>
						</g>
					</g>
				</g>
				<g>
					<g>
						<rect x="111.497" y="128.008" fill="#4C25D3" width="46.31" height="5.235"/>
					</g>
					<g>
						<g>
							<g>
								<circle fill="#4C25D3" cx="50.462" cy="73.167" r="6.104"/>
							</g>
							<g>
								<g>
									<rect x="59.605" y="70.605" fill="#B8A8ED" width="23.865" height="2.071"/>
								</g>
								<g>
									<rect x="59.605" y="73.658" fill="#B8A8ED" width="17.543" height="2.071"/>
								</g>
							</g>
						</g>
						<g>
							<g>
								<rect x="116.084" y="70.605" fill="#C0C7D0" width="11.932" height="2.071"/>
							</g>
							<g>
								<rect x="130.98" y="70.605" fill="#C0C7D0" width="11.932" height="2.071"/>
							</g>
						</g>
						<g>
							<rect x="44.593" y="81.345" fill="#2C4359" width="113.102" height="0.44"/>
						</g>
					</g>
					<g>
						<g>
							<rect x="44.593" y="107.81" fill="#B8A8ED" width="38.876" height="3.127"/>
						</g>
						<g>
							<g>
								<rect x="44.593" y="113.936" fill="#C0C7D0" width="54.1" height="1.385"/>
							</g>
							<g>
								<rect x="44.593" y="116.616" fill="#C0C7D0" width="49.375" height="1.385"/>
							</g>
							<g>
								<rect x="44.593" y="119.297" fill="#C0C7D0" width="45.38" height="1.385"/>
							</g>
							<g>
								<rect x="44.593" y="121.977" fill="#C0C7D0" width="54.1" height="1.385"/>
							</g>
						</g>
					</g>
					<g>
						<g>
							<g opacity="0.2">
								<g>
									<path d="M61.148,133.683H47.651c-1.446,0-2.618-1.172-2.618-2.618v0c0-1.446,1.172-2.618,2.618-2.618h13.498
										c1.446,0,2.618,1.172,2.618,2.618v0C63.766,132.511,62.594,133.683,61.148,133.683z"/>
								</g>
							</g>
							<g>
								<g>
									<path fill="#F4E45C" d="M60.708,133.243H47.211c-1.446,0-2.618-1.172-2.618-2.618v0c0-1.446,1.172-2.618,2.618-2.618
										h13.498c1.446,0,2.618,1.172,2.618,2.618v0C63.326,132.071,62.154,133.243,60.708,133.243z"/>
								</g>
							</g>
						</g>
						<g>
							<g opacity="0.2">
								<g>
									<path d="M82.721,133.683H69.224c-1.446,0-2.618-1.172-2.618-2.618v0c0-1.446,1.172-2.618,2.618-2.618h13.498
										c1.446,0,2.618,1.172,2.618,2.618v0C85.339,132.511,84.167,133.683,82.721,133.683z"/>
								</g>
							</g>
							<g>
								<g>
									<path fill="#2C4359" d="M82.281,133.243H68.784c-1.446,0-2.618-1.172-2.618-2.618v0c0-1.446,1.172-2.618,2.618-2.618
										h13.498c1.446,0,2.618,1.172,2.618,2.618v0C84.899,132.071,83.727,133.243,82.281,133.243z"/>
								</g>
							</g>
						</g>
					</g>
					<g>
						<g>
							<g>
								<rect x="44.593" y="86.755" fill="#4C25D3" width="7.899" height="7.899"/>
							</g>
							<g>
								
									<rect x="48.433" y="85.119" transform="matrix(0.7071 -0.7071 0.7071 0.7071 -49.9201 60.8928)" fill="#F2F2F2" width="0.22" height="11.171"/>
							</g>
							<g>
								
									<rect x="42.957" y="90.594" transform="matrix(0.7071 -0.7071 0.7071 0.7071 -49.9197 60.8914)" fill="#F2F2F2" width="11.171" height="0.22"/>
							</g>
						</g>
						<g>
							<g>
								<rect x="55.655" y="86.755" fill="#4C25D3" width="7.899" height="7.899"/>
							</g>
							<g>
								
									<rect x="59.494" y="85.119" transform="matrix(0.7071 -0.7071 0.7071 0.7071 -46.68 68.7148)" fill="#F2F2F2" width="0.22" height="11.171"/>
							</g>
							<g>
								
									<rect x="54.019" y="90.594" transform="matrix(0.7071 -0.7071 0.7071 0.7071 -46.6797 68.7133)" fill="#F2F2F2" width="11.171" height="0.22"/>
							</g>
						</g>
						<g>
							<g>
								<rect x="66.717" y="86.755" fill="#4C25D3" width="7.899" height="7.899"/>
							</g>
							<g>
								
									<rect x="70.557" y="85.119" transform="matrix(0.7071 -0.7071 0.7071 0.7071 -43.4398 76.5371)" fill="#F2F2F2" width="0.22" height="11.171"/>
							</g>
							<g>
								
									<rect x="65.081" y="90.594" transform="matrix(0.7071 -0.7071 0.7071 0.7071 -43.4397 76.5356)" fill="#F2F2F2" width="11.171" height="0.22"/>
							</g>
						</g>
					</g>
				</g>
				<g>
					<g opacity="0.2">
						<g>
							
								<rect x="63.753" y="80.369" transform="matrix(0.0159 -0.9999 0.9999 0.0159 -34.7262 166.5319)" width="6.972" height="41.078"/>
						</g>
					</g>
					<g>
						<g>
							
								<rect x="62.873" y="79.929" transform="matrix(0.0159 -0.9999 0.9999 0.0159 -35.1522 165.219)" fill="#4C25D3" width="6.972" height="41.078"/>
						</g>
					</g>
				</g>
				<g>
					<g>
						<g>
							<g>
								<path fill="#C0C7D0" d="M130.823,39.838c-0.122,0-0.22-0.098-0.22-0.22V5.252c0-0.122,0.098-0.22,0.22-0.22
									c0.122,0,0.22,0.098,0.22,0.22v34.367C131.043,39.74,130.945,39.838,130.823,39.838z"/>
							</g>
							<g>
								<path fill="#C0C7D0" d="M132.895,47.245c-0.317,0.011-0.565,0.276-0.555,0.593c0.024,0.72-0.548,1.404-1.265,1.519
									c-0.178,0.025-0.362,0.038-0.552-0.001c-0.18-0.025-0.342-0.088-0.501-0.18c-0.315-0.179-0.57-0.488-0.684-0.824
									c-0.12-0.342-0.148-0.767,0.013-1.09c0.815-1.639,2.44-2.683,2.44-4.324c1.179-0.404,2.03-1.521,2.03-2.835
									c0-1.654-1.345-2.999-2.999-2.999c-1.654,0-2.999,1.345-2.999,2.999c0,1.27,0.795,2.356,1.913,2.792
									c-0.104,1.15-1.445,2.182-2.009,3.73c-0.269,0.739-0.209,1.547,0.07,2.245c0.281,0.702,0.811,1.27,1.45,1.599
									c0.641,0.34,1.384,0.406,2.051,0.258c0.671-0.155,1.269-0.547,1.655-1.08c0.398-0.526,0.575-1.184,0.536-1.809l-0.004-0.056
									C133.468,47.474,133.206,47.235,132.895,47.245z M130.823,38.864c0.683,0,1.239,0.556,1.239,1.239
									c0,0.419-0.21,0.788-0.529,1.012c-0.211-0.196-0.5-0.308-0.81-0.28c-0.239,0.022-0.45,0.126-0.614,0.277
									c-0.317-0.225-0.526-0.593-0.526-1.01C129.584,39.42,130.14,38.864,130.823,38.864z"/>
							</g>
						</g>
						<g>
							<g>
								<g opacity="0.2">
									<g>
										
											<rect x="96.737" y="81.376" transform="matrix(0.9907 -0.1362 0.1362 0.9907 -12.9023 19.3617)" width="76.702" height="45.249"/>
									</g>
									<g>
										<polygon points="153.266,94.656 133.929,120.155 117.208,107.476 99.977,130.198 100.175,131.636 176.163,121.193 
											174.756,110.953 										"/>
									</g>
									<g>
										<path d="M168.498,78.348l5.682,41.34l-72.501,9.964l-5.682-41.34L168.498,78.348 M170.002,76.365L94.014,86.809
											l6.161,44.827l75.988-10.443L170.002,76.365L170.002,76.365z"/>
									</g>
									<g>
										
											<ellipse transform="matrix(0.6267 -0.7793 0.7793 0.6267 -25.7071 137.3868)" cx="130.544" cy="95.525" rx="6.383" ry="6.384"/>
									</g>
								</g>
								<g>
									<g>
										<g>
											<path fill="#4C25D3" d="M165.602,68.885L89.614,79.329l6.161,44.827l75.988-10.443L165.602,68.885L165.602,68.885z"/>
										</g>
									</g>
								</g>
							</g>
							<g>
								<path fill="#C0C7D0" d="M91.118,90.495c-0.023,0-0.046-0.003-0.068-0.011c-0.113-0.037-0.177-0.157-0.143-0.271
									l3.438-11.625c0.035-0.117,0.159-0.183,0.273-0.149c0.116,0.034,0.183,0.157,0.149,0.273l-1.253,4.236l1.608-4.479
									c0.041-0.114,0.168-0.174,0.281-0.133c0.114,0.041,0.174,0.167,0.133,0.281l-4.211,11.732
									C91.293,90.439,91.209,90.495,91.118,90.495z"/>
							</g>
							<g>
								<path fill="#C0C7D0" d="M167.203,80.751c-0.061,0-0.121-0.025-0.164-0.073l-9.758-10.908
									c-0.081-0.091-0.073-0.23,0.018-0.311c0.089-0.081,0.228-0.074,0.311,0.017l1.599,1.788l-1.16-1.394
									c-0.077-0.093-0.065-0.232,0.029-0.31c0.093-0.077,0.232-0.065,0.31,0.028l8.985,10.802
									c0.076,0.092,0.065,0.229-0.026,0.307C167.305,80.733,167.254,80.751,167.203,80.751z"/>
							</g>
							<g>
								<path fill="#C0C7D0" d="M95.33,78.763c-0.063,0-0.125-0.027-0.169-0.079c-0.078-0.093-0.065-0.232,0.027-0.31l34.196-28.629
									c0.345-0.441,0.851-0.694,1.423-0.677c0.558,0.01,1.064,0.272,1.393,0.72l25.379,19.66c0.096,0.075,0.113,0.213,0.039,0.309
									c-0.074,0.096-0.212,0.113-0.309,0.039l-25.404-19.679c-0.017-0.014-0.032-0.029-0.045-0.047
									c-0.247-0.349-0.634-0.554-1.062-0.562c-0.428,0.001-0.821,0.183-1.081,0.523c-0.01,0.013-0.021,0.025-0.034,0.035
									L95.471,78.712C95.43,78.746,95.38,78.763,95.33,78.763z"/>
							</g>
						</g>
					</g>
					<g>
						<g>
							<path fill="#C0C7D0" d="M127.074,9.221c-2.189,0-3.969-1.781-3.969-3.969s1.781-3.969,3.969-3.969s3.969,1.781,3.969,3.969
								S129.263,9.221,127.074,9.221z M127.074,1.723c-1.946,0-3.529,1.583-3.529,3.529s1.583,3.529,3.529,3.529
								c1.946,0,3.529-1.583,3.529-3.529S129.02,1.723,127.074,1.723z"/>
						</g>
						<g>
							<path fill="#C0C7D0" d="M127.074,6.856c-0.884,0-1.604-0.72-1.604-1.604s0.72-1.604,1.604-1.604
								c0.884,0,1.604,0.72,1.604,1.604S127.958,6.856,127.074,6.856z M127.074,4.088c-0.642,0-1.164,0.522-1.164,1.164
								s0.522,1.164,1.164,1.164s1.164-0.522,1.164-1.164S127.716,4.088,127.074,4.088z"/>
						</g>
					</g>
					<g>
						<g>
							<g>
								<path fill="#2C4359" d="M155.344,121.86c-1.437,6.538-0.882,14.941,2.297,19.849c2.508,3.872,6.972,5.068,10.949,8.13
									l-0.185,1.915l1.753-2.091c0,0-2.205-2.192-8.612-8.807c-1.567-1.619-0.447-8.019-0.039-9.618
									c1.992-2.657-0.007-5.433-1.325-9.377H155.344z"/>
							</g>
							<g>
								<path fill="#517FE6" d="M168.59,149.839l-0.185,1.915l1.753-2.091l-0.741-0.745
									C169.416,148.918,169.51,149.714,168.59,149.839z"/>
							</g>
						</g>
						<g>
							<g>
								<path fill="#415669" d="M153.507,121.86c-4.201,8.288-4.027,13.601,2.052,32.951l-1.941,1.203h2.961
									c0,0-0.126-20.453,1.063-25.115c1.992-2.657,2.021-5.095,0.703-9.039H153.507z"/>
							</g>
							<g>
								<path fill="#517FE6" d="M153.617,156.014h2.961v-1.203c0,0-0.637,0.374-1.019,0L153.617,156.014z"/>
							</g>
						</g>
						<g>
							<path fill="#F2F2F2" d="M158.059,102.769c-0.738,2.26-2.82,3.363-3.904,3.159c-1.085-0.204-1.648-2.052-1.258-4.128
								c0.39-2.076,1.575-3.255,2.67-3.391C157.135,98.214,159.084,99.63,158.059,102.769z"/>
						</g>
						<g>
							<rect x="155.558" y="103.393" fill="#F2F2F2" width="2.039" height="5.117"/>
						</g>
						<g>
							<path fill="#517FE6" d="M155.96,107.301c-2.676,0.487-4.475,4.877-4.74,6.449c-0.157,0.932-0.054,1.838,0.98,3.651
								c1.44,2.524,1.306,4.459,1.306,4.459h6.705c0-2.006,1.289-4.255,2.05-7.381C163.022,111.352,160.499,106.475,155.96,107.301z
								"/>
						</g>
						<g>
							<g>
								<path fill="#628CE9" d="M158.253,107.404c-0.009-0.001,3.889,0.469,5.491-0.103c3.775-1.346,5.412-4.59,5.541-7.934h1.021
									c0,0,1.368,9.874-7.974,13.399L158.253,107.404z"/>
							</g>
							<g>
								<path fill="#F2F2F2" d="M169.286,99.368c-0.681-0.751-0.251-1.37-0.52-1.961c-0.269-0.592,0.06-1.268,0.801,0.347
									l-0.308-2.262c0,0,0.884,0.443,1.048,3.877H169.286z"/>
							</g>
						</g>
						<g>
							<g>
								<path fill="#628CE9" d="M155.789,107.824c2.003,0.393,1.758,4.019-0.532,6.118c-2.161,1.981-8.259,3.715-16.466,4.776
									l-0.266-0.9c0,0,4.589-0.841,8.585-3.269C151.105,112.122,152.899,107.257,155.789,107.824z"/>
							</g>
							<g>
								<path fill="#F2F2F2" d="M138.524,117.818c-0.88-0.416-1.346,0.116-1.969,0.024c-0.623-0.092-0.931,0.332,0.772,0.588
									l-2.341,0.338c0,0,0.552,0.65,3.805-0.05L138.524,117.818z"/>
							</g>
						</g>
						<g>
							<path fill="#F4E45C" d="M153.206,98.681c-1.03,1.804,2.352,1.361,2.352,3.13c0,1.769-3.707,2.097-4.397,4.404
								c-0.788,2.635,4.589,1.933,3.779,4.668c-1.189,4.018-9.058,4.355-6.062,8.613c2.182,3.101,7.503,1.336,6.902,6.401
								c-0.583,4.917,8.395,3.926,9.167-0.106c0.514-2.682-4.492-4.311-1.689-6.335c3.43-2.477,7.769-5.797,4.057-8.607
								c-1.876-1.42-6.952-2.301-7.467-4.582c-0.515-2.281,2.483-5.785-1.082-8.117C155.114,95.759,153.206,98.681,153.206,98.681z"
								/>
						</g>
					</g>
					<g>
						<g>
							<g>
								<path fill="#2C4359" d="M63.186,45.313c0,0,1.753,7.132,5.479,7.132c8.538,0,10.978-3.268,14.395-3.043
									c1.812,0.12,6.354,3.043,6.354,3.043h2.563l-1.8-1.12c0,0-4.915-6.438-8.207-6.836c-4.171-0.505-9.695,3.633-12.657,0.825
									H63.186z"/>
							</g>
							<g>
								<path fill="#517FE6" d="M89.414,52.445l-0.572-0.357c0,0,1.003,0.059,1.335-0.763l1.8,1.12H89.414z"/>
							</g>
						</g>
						<g>
							<path fill="#C0C7D0" d="M79.796,51.544c-0.122,0-0.22-0.098-0.22-0.22V32.386l5.768-5.496l39.678-25.032
								c0.102-0.064,0.238-0.035,0.303,0.069c0.065,0.103,0.034,0.238-0.069,0.303L85.612,27.236l-5.597,5.339v18.75
								C80.016,51.446,79.917,51.544,79.796,51.544z"/>
						</g>
						<g>
							<g>
								<path fill="#C0C7D0" d="M78.79,33.228c0.354-0.599,1.17-1.775,1.578-0.995c0.258,0.493,0.154,1.363-0.081,1.45
									c-0.235,0.087-0.845,0.141-0.845,0.141L78.79,33.228z"/>
							</g>
							<g>
								<path fill="#517FE6" d="M62.111,32.053c3.248-1.832,8.508,4.032,10.101,4.335c2.577,0.489,6.252-2.896,6.578-3.161
									l0.652,0.595c0,0-4.023,5.773-7.829,5.881C67.809,39.813,57.967,34.391,62.111,32.053z"/>
							</g>
							<g>
								<path fill="#F2F2F2" d="M78.79,33.228c0.13-0.606,0.349-0.84,0.773-1.067c0.617-0.331,0.487-0.653,0.693-0.653
									c0.207,0,0.424,0.598-0.098,0.81c0,0,0.022,1.066-0.9,1.337L78.79,33.228z"/>
							</g>
							<g>
								<path fill="#F2F2F2" d="M80.369,32.232c0.026,0.226-0.221,0.191-0.463,0.181c-0.325-0.014-0.657-0.062-0.601,0.363
									c0.087,0.668-0.013,1.046,0.309,1.062c0.322,0.016,0.544,0.088,0.755-0.023C80.579,33.705,80.691,32.74,80.369,32.232z"/>
							</g>
						</g>
						<g>
							<g>
								<g>
									<path fill="#415669" d="M69.627,43.471c4.194,8.275,7.436,16.76,15.204,24.103l2.19-0.636l-1.978,2.197
										c0,0-16.245-9.505-20.653-15.332c-1.989-2.653-2.487-4.557-1.171-8.495L69.627,43.471z"/>
								</g>
							</g>
							<g>
								<path fill="#517FE6" d="M85.042,69.135l1.978-2.197l-2.19,0.636c0,0,0.112,0.745-0.685,1.027L85.042,69.135z"/>
							</g>
						</g>
						<g>
							<path fill="#F2F2F2" d="M60.343,27.989c1.21,1.805,3.314,2.258,4.217,1.81c0.903-0.448,0.94-2.213,0.082-3.943
								c-0.858-1.729-2.192-2.472-3.189-2.32C60.025,23.755,58.663,25.484,60.343,27.989z"/>
						</g>
						<g>
							<polygon fill="#F2F2F2" points="61.096,33.228 63.966,32.418 62.696,27.918 59.588,26.125 							"/>
						</g>
						<g>
							<path fill="#628CE9" d="M63.274,31.455c-3.04,0.384-5.657,1.248-4.366,11.453c1.211,9.57,4.366,9.537,4.366,9.537
								s9.578,0.676,11.515-6.551c0,0-4.119-2.864-5.394-8.048C68.12,32.662,65.623,31.158,63.274,31.455z"/>
						</g>
						<g>
							<g>
								<path fill="#628CE9" d="M63.274,31.455l21.054-4.417l0.497,1.142c0,0-14.498,9.405-19.563,9.731
									C60.198,38.237,59.61,32.556,63.274,31.455z"/>
							</g>
							<g>
								<path fill="#F2F2F2" d="M84.328,27.038c0,0,0.876-1.194,1.38-1.113c0.504,0.081,1.169,1.23,0.887,1.673
									c-0.282,0.443-1.77,0.582-1.77,0.582L84.328,27.038z"/>
							</g>
						</g>
						<g>
							<path fill="#2C4359" d="M60.615,30.963c0,0,1.565-0.573,1.492-2.382c0,0-0.739,0.386-0.953-1.219
								c-0.098-0.734,0.623-0.881,0.956-0.073c0.464,0.171,1.09-0.146,0.994-0.997c-0.155-1.377,1.563-1.146,1.625-2.775
								c0.08-2.111-4.13-4.886-4.93-2.961c-0.653,1.573-0.461,2.518-2.455,2.538C53.673,23.13,57.43,31.7,60.615,30.963z"/>
						</g>
					</g>
				</g>
			</g>
			<g>
				<circle fill="#FFFFFF" cx="102.743" cy="44.813" r="1.284"/>
				<path fill="#C0C7D0" d="M102.743,46.318c-0.829,0-1.504-0.675-1.504-1.504s0.675-1.504,1.504-1.504
					c0.829,0,1.504,0.675,1.504,1.504S103.572,46.318,102.743,46.318z M102.743,43.749c-0.587,0-1.064,0.477-1.064,1.064
					s0.477,1.064,1.064,1.064s1.064-0.477,1.064-1.064S103.33,43.749,102.743,43.749z"/>
			</g>
			<g>
				<circle fill="#FFFFFF" cx="98.097" cy="36.401" r="2.52"/>
				<path fill="#C0C7D0" d="M98.097,39.142c-1.511,0-2.74-1.229-2.74-2.74s1.229-2.74,2.74-2.74c1.511,0,2.741,1.229,2.741,2.74
					S99.609,39.142,98.097,39.142z M98.097,34.101c-1.268,0-2.3,1.032-2.3,2.3s1.032,2.3,2.3,2.3c1.268,0,2.301-1.032,2.301-2.3
					S99.366,34.101,98.097,34.101z"/>
			</g>
			<g>
				<circle fill="#FFFFFF" cx="110.775" cy="38.604" r="1.443"/>
				<path fill="#C0C7D0" d="M110.775,40.267c-0.917,0-1.662-0.746-1.662-1.663c0-0.917,0.746-1.663,1.662-1.663
					c0.917,0,1.663,0.746,1.663,1.663C112.438,39.521,111.692,40.267,110.775,40.267z M110.775,37.382
					c-0.674,0-1.222,0.548-1.222,1.223c0,0.674,0.548,1.223,1.222,1.223s1.223-0.548,1.223-1.223
					C111.998,37.93,111.449,37.382,110.775,37.382z"/>
			</g>
			<g>
				<circle fill="#FFFFFF" cx="17.202" cy="30.091" r="2.032"/>
				<path fill="#C0C7D0" d="M17.202,32.343c-1.242,0-2.252-1.01-2.252-2.252s1.01-2.252,2.252-2.252s2.252,1.01,2.252,2.252
					S18.444,32.343,17.202,32.343z M17.202,28.278c-0.999,0-1.812,0.813-1.812,1.812s0.813,1.812,1.812,1.812
					c0.999,0,1.812-0.813,1.812-1.812S18.201,28.278,17.202,28.278z"/>
			</g>
			<g>
				<circle fill="#FFFFFF" cx="22.219" cy="23.755" r="1.746"/>
				<path fill="#C0C7D0" d="M22.219,25.721c-1.084,0-1.966-0.882-1.966-1.966c0-1.084,0.882-1.966,1.966-1.966
					c1.084,0,1.966,0.882,1.966,1.966C24.185,24.839,23.303,25.721,22.219,25.721z M22.219,22.229c-0.841,0-1.526,0.684-1.526,1.526
					c0,0.842,0.684,1.526,1.526,1.526c0.841,0,1.526-0.684,1.526-1.526C23.745,22.914,23.061,22.229,22.219,22.229z"/>
			</g>
			<g>
				<circle fill="#FFFFFF" cx="181.173" cy="64.967" r="1.546"/>
				<path fill="#C0C7D0" d="M181.173,66.733c-0.974,0-1.766-0.792-1.766-1.766s0.792-1.766,1.766-1.766
					c0.974,0,1.766,0.792,1.766,1.766S182.146,66.733,181.173,66.733z M181.173,63.641c-0.731,0-1.326,0.595-1.326,1.326
					c0,0.731,0.595,1.326,1.326,1.326c0.731,0,1.326-0.595,1.326-1.326C182.498,64.236,181.903,63.641,181.173,63.641z"/>
			</g>
			<g>
				
					<ellipse transform="matrix(0.7071 -0.7071 0.7071 0.7071 11.6287 154.375)" fill="#FFFFFF" cx="192.161" cy="63.15" rx="3.362" ry="3.362"/>
				<path fill="#C0C7D0" d="M192.161,66.733c-1.975,0-3.582-1.607-3.582-3.583c0-1.975,1.607-3.582,3.582-3.582
					c1.976,0,3.583,1.607,3.583,3.582C195.744,65.126,194.137,66.733,192.161,66.733z M192.161,60.008
					c-1.732,0-3.142,1.41-3.142,3.142s1.41,3.143,3.142,3.143c1.733,0,3.143-1.41,3.143-3.143S193.894,60.008,192.161,60.008z"/>
			</g>
		</g>
	</g>
	<g>
		<g>
			
				<rect x="120.019" y="90.846" transform="matrix(0.9823 -0.1873 0.1873 0.9823 -14.9995 24.2072)" fill="#FFFFFF" width="1.113" height="1.233"/>
			
				<rect x="120.59" y="89.482" transform="matrix(0.9823 -0.1873 0.1873 0.9823 -14.7338 24.2899)" fill="#FFFFFF" width="1.113" height="1.233"/>
			
				<rect x="122.106" y="86.682" transform="matrix(0.9823 -0.1873 0.1873 0.9823 -14.1824 24.5243)" fill="#FFFFFF" width="1.113" height="1.233"/>
			
				<rect x="122.693" y="85.384" transform="matrix(0.9823 -0.1873 0.1873 0.9823 -13.9289 24.6114)" fill="#FFFFFF" width="1.113" height="1.233"/>
			
				<rect x="123.605" y="90.163" transform="matrix(-0.9823 0.1873 -0.1873 -0.9823 263.1304 156.6916)" fill="#FFFFFF" width="1.113" height="1.233"/>
			
				<rect x="122.572" y="89.104" transform="matrix(-0.9823 0.1873 -0.1873 -0.9823 260.8855 154.7867)" fill="#FFFFFF" width="1.113" height="1.233"/>
			
				<rect x="121.345" y="88.083" transform="matrix(-0.9823 0.1873 -0.1873 -0.9823 258.261 152.992)" fill="#FFFFFF" width="1.113" height="1.233"/>
			
				<rect x="120.132" y="87.058" transform="matrix(-0.9823 0.1873 -0.1873 -0.9823 255.6658 151.1889)" fill="#FFFFFF" width="1.113" height="1.233"/>
			
				<rect x="119.108" y="86.068" transform="matrix(-0.9823 0.1873 -0.1873 -0.9823 253.4501 149.4172)" fill="#FFFFFF" width="1.113" height="1.233"/>
		</g>
		<g>
			
				<rect x="130.676" y="88.814" transform="matrix(0.9823 -0.1873 0.1873 0.9823 -14.4301 26.1676)" fill="#FFFFFF" width="1.113" height="1.233"/>
			
				<rect x="131.247" y="87.45" transform="matrix(0.9823 -0.1873 0.1873 0.9823 -14.1644 26.2503)" fill="#FFFFFF" width="1.113" height="1.233"/>
			
				<rect x="132.762" y="84.65" transform="matrix(0.9823 -0.1873 0.1873 0.9823 -13.613 26.4847)" fill="#FFFFFF" width="1.113" height="1.233"/>
			
				<rect x="133.35" y="83.352" transform="matrix(0.9823 -0.1873 0.1873 0.9823 -13.3595 26.5718)" fill="#FFFFFF" width="1.113" height="1.233"/>
			
				<rect x="134.261" y="88.13" transform="matrix(-0.9823 0.1873 -0.1873 -0.9823 283.8746 150.6665)" fill="#FFFFFF" width="1.113" height="1.233"/>
			
				<rect x="133.229" y="87.072" transform="matrix(-0.9823 0.1873 -0.1873 -0.9823 281.6297 148.7616)" fill="#FFFFFF" width="1.113" height="1.233"/>
			
				<rect x="132.002" y="86.05" transform="matrix(-0.9823 0.1873 -0.1873 -0.9823 279.0053 146.9669)" fill="#FFFFFF" width="1.113" height="1.233"/>
			
				<rect x="130.789" y="85.026" transform="matrix(-0.9823 0.1873 -0.1873 -0.9823 276.41 145.1638)" fill="#FFFFFF" width="1.113" height="1.233"/>
			
				<rect x="129.765" y="84.036" transform="matrix(-0.9823 0.1873 -0.1873 -0.9823 274.1944 143.392)" fill="#FFFFFF" width="1.113" height="1.233"/>
		</g>
		<g>
			
				<rect x="122.168" y="103.81" transform="matrix(0.9823 -0.1873 0.1873 0.9823 -17.4938 24.9593)" fill="#FFFFFF" width="2.28" height="2.452"/>
			
				<rect x="121.208" y="106.489" transform="matrix(0.9823 -0.1873 0.1873 0.9823 -18.0127 24.8269)" fill="#FFFFFF" width="2.28" height="2.452"/>
			
				<rect x="122.844" y="101.268" transform="matrix(0.9823 -0.1873 0.1873 0.9823 -17.0056 25.0408)" fill="#FFFFFF" width="2.28" height="2.452"/>
			
				<rect x="124.734" y="99.659" transform="matrix(0.9823 -0.1873 0.1873 0.9823 -16.6708 25.3665)" fill="#FFFFFF" width="2.28" height="2.452"/>
			
				<rect x="126.265" y="99.367" transform="matrix(-0.9823 0.1873 -0.1873 -0.9823 271.3984 175.5386)" fill="#FFFFFF" width="2.28" height="2.452"/>
			
				<rect x="135.862" y="101.198" transform="matrix(-0.9823 0.1873 -0.1873 -0.9823 290.7661 177.3705)" fill="#FFFFFF" width="2.28" height="2.452"/>
			
				<rect x="137.741" y="103.336" transform="matrix(-0.9823 0.1873 -0.1873 -0.9823 294.8906 181.2565)" fill="#FFFFFF" width="2.28" height="2.452"/>
			
				<rect x="134.298" y="99.083" transform="matrix(-0.9823 0.1873 -0.1873 -0.9823 287.2697 173.4708)" fill="#FFFFFF" width="2.28" height="2.452"/>
			
				<rect x="131.948" y="98.283" transform="matrix(-0.9823 0.1873 -0.1873 -0.9823 282.4616 172.3253)" fill="#FFFFFF" width="2.28" height="2.452"/>
			
				<rect x="128.178" y="99.002" transform="matrix(0.9823 -0.1873 0.1873 0.9823 -16.4868 26.0001)" fill="#FFFFFF" width="2.28" height="2.452"/>
			
				<rect x="130.418" y="98.575" transform="matrix(0.9823 -0.1873 0.1873 0.9823 -16.3671 26.412)" fill="#FFFFFF" width="2.28" height="2.452"/>
		</g>
	</g>
</g>
</svg>
