<?xml version="1.0" encoding="utf-8"?>
<!-- Generator: Adobe Illustrator 22.1.0, SVG Export Plug-In . SVG Version: 6.00 Build 0)  -->
<svg version="1.1" id="Capa_1" xmlns="http://www.w3.org/2000/svg" xmlns:xlink="http://www.w3.org/1999/xlink" x="0px" y="0px"
	 width="157.322px" height="144.357px" viewBox="0 0 157.322 144.357" enable-background="new 0 0 157.322 144.357"
	 xml:space="preserve">
<g>
	<g opacity="0.7">
		<g>
			<g>
				<g>
					<g>
						<g>
							<rect x="73.441" y="122.513" fill="#B7D4F6" width="18.547" height="12.755"/>
						</g>
					</g>
					<g>
						<g>
							<polygon fill="#9CC4EB" points="91.988,128.306 73.441,126.471 73.441,122.513 91.988,122.513 							"/>
						</g>
					</g>
					<g>
						<g>
							<path fill="#8095CD" d="M101.537,135.068H63.892c-1.189,0-2.153,0.964-2.153,2.153v2.153h41.95v-2.153
								C103.69,136.032,102.726,135.068,101.537,135.068z"/>
						</g>
					</g>
					<g>
						<g>
							<g>
								<path fill="#8095CD" d="M140.744,44.067H24.685c-1.25,0-2.263,1.013-2.263,2.263v76.643c0,1.25,1.013,2.263,2.263,2.263
									h116.058c1.25,0,2.263-1.013,2.263-2.263V46.329C143.007,45.08,141.993,44.067,140.744,44.067L140.744,44.067z"/>
							</g>
						</g>
					</g>
					<g>
						<g>
							<path fill="#DFE7F3" d="M139.255,116.049H26.174c-1.031,0-1.866-0.836-1.866-1.866V48.196c0-1.031,0.835-1.866,1.866-1.866
								h113.08c1.031,0,1.866,0.835,1.866,1.866v65.988C141.121,115.214,140.285,116.049,139.255,116.049z"/>
						</g>
					</g>
					<g>
						<g>
							<path fill="#9CC4EB" d="M84.954,120.347c0,1.237-1.003,2.24-2.24,2.24c-1.237,0-2.24-1.003-2.24-2.24
								c0-1.237,1.003-2.24,2.24-2.24C83.952,118.107,84.954,119.11,84.954,120.347z"/>
						</g>
					</g>
				</g>
			</g>
			<g>
				<g opacity="0.3">
					<g>
						<g>
							<path fill="#7C99B4" d="M135.894,113.243H59.297c-1.011,0-1.831-0.82-1.831-1.831V52.054c0-1.011,0.82-1.831,1.831-1.831
								h76.597c1.011,0,1.831,0.82,1.831,1.831v59.358C137.725,112.423,136.905,113.243,135.894,113.243z"/>
						</g>
					</g>
					<g>
						<g>
							<path fill="#7C99B4" d="M134.917,70.878H60.273c-0.539,0-0.977-0.437-0.977-0.977V53.069c0-0.539,0.437-0.977,0.977-0.977
								h74.644c0.539,0,0.977,0.437,0.977,0.977v16.833C135.894,70.441,135.457,70.878,134.917,70.878z"/>
						</g>
					</g>
					<g>
						<g>
							<path fill="#7C99B4" d="M64.038,105.831c-0.151,0-0.273-0.122-0.273-0.273V73.45c0-0.151,0.122-0.273,0.273-0.273
								s0.273,0.122,0.273,0.273v32.108C64.31,105.708,64.188,105.831,64.038,105.831z"/>
						</g>
					</g>
					<g>
						<g>
							<path fill="#7C99B4" d="M77.523,105.831c-0.151,0-0.273-0.122-0.273-0.273V73.45c0-0.151,0.122-0.273,0.273-0.273
								s0.273,0.122,0.273,0.273v32.108C77.796,105.708,77.674,105.831,77.523,105.831z"/>
						</g>
					</g>
					<g>
						<g>
							<path fill="#7C99B4" d="M91.008,105.831c-0.151,0-0.273-0.122-0.273-0.273V73.45c0-0.151,0.122-0.273,0.273-0.273
								c0.151,0,0.273,0.122,0.273,0.273v32.108C91.281,105.708,91.159,105.831,91.008,105.831z"/>
						</g>
					</g>
					<g>
						<g>
							<path fill="#7C99B4" d="M104.494,105.831c-0.151,0-0.273-0.122-0.273-0.273V73.45c0-0.151,0.122-0.273,0.273-0.273
								c0.151,0,0.273,0.122,0.273,0.273v32.108C104.766,105.708,104.644,105.831,104.494,105.831z"/>
						</g>
					</g>
					<g>
						<g>
							<path fill="#7C99B4" d="M117.979,105.831c-0.151,0-0.273-0.122-0.273-0.273V73.45c0-0.151,0.122-0.273,0.273-0.273
								c0.151,0,0.273,0.122,0.273,0.273v32.108C118.252,105.708,118.129,105.831,117.979,105.831z"/>
						</g>
					</g>
					<g>
						<g>
							<path fill="#7C99B4" d="M131.464,105.831c-0.151,0-0.273-0.122-0.273-0.273V73.45c0-0.151,0.122-0.273,0.273-0.273
								s0.273,0.122,0.273,0.273v32.108C131.737,105.708,131.614,105.831,131.464,105.831z"/>
						</g>
					</g>
					<g>
						<g>
							<path fill="#7C99B4" d="M77.523,102.356c-7.68,0-13.477-13.212-13.72-13.775c-0.056-0.13,0.003-0.281,0.134-0.337
								c0.13-0.055,0.281,0.004,0.336,0.134c0.059,0.135,5.906,13.466,13.25,13.466c7.099,0,11.987-7.805,16.299-14.69
								c3.628-5.795,6.762-10.799,10.671-10.799c4.313,0,6.184,4.378,7.993,8.612c1.479,3.463,2.876,6.733,5.465,7.364
								c3.047,0.745,5.741-2.185,8.117-4.768c1.863-2.025,3.623-3.938,5.389-3.938c0.002,0,0.005,0,0.008,0
								c0.142,0,0.256,0.116,0.255,0.257c0,0.141-0.115,0.256-0.256,0.256c-0.002,0-0.004,0-0.007,0
								c-1.541,0-3.227,1.832-5.012,3.772c-2.472,2.687-5.271,5.733-8.616,4.919c-2.837-0.692-4.283-4.077-5.814-7.661
								c-1.743-4.081-3.546-8.3-7.521-8.3c-3.625,0-6.837,5.129-10.237,10.559C89.873,94.423,84.906,102.356,77.523,102.356z"/>
						</g>
					</g>
					<g>
						<g>
							<path fill="#7C99B4" d="M134.651,108.521H61.679c-0.151,0-0.273-0.122-0.273-0.273c0-0.151,0.122-0.273,0.273-0.273h72.972
								c0.151,0,0.273,0.122,0.273,0.273C134.923,108.398,134.801,108.521,134.651,108.521z"/>
						</g>
					</g>
					<g>
						<g>
							<path fill="#7C99B4" d="M65.897,111.023h-3.718c-0.307,0-0.555-0.248-0.555-0.555l0,0c0-0.307,0.248-0.555,0.555-0.555h3.718
								c0.307,0,0.555,0.248,0.555,0.555l0,0C66.452,110.775,66.203,111.023,65.897,111.023z"/>
						</g>
					</g>
					<g>
						<g>
							<path fill="#7C99B4" d="M79.382,111.023h-3.718c-0.307,0-0.555-0.248-0.555-0.555l0,0c0-0.307,0.248-0.555,0.555-0.555h3.718
								c0.307,0,0.555,0.248,0.555,0.555l0,0C79.937,110.775,79.689,111.023,79.382,111.023z"/>
						</g>
					</g>
					<g>
						<g>
							<path fill="#7C99B4" d="M92.867,111.023h-3.718c-0.307,0-0.555-0.248-0.555-0.555l0,0c0-0.307,0.249-0.555,0.555-0.555h3.718
								c0.307,0,0.555,0.248,0.555,0.555l0,0C93.422,110.775,93.174,111.023,92.867,111.023z"/>
						</g>
					</g>
					<g>
						<g>
							<path fill="#7C99B4" d="M106.353,111.023h-3.718c-0.307,0-0.555-0.248-0.555-0.555l0,0c0-0.307,0.249-0.555,0.555-0.555
								h3.718c0.307,0,0.555,0.248,0.555,0.555l0,0C106.908,110.775,106.659,111.023,106.353,111.023z"/>
						</g>
					</g>
					<g>
						<g>
							<path fill="#7C99B4" d="M119.838,111.023h-3.718c-0.307,0-0.555-0.248-0.555-0.555l0,0c0-0.307,0.249-0.555,0.555-0.555
								h3.718c0.307,0,0.555,0.248,0.555,0.555l0,0C120.393,110.775,120.144,111.023,119.838,111.023z"/>
						</g>
					</g>
					<g>
						<g>
							<path fill="#7C99B4" d="M133.323,111.023h-3.718c-0.307,0-0.555-0.248-0.555-0.555l0,0c0-0.307,0.248-0.555,0.555-0.555
								h3.718c0.307,0,0.555,0.248,0.555,0.555l0,0C133.878,110.775,133.63,111.023,133.323,111.023z"/>
						</g>
					</g>
					<g>
						<g>
							<path fill="#7C99B4" d="M105.431,76.61c0,0.518-0.42,0.937-0.937,0.937c-0.518,0-0.937-0.42-0.937-0.937
								c0-0.518,0.42-0.937,0.937-0.937C105.011,75.673,105.431,76.092,105.431,76.61z"/>
						</g>
					</g>
					<g>
						<g>
							<circle fill="#7C99B4" cx="64.038" cy="88.4" r="0.635"/>
						</g>
					</g>
					<g>
						<g>
							<path fill="#7C99B4" d="M132.099,83.886c0,0.351-0.284,0.635-0.635,0.635c-0.351,0-0.635-0.284-0.635-0.635
								s0.284-0.635,0.635-0.635C131.815,83.251,132.099,83.535,132.099,83.886z"/>
						</g>
					</g>
				</g>
				<g>
					<g>
						<g>
							<path fill="#FFFFFF" d="M134.869,112.218H58.272c-1.011,0-1.831-0.82-1.831-1.831V51.03c0-1.011,0.82-1.831,1.831-1.831
								h76.597c1.011,0,1.831,0.82,1.831,1.831v59.358C136.7,111.399,135.88,112.218,134.869,112.218z"/>
						</g>
					</g>
					<g>
						<g>
							<path fill="#DFE7F3" d="M133.892,69.853H59.249c-0.539,0-0.977-0.437-0.977-0.977V52.044c0-0.539,0.437-0.977,0.977-0.977
								h74.644c0.539,0,0.977,0.437,0.977,0.977v16.833C134.869,69.416,134.432,69.853,133.892,69.853z"/>
						</g>
					</g>
					<g>
						<g>
							<g>
								<path fill="#D3DCE4" d="M63.013,104.806c-0.151,0-0.273-0.122-0.273-0.273V72.425c0-0.151,0.122-0.273,0.273-0.273
									c0.151,0,0.273,0.122,0.273,0.273v32.108C63.286,104.684,63.163,104.806,63.013,104.806z"/>
							</g>
						</g>
						<g>
							<g>
								<path fill="#D3DCE4" d="M76.498,104.806c-0.151,0-0.273-0.122-0.273-0.273V72.425c0-0.151,0.122-0.273,0.273-0.273
									s0.273,0.122,0.273,0.273v32.108C76.771,104.684,76.649,104.806,76.498,104.806z"/>
							</g>
						</g>
						<g>
							<g>
								<path fill="#D3DCE4" d="M89.984,104.806c-0.151,0-0.273-0.122-0.273-0.273V72.425c0-0.151,0.122-0.273,0.273-0.273
									s0.273,0.122,0.273,0.273v32.108C90.256,104.684,90.134,104.806,89.984,104.806z"/>
							</g>
						</g>
						<g>
							<g>
								<path fill="#D3DCE4" d="M103.469,104.806c-0.151,0-0.273-0.122-0.273-0.273V72.425c0-0.151,0.122-0.273,0.273-0.273
									c0.151,0,0.273,0.122,0.273,0.273v32.108C103.741,104.684,103.619,104.806,103.469,104.806z"/>
							</g>
						</g>
						<g>
							<g>
								<path fill="#D3DCE4" d="M116.954,104.806c-0.151,0-0.273-0.122-0.273-0.273V72.425c0-0.151,0.122-0.273,0.273-0.273
									c0.151,0,0.273,0.122,0.273,0.273v32.108C117.227,104.684,117.105,104.806,116.954,104.806z"/>
							</g>
						</g>
						<g>
							<g>
								<path fill="#D3DCE4" d="M130.439,104.806c-0.151,0-0.273-0.122-0.273-0.273V72.425c0-0.151,0.122-0.273,0.273-0.273
									s0.273,0.122,0.273,0.273v32.108C130.712,104.684,130.59,104.806,130.439,104.806z"/>
							</g>
						</g>
					</g>
					<g>
						<g>
							<g>
								<path fill="#8095CD" d="M76.498,101.331c-7.68,0-13.477-13.212-13.72-13.775c-0.056-0.13,0.003-0.281,0.134-0.337
									c0.129-0.055,0.281,0.004,0.336,0.134c0.059,0.135,5.906,13.466,13.25,13.466c7.099,0,11.987-7.805,16.299-14.69
									c3.628-5.795,6.762-10.799,10.671-10.799c4.313,0,6.184,4.378,7.993,8.612c1.479,3.463,2.876,6.733,5.465,7.364
									c3.044,0.744,5.741-2.184,8.117-4.768c1.863-2.025,3.623-3.938,5.389-3.938c0.126,0.001,0.263,0.113,0.263,0.257
									c0,0.141-0.115,0.256-0.256,0.256c-0.004,0-0.004,0-0.007,0c-1.541,0-3.226,1.832-5.011,3.772
									c-2.472,2.687-5.27,5.733-8.616,4.918c-2.837-0.692-4.283-4.077-5.814-7.661c-1.743-4.081-3.546-8.3-7.521-8.3
									c-3.625,0-6.837,5.129-10.237,10.559C88.849,93.399,83.882,101.331,76.498,101.331z"/>
							</g>
						</g>
					</g>
					<g>
						<g>
							<path fill="#D3DCE4" d="M133.626,107.496H60.654c-0.151,0-0.273-0.122-0.273-0.273c0-0.151,0.122-0.273,0.273-0.273h72.972
								c0.151,0,0.273,0.122,0.273,0.273C133.899,107.374,133.776,107.496,133.626,107.496z"/>
						</g>
					</g>
					<g>
						<g>
							<path fill="#D3DCE4" d="M64.872,109.998h-3.718c-0.307,0-0.555-0.248-0.555-0.555l0,0c0-0.307,0.248-0.555,0.555-0.555h3.718
								c0.307,0,0.555,0.248,0.555,0.555l0,0C65.427,109.75,65.179,109.998,64.872,109.998z"/>
						</g>
					</g>
					<g>
						<g>
							<path fill="#D3DCE4" d="M78.357,109.998h-3.718c-0.307,0-0.555-0.248-0.555-0.555l0,0c0-0.307,0.248-0.555,0.555-0.555h3.718
								c0.307,0,0.555,0.248,0.555,0.555l0,0C78.912,109.75,78.664,109.998,78.357,109.998z"/>
						</g>
					</g>
					<g>
						<g>
							<path fill="#D3DCE4" d="M91.843,109.998h-3.718c-0.307,0-0.555-0.248-0.555-0.555l0,0c0-0.307,0.249-0.555,0.555-0.555h3.718
								c0.307,0,0.555,0.248,0.555,0.555l0,0C92.398,109.75,92.149,109.998,91.843,109.998z"/>
						</g>
					</g>
					<g>
						<g>
							<path fill="#D3DCE4" d="M105.328,109.998h-3.718c-0.307,0-0.555-0.248-0.555-0.555l0,0c0-0.307,0.249-0.555,0.555-0.555
								h3.718c0.307,0,0.555,0.248,0.555,0.555l0,0C105.883,109.75,105.634,109.998,105.328,109.998z"/>
						</g>
					</g>
					<g>
						<g>
							<path fill="#D3DCE4" d="M118.813,109.998h-3.718c-0.307,0-0.555-0.248-0.555-0.555l0,0c0-0.307,0.249-0.555,0.555-0.555
								h3.718c0.307,0,0.555,0.248,0.555,0.555l0,0C119.368,109.75,119.12,109.998,118.813,109.998z"/>
						</g>
					</g>
					<g>
						<g>
							<path fill="#D3DCE4" d="M132.298,109.998h-3.718c-0.307,0-0.555-0.248-0.555-0.555l0,0c0-0.307,0.248-0.555,0.555-0.555
								h3.718c0.307,0,0.555,0.248,0.555,0.555l0,0C132.853,109.75,132.605,109.998,132.298,109.998z"/>
						</g>
					</g>
					<g>
						<g>
							<g>
								<path fill="#8095CD" d="M104.406,75.585c0,0.518-0.42,0.937-0.937,0.937c-0.518,0-0.937-0.42-0.937-0.937
									c0-0.518,0.42-0.937,0.937-0.937C103.986,74.648,104.406,75.067,104.406,75.585z"/>
							</g>
						</g>
					</g>
					<g>
						<g>
							<g>
								<circle fill="#8095CD" cx="63.013" cy="87.376" r="0.635"/>
							</g>
						</g>
					</g>
					<g>
						<g>
							<g>
								<path fill="#8095CD" d="M131.074,82.861c0,0.351-0.284,0.635-0.635,0.635s-0.635-0.284-0.635-0.635
									c0-0.351,0.284-0.635,0.635-0.635S131.074,82.511,131.074,82.861z"/>
							</g>
						</g>
					</g>
				</g>
			</g>
			<g>
				<g>
					<g opacity="0.3">
						<g>
							<g>
								<path fill="#7C99B4" d="M53.534,113.243H29.737c-0.899,0-1.629-0.729-1.629-1.629V51.852c0-0.899,0.729-1.629,1.629-1.629
									h23.797c0.899,0,1.629,0.729,1.629,1.629v59.762C55.162,112.514,54.433,113.243,53.534,113.243z"/>
							</g>
						</g>
					</g>
					<g>
						<g>
							<g>
								<path fill="#FFFFFF" d="M52.509,112.218H28.712c-0.899,0-1.629-0.729-1.629-1.629V50.827c0-0.899,0.729-1.629,1.629-1.629
									h23.797c0.899,0,1.629,0.729,1.629,1.629v59.762C54.138,111.489,53.409,112.218,52.509,112.218z"/>
							</g>
						</g>
					</g>
				</g>
				<g>
					<g>
						<path fill="#DFE7F3" d="M51.183,110.425H30.148c-0.647,0-1.171-0.524-1.171-1.171V52.238c0-0.647,0.524-1.171,1.171-1.171
							h21.034c0.647,0,1.171,0.524,1.171,1.171v57.016C52.354,109.901,51.829,110.425,51.183,110.425z"/>
					</g>
				</g>
			</g>
		</g>
		<g>
			<g>
				<g>
					<g>
						<path fill="#FFFFFF" d="M67.056,62.52L35.67,65.349c-1.211,0.109-2.281-0.784-2.39-1.995L32.618,56
							c-0.109-1.211,0.784-2.281,1.995-2.39l31.385-2.828c1.211-0.109,2.281,0.784,2.39,1.995l0.663,7.353
							C69.159,61.341,68.266,62.411,67.056,62.52z"/>
					</g>
				</g>
				<g>
					<g>
						<path fill="#D3DCE4" d="M34.736,56.921c-0.248,0-0.459-0.189-0.481-0.44c-0.024-0.266,0.172-0.501,0.438-0.525l31.837-2.869
							c0.258-0.026,0.501,0.172,0.525,0.438c0.024,0.266-0.172,0.501-0.438,0.525L34.78,56.919
							C34.765,56.921,34.751,56.921,34.736,56.921z"/>
					</g>
				</g>
				<g>
					<g>
						<path fill="#C95D62" d="M34.736,56.967c-0.271,0-0.502-0.207-0.527-0.482c-0.026-0.291,0.189-0.549,0.48-0.575l15.447-1.392
							c0.305-0.029,0.549,0.189,0.575,0.48c0.026,0.291-0.189,0.549-0.48,0.575l-15.447,1.392
							C34.768,56.966,34.752,56.967,34.736,56.967z"/>
					</g>
				</g>
				<g>
					<g>
						<path fill="#D3DCE4" d="M35.096,60.156c-0.248,0-0.459-0.189-0.481-0.44c-0.024-0.266,0.172-0.501,0.438-0.525l31.837-2.869
							c0.262-0.028,0.501,0.172,0.525,0.438s-0.172,0.501-0.438,0.525L35.14,60.154C35.125,60.155,35.111,60.156,35.096,60.156z"/>
					</g>
				</g>
				<g>
					<g>
						<path fill="#C95D62" d="M35.096,60.202c-0.271,0-0.502-0.207-0.527-0.482c-0.026-0.291,0.189-0.549,0.48-0.575l11.767-1.06
							c0.304-0.027,0.549,0.189,0.575,0.48c0.026,0.291-0.189,0.549-0.48,0.575L35.144,60.2
							C35.128,60.201,35.112,60.202,35.096,60.202z"/>
					</g>
				</g>
				<g>
					<g>
						<path fill="#D3DCE4" d="M35.317,63.3c-0.248,0-0.459-0.189-0.481-0.44c-0.024-0.266,0.172-0.501,0.438-0.525l31.837-2.869
							c0.261-0.028,0.501,0.172,0.525,0.438s-0.172,0.501-0.438,0.525l-31.837,2.869C35.346,63.299,35.331,63.3,35.317,63.3z"/>
					</g>
				</g>
				<g>
					<g>
						<path fill="#C95D62" d="M35.317,63.346c-0.271,0-0.502-0.207-0.527-0.482c-0.026-0.291,0.189-0.549,0.48-0.575l27.866-2.511
							c0.302-0.025,0.549,0.189,0.575,0.48c0.026,0.291-0.189,0.549-0.48,0.575l-27.866,2.511
							C35.348,63.345,35.332,63.346,35.317,63.346z"/>
					</g>
				</g>
			</g>
			<g>
				<g>
					<g>
						<path fill="#E08D8D" d="M58.668,66.054c0,0,0.033-0.504,0.068-1.022c0.033-0.478-0.185-0.792-0.204-0.907
							c-0.053-0.307-0.001-0.836-0.001-0.836l0.673-0.061c0,0,0.287-0.41,0.567-0.941c0.076-0.144,0.125-0.302,0.124-0.464
							c-0.001-0.419,0.016-0.467,0.037-0.714c0.029-0.337,0.302-0.464,0.408-0.06c0.098,0.373,0.088,0.887,0.088,1.083
							c0,0.196-0.355,1.043-0.355,1.043s1.028,0.592,1.058,0.789c0.03,0.196-0.443,0.984-0.806,2.408"/>
					</g>
				</g>
				<g>
					<g>
						<path fill="#E08D8D" d="M60.286,61.179c0,0-0.104-0.472,0.111-0.529c0.177-0.047,0.282,0.325,0.335,0.529
							c0.053,0.204,0.151,0.854,0.189,1.073c0.038,0.219-0.469,1.489-0.469,1.489l-0.582-0.514l0.287-1.481"/>
					</g>
				</g>
				<g>
					<g>
						<path fill="#E08D8D" d="M60.686,61.466c0,0-0.03-0.348,0.136-0.423c0.166-0.076,0.257,0.219,0.31,0.423
							c0.053,0.204,0.151,0.854,0.189,1.073c0.038,0.219-0.469,1.489-0.469,1.489l-0.582-0.514l0.287-1.481"/>
					</g>
				</g>
				<g>
					<g>
						<path fill="#E08D8D" d="M61.323,61.647c-0.03,0.189,0.05,0.489,0.066,0.621c0.019,0.157-0.166,0.49-0.166,0.49l-0.381,1.096
							l0.187,0.473l0.594-1.38l0.101-0.283c0.055-0.164,0.065-0.339,0.025-0.507C61.665,61.796,61.495,61.242,61.323,61.647z"/>
					</g>
				</g>
			</g>
			<g>
				<g>
					<path fill="#E08D8D" d="M40.892,67.716c0,0,0.569-1.426,0.559-1.607c-0.009-0.181-0.363-1.134-0.413-1.32
						c-0.05-0.186,0.028-1.335,0.179-1.547c0.151-0.212,0.302-0.06,0.363,0.151c0.06,0.212,0.106,0.642,0.098,0.778
						c-0.008,0.136,0.326,0.606,0.326,0.606l1.669-0.15l0.59-0.053c0,0-0.106,0.52-0.227,0.837
						c-0.121,0.317-0.363,0.514-0.529,0.673c-0.166,0.159-0.605,1.36-0.748,1.821"/>
				</g>
			</g>
			<g>
				<g>
					<path fill="#E08D8D" d="M47.256,136.855v2.434c0,0,0.877,0.272,1.693,0l0.317-2.434"/>
				</g>
			</g>
			<g>
				<g>
					<path fill="#E08D8D" d="M31.832,135.037l-0.636,2.349c0,0,0.775,0.492,1.634,0.442l0.942-2.266"/>
				</g>
			</g>
			<g>
				<g>
					<path fill="#4D5FE1" d="M40.873,67.387c0,0,1.36,0.128,2.146,0.445c0,0-0.955,5.884-1.902,8.151
						c-0.761,1.823,0.692,6.722,0.692,6.722l-2.761,1.874c0,0-1.29-6.631-1.451-8.283C37.437,74.644,40.873,67.387,40.873,67.387z"
						/>
				</g>
			</g>
			<g>
				<g>
					<path fill="#2B37A1" d="M44.498,101.249c0,2.012-0.363,4.595-0.9,7.318c-0.435,2.191-0.987,4.469-1.567,6.612
						c-0.571,2.152-1.171,4.165-1.698,5.819c-1.712,5.359-6.81,15.628-6.81,15.628c-1.19,0.102-2.075-0.624-2.075-0.624
						s2.196-12.141,3.928-15.793c0.126-0.914,0.189-6.032,0.648-9.8c0.232-1.92,0.155-3.86-0.082-5.78
						c-0.324-2.568,0.537-4.997,0.537-4.997L44.498,101.249z"/>
				</g>
			</g>
			<g>
				<g>
					<path fill="#1F2B70" d="M43.598,108.568c-0.435,2.191-0.987,4.469-1.567,6.612c-1.741-5.079-2.061-10.506-2.061-10.506
						S42.544,107.542,43.598,108.568z"/>
				</g>
			</g>
			<g>
				<g>
					<path fill="#2B37A1" d="M49.576,100.2c0,0,1.278,14.995,1.358,20.799c0.081,5.804-1.713,17.232-1.713,17.232
						s-0.464,0.443-2.207,0.016c0,0-1.677-12.433-1.012-17.133c0,0-3.127-7.202-4.702-12.086c-0.301-0.933-0.822-2.725-1.036-3.507
						c-1.33-4.877,2.177-7.9,2.177-7.9"/>
				</g>
			</g>
			<g>
				<g>
					<path fill="#4D5FE1" d="M58.242,65.857c0,0-1.693,6.691-3.225,10.238c-3.779,2.551-7.536,5.424-7.536,5.424l-3.871-1.03
						c-1.935,1.138-3.346,3.749-4.192,8.162c-0.846,4.414-4.845,13.104-4.845,13.104c7.987,4.232,15.955,1.986,15.955,1.986
						s0.09-8.045,0.1-12.785c0.006-3.05,1.299-5.945,3.541-8.014c1.68-1.551,3.358-3.328,4.113-4.57
						c1.572-3.973,2.358-12.093,2.358-12.093C59.633,65.554,58.242,65.857,58.242,65.857z"/>
				</g>
			</g>
			<g>
				<g>
					<path fill="#E08D8D" d="M47.694,79.87c-0.145,0.474-0.252,1.05-0.213,1.649c0,0-1.354,0.522-2.622-0.354
						c-1.272-0.875,0.019-2.519,0.019-2.519h3.328C48.207,78.646,47.912,79.144,47.694,79.87z"/>
				</g>
			</g>
			<g>
				<g>
					<path fill="#C15F60" d="M48.207,78.646c0,0-0.295,0.498-0.513,1.224c-1.108,0.048-1.63-0.382-1.63-0.382
						s0.305-0.445,0.58-0.842H48.207z"/>
				</g>
			</g>
			<g>
				<g>
					<path fill="#E08D8D" d="M48.092,72.151c0,0,1.458,2.854,1.411,5.347c-0.684,0.901-1.526,1.461-2.236,1.803
						c-0.954,0.459-2.104,0.268-2.848-0.485c-0.42-0.425-0.884-1.018-1.313-1.835C41.207,73.367,45.363,69.344,48.092,72.151z"/>
				</g>
			</g>
			<g>
				<g>
					<path fill="#2E3AA6" d="M46.797,68.965c2.262,0.566,2.42,2.53,1.868,3.21c-0.933,1.149-1.455,0.988-2.024,1.162
						c-1.641,0.501-1.172,4.308-1.27,6.299c-0.098,1.992,1.675,10.375-1.752,11.947c-0.93,0.427-2.133-0.268-4.002,0.863
						c-1.869,1.131-6.246,0.148-5.36-3.934c0.885-4.082,5.127-5.722,6.357-9.656c0.408-1.307-0.52-2.308-0.783-3.235
						c-0.635-2.237,0.133-3.733,0.756-4.68C41.644,69.334,44.535,68.399,46.797,68.965z"/>
				</g>
			</g>
			<g>
				<g>
					<path fill="#E08D8D" d="M45.52,75.467c0,0-0.238-0.672-0.899-0.348c-0.809,0.396,0.076,2.177,0.831,1.874"/>
				</g>
			</g>
			<g>
				<g>
					<path fill="#C15F60" d="M44.628,75.515c0,0,0.285-0.122,0.44,0.117c0.191,0.293,0.436,0.774,0.074,0.847
						c-0.244,0.049-0.476-0.431-0.091-0.582C45.051,75.897,44.938,75.466,44.628,75.515z"/>
				</g>
			</g>
			<g>
				<g>
					<path fill="#2B37A1" d="M46.664,140.02c0,0,0.048-0.661,0.592-1.004c0,0,0.249-0.222,0.971,0
						c0.221,0.068,0.526,0.33,0.722,0.272c0,0,0.448,0.7,0.862,1.527c0.19,0.379,0.436,0.91,0.751,1.257
						c0.372,0.409,0.932,0.507,0.957,0.794c0.032,0.374,0.06,0.461-0.957,0.461c0,0-1.391-0.34-1.774-0.733
						C48.405,142.201,46.664,140.02,46.664,140.02z"/>
				</g>
			</g>
			<g>
				<g>
					<path fill="#202D74" d="M48.913,143.326c-0.456,0-0.878-0.238-1.111-0.63c-0.424-0.713-1.002-1.832-1.11-2.151
						c-0.373-1.098,1.078-1.038,1.431-0.645c0.306,0.341,0.746,1.225,1.144,2.011c0.398,0.786,0.69,1.254,1.295,1.415H48.913z"/>
				</g>
			</g>
			<g>
				<g>
					<path fill="#2B37A1" d="M32.83,137.828c0,0,0.167,0.361,0.127,0.765c-0.04,0.403-0.339,4.366-0.829,4.686
						c-0.096,0.063-0.266,0.135-0.733,0.135c-0.464,0-0.656-0.712-1.098-1.817c-0.454-1.136,0.03-2.95,0.191-3.931
						c0.069-0.157,0.348-0.482,0.584-0.695c0.171-0.154,0.395-0.225,0.624-0.206c0.333,0.027,0.79,0.167,0.747,0.733
						C32.433,137.624,32.4,137.719,32.83,137.828z"/>
				</g>
			</g>
			<g>
				<g>
					<path fill="#202D74" d="M30.309,138.022c0.122-0.477,0.407-0.646,0.787-0.695c0.439-0.057,1.075,0.374,1.03,1.402
						c-0.045,1.028-0.088,3.802-0.176,4.156c-0.202,0.817-1.106,0.599-1.393-0.067C30.293,142.21,29.783,140.082,30.309,138.022z"/>
				</g>
			</g>
		</g>
		<g>
			<g>
				<path fill="#D3DCE4" d="M107.793,70.42h-6.012c-0.092,0-0.166-0.074-0.166-0.165s0.074-0.165,0.166-0.165h6.012
					c0.092,0,0.166,0.074,0.166,0.165S107.884,70.42,107.793,70.42z"/>
			</g>
			<g>
				<path fill="#D3DCE4" d="M107.793,71.22h-6.012c-0.092,0-0.166-0.074-0.166-0.165c0-0.091,0.074-0.165,0.166-0.165h6.012
					c0.092,0,0.166,0.074,0.166,0.165C107.958,71.146,107.884,71.22,107.793,71.22z"/>
			</g>
			<g>
				<path fill="#D3DCE4" d="M105.173,72.02h-3.392c-0.092,0-0.166-0.074-0.166-0.165s0.074-0.165,0.166-0.165h3.392
					c0.092,0,0.166,0.074,0.166,0.165S105.264,72.02,105.173,72.02z"/>
			</g>
		</g>
		<g>
			<g>
				<g>
					<path fill="#444A9C" d="M36.402,30.297H1.81c-1,0-1.81,0.81-1.81,1.81v4.839c0,1,0.81,1.81,1.81,1.81h30.479l2.628,2.628
						v-2.628h1.485c1,0,1.81-0.81,1.81-1.81v-4.839C38.212,31.107,37.402,30.297,36.402,30.297z"/>
				</g>
				<g>
					<path fill="#FFFFFF" d="M35.229,32.845H2.741c-0.134,0-0.242-0.108-0.242-0.242s0.109-0.242,0.242-0.242h32.488
						c0.134,0,0.242,0.108,0.242,0.242S35.363,32.845,35.229,32.845z"/>
				</g>
				<g>
					<path fill="#FFFFFF" d="M35.229,34.768H2.741c-0.134,0-0.242-0.108-0.242-0.242s0.109-0.242,0.242-0.242h32.488
						c0.134,0,0.242,0.108,0.242,0.242S35.363,34.768,35.229,34.768z"/>
				</g>
				<g>
					<path fill="#FFFFFF" d="M21.323,36.691H2.741c-0.134,0-0.242-0.108-0.242-0.242c0-0.134,0.109-0.242,0.242-0.242h18.582
						c0.134,0,0.242,0.108,0.242,0.242C21.565,36.583,21.456,36.691,21.323,36.691z"/>
				</g>
			</g>
			<g>
				<g>
					<g>
						<path fill="#A1B8E6" d="M32.33,69.185H13.982c-1,0-1.81,0.81-1.81,1.81v4.839c0,1,0.81,1.81,1.81,1.81h14.234l2.628,2.628
							v-2.628h1.485c1,0,1.81-0.81,1.81-1.81v-4.839C34.14,69.996,33.33,69.185,32.33,69.185z"/>
					</g>
				</g>
				<g>
					<g>
						<path fill="#FFFFFF" d="M28.977,71.734H14.913c-0.134,0-0.242-0.108-0.242-0.242c0-0.134,0.109-0.242,0.242-0.242h14.064
							c0.134,0,0.242,0.108,0.242,0.242C29.219,71.625,29.111,71.734,28.977,71.734z"/>
					</g>
				</g>
				<g>
					<g>
						<path fill="#FFFFFF" d="M31.158,73.657H14.913c-0.134,0-0.242-0.108-0.242-0.242c0-0.134,0.109-0.242,0.242-0.242h16.244
							c0.134,0,0.242,0.108,0.242,0.242C31.4,73.548,31.291,73.657,31.158,73.657z"/>
					</g>
				</g>
				<g>
					<g>
						<path fill="#FFFFFF" d="M20.737,75.58h-5.824c-0.134,0-0.242-0.108-0.242-0.242c0-0.134,0.109-0.242,0.242-0.242h5.824
							c0.134,0,0.242,0.108,0.242,0.242C20.979,75.471,20.871,75.58,20.737,75.58z"/>
					</g>
				</g>
			</g>
			<g>
				<g>
					<path fill="#444A9C" d="M154.637,77.079h-23.532c-1.483,0-2.686-1.202-2.686-2.686V60.38c0-1.483,1.202-2.686,2.686-2.686
						h23.532c1.483,0,2.686,1.202,2.686,2.686v14.013C157.322,75.876,156.12,77.079,154.637,77.079z"/>
				</g>
				<g>
					<path fill="#FFFFFF" d="M154.701,62.128H131.04c-0.134,0-0.242-0.108-0.242-0.242c0-0.134,0.109-0.242,0.242-0.242h23.661
						c0.134,0,0.242,0.108,0.242,0.242C154.943,62.02,154.835,62.128,154.701,62.128z"/>
				</g>
				<g>
					<path fill="#FFFFFF" d="M150.859,64.7H131.04c-0.134,0-0.242-0.108-0.242-0.242c0-0.134,0.109-0.242,0.242-0.242h19.819
						c0.134,0,0.242,0.108,0.242,0.242C151.101,64.592,150.993,64.7,150.859,64.7z"/>
				</g>
				<g>
					<path fill="#FFFFFF" d="M154.701,69.843H131.04c-0.134,0-0.242-0.108-0.242-0.242s0.109-0.242,0.242-0.242h23.661
						c0.134,0,0.242,0.108,0.242,0.242S154.835,69.843,154.701,69.843z"/>
				</g>
				<g>
					<path fill="#FFFFFF" d="M152.229,72.415H131.04c-0.134,0-0.242-0.108-0.242-0.242s0.109-0.242,0.242-0.242h21.189
						c0.134,0,0.242,0.108,0.242,0.242S152.363,72.415,152.229,72.415z"/>
				</g>
				<g>
					<path fill="#FFFFFF" d="M146.99,74.987H131.04c-0.134,0-0.242-0.108-0.242-0.242c0-0.134,0.109-0.242,0.242-0.242h15.949
						c0.134,0,0.242,0.108,0.242,0.242C147.232,74.878,147.123,74.987,146.99,74.987z"/>
				</g>
				<g>
					<g>
						<g>
							<path fill="#FFFFFF" d="M156.148,60.192c-0.062,0-0.124-0.024-0.171-0.071l-1.402-1.402c-0.095-0.094-0.095-0.248,0-0.342
								c0.094-0.094,0.247-0.094,0.342,0l1.402,1.402c0.095,0.094,0.095,0.248,0,0.342C156.271,60.168,156.21,60.192,156.148,60.192
								z"/>
						</g>
						<g>
							<path fill="#FFFFFF" d="M154.746,60.192c-0.062,0-0.124-0.024-0.171-0.071c-0.095-0.094-0.095-0.248,0-0.342l1.402-1.402
								c0.094-0.094,0.247-0.094,0.342,0c0.095,0.094,0.095,0.248,0,0.342l-1.402,1.402
								C154.87,60.168,154.808,60.192,154.746,60.192z"/>
						</g>
					</g>
					<g>
						<path fill="#FFFFFF" d="M153.495,60.192h-1.131c-0.208,0-0.377-0.169-0.377-0.377v-1.131c0-0.208,0.169-0.377,0.377-0.377
							h1.131c0.208,0,0.377,0.169,0.377,0.377v1.131C153.872,60.023,153.703,60.192,153.495,60.192z M152.47,59.708h0.918V58.79
							h-0.918V59.708z"/>
					</g>
					<g>
						<path fill="#FFFFFF" d="M151.03,60.192h-1.402c-0.134,0-0.242-0.108-0.242-0.242c0-0.134,0.109-0.242,0.242-0.242h1.402
							c0.134,0,0.242,0.108,0.242,0.242C151.272,60.084,151.164,60.192,151.03,60.192z"/>
					</g>
				</g>
				<g>
					<path fill="#FFFFFF" d="M144.047,67.272H131.04c-0.134,0-0.242-0.108-0.242-0.242s0.109-0.242,0.242-0.242h13.007
						c0.134,0,0.242,0.108,0.242,0.242S144.18,67.272,144.047,67.272z"/>
				</g>
			</g>
		</g>
		<g>
			<g>
				<g>
					<g>
						<path fill="#E08D8D" d="M88.379,139.736v2.916c0,0,0.88,0.242,1.865,0l0.138-3.261"/>
					</g>
				</g>
				<g>
					<g>
						<path fill="#2B37A1" d="M90.261,142.259c0,0-0.253,0.263-1.167,0.23c0,0-0.507-0.418-1.128-0.196c0,0-0.917,0.801-1.567,0.933
							c-0.65,0.132-1.41,0.209-1.587,0.496c-0.176,0.286-0.11,0.474-0.11,0.474s-0.044,0.121,0.749,0.154
							c0.793,0.033,3.339-0.077,3.779-0.055c0.441,0.022,1.036,0.033,1.311-0.055C90.816,144.152,90.791,142.767,90.261,142.259z"/>
					</g>
				</g>
				<g>
					<g>
						<path fill="#E08D8D" d="M104.52,138.97l0.859,2.787c0,0,0.913-0.028,1.782-0.549l-0.828-3.158"/>
					</g>
				</g>
				<g>
					<g>
						<path fill="#2B37A1" d="M108.224,142.366c-0.196,0.207-0.726,0.482-1.128,0.673c-0.222,0.101-0.996,0.551-1.758,0.99
							c-0.302,0.169-0.646,0.259-0.99,0.259h-1.25c-0.233,0-0.318-0.159-0.311-0.26c0.017-0.262,0.237-0.481,0.602-0.55
							c0.091-0.016,0.184-0.045,0.276-0.08c0.408-0.157,0.745-0.462,0.977-0.832c0.231-0.37,0.394-0.692,0.394-0.692
							c0.44-0.487,1.086-0.36,1.086-0.36c0.821-0.408,0.916-0.757,0.916-0.757C107.748,140.952,108.426,142.16,108.224,142.366z"/>
					</g>
				</g>
			</g>
			<g>
				<g>
					<path fill="#2B37A1" d="M95.138,108.846c-0.037,0.583-0.09,1.091-0.159,1.483c-0.143,0.858-0.503,2.219-0.937,3.739
						c-0.752,2.611-1.737,5.688-2.288,7.468c2.129,4.359-0.908,18.794-1.289,19.991c-1.065,0.185-1.868,0.022-2.254-0.116
						c-0.454-6.652-1.235-20.177-1.227-20.5c0.177-6.842,1.015-13.15,1.084-14.156c0.074-1.006,0.175-6.631,0.657-6.821
						c1.065-0.397,3.824-1.313,5.068,0.498C95.09,102.332,95.297,106.293,95.138,108.846z"/>
				</g>
			</g>
			<g>
				<g>
					<path fill="#1F2B70" d="M95.138,108.846c-0.037,0.583-0.09,1.091-0.159,1.483c-0.143,0.858-0.503,2.219-0.937,3.739
						c-0.132-2.156-0.381-8.14-0.381-8.14L95.138,108.846z"/>
				</g>
			</g>
			<g>
				<g>
					<path fill="#2B37A1" d="M107.017,139.913c-0.901,0.736-1.866,0.708-2.253,0.687c0.191,0.264-6.161-13.976-7.189-16.868
						c-0.064-0.185-0.328-0.959-0.408-1.218c-0.487-1.515-2.072-9.235-2.824-12.253l-2.141-9.696c0,0-2.922,0.396-0.83,0.274
						c2.659-0.159,5.974-1.483,5.974-1.483c4.429,3.781,4.835,8.128,4.654,10.3c-0.073,0.879-0.101,1.76-0.058,2.641
						c0.159,3.247-0.389,7.591-0.263,9.761C106.491,128.678,106.75,137.521,107.017,139.913z"/>
				</g>
			</g>
			<g>
				<g>
					<g>
						<path fill="#4D5FE1" d="M88.263,81.641c0.794-0.662,2.059-1.302,3.328-1.721c0.898-0.149,2.425-0.084,4.033,0.333
							c1.866,0.484,4.035,0.893,4.356,1.6c0.306,0.672,0.634,7.56,0.186,9.934c-0.337,1.786-1.199,6.209-1.199,7.277
							c0,1.067,0.574,1.525,0.306,1.835c-0.599,0.694-4.698,0.986-6.622,0.986c-1.712,0-4.627-0.457-4.775-1.005
							c-0.219-0.814,0.334-0.784,0.409-1.638C88.362,98.389,87.59,82.413,88.263,81.641z"/>
					</g>
				</g>
				<g>
					<g>
						<path fill="#475AC5" d="M98.004,87.227c0,0,0.278,4.686,0.587,7.897c0.074,0.767-0.113,1.683,0,2.163l1.796-0.531l-1.42-7.797
							L98.004,87.227z"/>
					</g>
				</g>
				<g>
					<g>
						<g>
							<path fill="#C95D62" d="M112.731,110.722l-33.404-5.074c-0.581-0.088-0.98-0.63-0.892-1.211l1.45-9.549
								c0.088-0.581,0.63-0.98,1.211-0.892l33.404,5.074c0.581,0.088,0.98,0.63,0.892,1.211l-1.45,9.549
								C113.854,110.411,113.312,110.811,112.731,110.722z"/>
						</g>
					</g>
					<g opacity="0.3">
						<g>
							<path fill="#FFFFFF" d="M113.272,102.227c-0.024,0-0.049-0.002-0.073-0.006L81.595,97.42
								c-0.264-0.04-0.446-0.287-0.406-0.551c0.041-0.264,0.288-0.446,0.551-0.406l31.604,4.801c0.264,0.04,0.446,0.287,0.406,0.551
								C113.714,102.055,113.507,102.227,113.272,102.227z"/>
						</g>
					</g>
					<g>
						<g>
							<path fill="#FFFFFF" d="M93.673,99.25c-0.024,0-0.049-0.002-0.073-0.006L81.595,97.42c-0.264-0.04-0.446-0.287-0.406-0.551
								c0.04-0.264,0.287-0.446,0.551-0.406l12.005,1.824c0.264,0.04,0.446,0.287,0.406,0.551
								C94.115,99.078,93.908,99.25,93.673,99.25z"/>
						</g>
					</g>
					<g opacity="0.3">
						<g>
							<path fill="#FFFFFF" d="M112.851,105.454c-0.024,0-0.049-0.002-0.073-0.006l-31.604-4.8c-0.264-0.04-0.446-0.287-0.406-0.551
								c0.04-0.264,0.287-0.445,0.551-0.406l31.604,4.8c0.264,0.04,0.446,0.287,0.406,0.551
								C113.293,105.282,113.087,105.454,112.851,105.454z"/>
						</g>
					</g>
					<g>
						<g>
							<path fill="#FFFFFF" d="M104.405,104.171c-0.024,0-0.049-0.002-0.073-0.006l-23.158-3.518
								c-0.264-0.04-0.446-0.287-0.406-0.551c0.04-0.264,0.286-0.446,0.551-0.406l23.158,3.518c0.264,0.04,0.446,0.287,0.406,0.551
								C104.846,103.999,104.64,104.171,104.405,104.171z"/>
						</g>
					</g>
					<g opacity="0.3">
						<g>
							<path fill="#FFFFFF" d="M112.316,108.56c-0.024,0-0.049-0.002-0.073-0.006l-31.604-4.8c-0.264-0.04-0.446-0.287-0.406-0.551
								c0.041-0.264,0.287-0.445,0.551-0.406l31.604,4.8c0.264,0.04,0.446,0.287,0.406,0.551
								C112.758,108.388,112.552,108.56,112.316,108.56z"/>
						</g>
					</g>
					<g>
						<g>
							<path fill="#FFFFFF" d="M108.374,107.961c-0.024,0-0.049-0.002-0.073-0.006l-27.662-4.202
								c-0.264-0.04-0.446-0.287-0.406-0.551c0.041-0.264,0.288-0.446,0.551-0.406l27.662,4.202c0.264,0.04,0.446,0.287,0.406,0.551
								C108.815,107.79,108.609,107.961,108.374,107.961z"/>
						</g>
					</g>
				</g>
				<g>
					<g>
						<g>
							<g>
								<path fill="#E08D8D" d="M97.647,105.615c0,0-0.331,1.037-0.452,1.181c-0.121,0.143-1.381,0.713-1.58,1.276
									c0,0,0.041,0.365,0.361,0.651c0.32,0.287,1.236,0.53,1.765,0.507c0.53-0.022,0.905-0.949,0.96-1.07s0.331-1.245,0.618-1.819
									"/>
							</g>
						</g>
					</g>
					<g>
						<g>
							<g>
								<path fill="#E08D8D" d="M96.314,107.356c0,0-0.61,0.388-0.835,0.779c-0.179,0.31-0.248,0.389-0.083,0.472
									c0.165,0.083,0.494-0.033,0.736-0.24"/>
							</g>
						</g>
					</g>
					<g>
						<g>
							<path fill="#4D5FE1" d="M97.975,86.751c0.06,2.208,1.547,8.189,1.547,8.189l-2.29,11.404c0,0,0.25,0.276,0.812,0.501
								c0.553,0.221,1.256,0.207,1.256,0.207s4.605-10.227,4.605-12.413c0-2.383-0.28-8.751-2.781-12.029
								c-0.971-1.272-3.197-1.772-3.197-1.772"/>
						</g>
					</g>
				</g>
			</g>
			<g>
				<g>
					<g>
						<g>
							<path fill="#E08D8D" d="M72.323,88.219l-1.525-0.364c0,0-0.313-0.173-0.836-0.766c-0.523-0.593-1.273-0.527-1.43-0.519
								c-0.157,0.008-0.171,0.207,0.107,0.397c0.186,0.127,0.512,0.068,0.623,0.503c0.05,0.194-0.501,0.202-0.784,0.106
								c-0.283-0.096-1.246-0.553-1.492-0.657c-0.247-0.103-0.454,0.054,0.189,0.526c0.599,0.439,0.8,0.524,1.026,0.66
								c0.002,0.004,0.138,0.291,0.227,0.402c0.025,0.031,0.067,0.055,0.114,0.075c0.036,0.075,0.14,0.282,0.213,0.373
								c0.012,0.015,0.029,0.029,0.048,0.041c0.059,0.123,0.115,0.243,0.166,0.346c0.199,0.4,0.97,0.287,1.309,0.244
								c0.339-0.043,1.793,0.284,1.793,0.284L72.323,88.219z"/>
						</g>
					</g>
					<g>
						<g>
							<path fill="#E08D8D" d="M68.613,88.091c0,0-0.401-0.013-0.972-0.203c-0.571-0.19-1.299-0.597-1.448-0.613
								c-0.149-0.017-0.165,0.174,0,0.323c0.166,0.149,0.635,0.421,0.902,0.554c0.316,0.158,1.696,0.513,1.696,0.513"/>
						</g>
					</g>
					<g>
						<g>
							<path fill="#E08D8D" d="M68.812,88.493c0,0-0.4,0.032-0.989-0.092c-0.589-0.125-1.358-0.446-1.508-0.446
								c-0.15,0-0.145,0.191,0.036,0.321c0.181,0.129,0.678,0.347,0.959,0.449c0.332,0.121,1.744,0.47,1.744,0.47"/>
						</g>
					</g>
					<g>
						<g>
							<path fill="#E08D8D" d="M69.292,89.082c0,0-0.4,0.032-0.989-0.092c-0.589-0.125-1.358-0.446-1.508-0.446
								c-0.15,0-0.145,0.191,0.036,0.321c0.181,0.129,0.678,0.347,0.959,0.449c0.332,0.121,1.744,0.318,1.744,0.318"/>
						</g>
					</g>
				</g>
				<g>
					<g>
						<path fill="#4D5FE1" d="M88.263,81.641c0,0-5.855,5.162-7.6,7.361c0,0,0.746,1.587,2.051,2.289c0,0,3.942-1.866,5.981-3.287"
							/>
					</g>
				</g>
				<g>
					<g>
						<path fill="#4D5FE1" d="M80.831,88.798l-9.018-0.794l-0.331,1.868c0,0,6.819,2.616,9.368,2.615
							c2.085-0.001,7.187-4.048,7.187-4.048L80.831,88.798z"/>
					</g>
				</g>
			</g>
			<g>
				<g>
					<g>
						<path fill="#E08D8D" d="M95.627,80.249l-0.003,0.004c0,0-1.811,1.365-4.033-0.333c0,0,0.282-0.537,0.329-0.634
							c0.127-0.216,0.365-0.681,0.517-1.337c0.015-0.044,0.022-0.094,0.036-0.146c0.043-0.196,0.073-0.411,0.093-0.638
							c0.04-0.395,0.035-0.836-0.033-1.31l0.215-0.174l3.546-2.788l0.404-0.315c0,0-0.117,0.677-0.278,1.67
							c-0.089,0.563-0.195,1.223-0.3,1.92C95.913,77.583,95.71,79.131,95.627,80.249z"/>
					</g>
				</g>
				<g>
					<g>
						<path fill="#C15F60" d="M95.073,76.25c0,0,0,0-0.003,0.004c-0.508,0.737-1.653,2.208-3.15,3.032
							c0.127-0.216,0.365-0.681,0.517-1.337c-0.235,0.071-0.45,0.107-0.653,0.126c0.01-0.162,0.018-0.331,0.013-0.508l0.237-0.142
							l0.532-0.26l2.801-1.364C95.367,75.801,95.267,75.973,95.073,76.25z"/>
					</g>
				</g>
				<g>
					<g>
						<path fill="#444A9C" d="M89.477,70.459c0,0-0.617,1.69,0.485,2.65l0.527-2.575L89.477,70.459z"/>
					</g>
				</g>
				<g>
					<g>
						<path fill="#E08D8D" d="M95.652,75.533c-0.178,0.25-0.373,0.49-0.579,0.717c0,0,0,0-0.003,0.004
							c-0.342,0.371-0.73,0.708-1.152,0.994c-0.544,0.367-1.037,0.585-1.481,0.701c-0.235,0.071-0.45,0.107-0.653,0.126
							c-0.942,0.079-1.493-0.283-1.493-0.283c-0.884-1.312-0.852-3.439-0.649-5.053c0.078-0.653,0.188-1.221,0.272-1.62
							c0.078-0.36,0.138-0.575,0.138-0.575c0.004-0.016,0.005-0.027,0.008-0.043c0.384-2.084,3.169-2.157,5.085-0.983
							c0.113,0.07,0.219,0.141,0.324,0.224c0.533,0.382,0.973,0.875,1.236,1.45c0.449,0.984,0.174,2.104-0.286,3.056
							c-0.025,0.05-0.05,0.101-0.075,0.152C96.129,74.825,95.88,75.211,95.652,75.533z"/>
					</g>
				</g>
				<g>
					<g>
						<path fill="#444A9C" d="M95.766,69.361c0,0-2.271,3.499-6.077,1.659c-1.112-0.538-1.361-4.324-0.384-3.568
							c2.003,1.551,3.579-1.402,5.503-0.406C95.426,67.366,96.033,68.146,95.766,69.361z"/>
					</g>
				</g>
				<g>
					<g>
						<path fill="#444A9C" d="M95.011,69.806c0,0-1.32,6.87,0.075,3.715c0,0,0.354-0.88,0.994-0.799s0.126,2.445,0.038,3.446
							c0,0,1.464-1.047,2.003-4.164c0.539-3.117-1.557-4.398-2.717-3.048L95.011,69.806z"/>
					</g>
				</g>
				<g>
					<g>
						<path fill="#C15F60" d="M95.954,73.212c0,0-0.359,0.049-0.436,0.708c-0.076,0.659,0.348,0.791,0.433,0.443
							c0.085-0.348-0.236-0.557-0.306-0.412C95.645,73.951,95.559,73.568,95.954,73.212z"/>
					</g>
				</g>
			</g>
		</g>
		<g>
			<g>
				<rect x="126.544" y="117.335" fill="#444A9C" width="4.943" height="22.569"/>
			</g>
			<g>
				<rect x="134.488" y="120.954" fill="#444A9C" width="4.943" height="18.95"/>
			</g>
			<g>
				<rect x="118.672" y="124.044" fill="#444A9C" width="4.943" height="15.86"/>
			</g>
			<g>
				<rect x="142.432" y="114.334" fill="#444A9C" width="4.943" height="25.57"/>
			</g>
			<g>
				<g>
					<polygon fill="#444A9C" points="121.328,121.145 120.959,120.764 128.977,113.032 136.901,117.764 144.701,108.464 
						145.106,108.805 137.017,118.45 129.053,113.694 					"/>
				</g>
				<g>
					<path fill="#444A9C" d="M122.026,120.921c0,0.475-0.385,0.861-0.861,0.861c-0.475,0-0.861-0.385-0.861-0.861
						c0-0.475,0.385-0.861,0.861-0.861C121.641,120.06,122.026,120.446,122.026,120.921z"/>
				</g>
				<g>
					<path fill="#444A9C" d="M129.876,113.473c0,0.475-0.385,0.861-0.861,0.861c-0.475,0-0.861-0.385-0.861-0.861
						s0.385-0.861,0.861-0.861C129.49,112.613,129.876,112.998,129.876,113.473z"/>
				</g>
				<g>
					<path fill="#444A9C" d="M137.82,117.997c0,0.475-0.385,0.861-0.861,0.861c-0.475,0-0.861-0.385-0.861-0.861
						c0-0.475,0.385-0.861,0.861-0.861C137.435,117.137,137.82,117.522,137.82,117.997z"/>
				</g>
				<g>
					<path fill="#444A9C" d="M145.764,108.634c0,0.475-0.385,0.861-0.861,0.861c-0.475,0-0.861-0.385-0.861-0.861
						c0-0.475,0.385-0.861,0.861-0.861C145.379,107.774,145.764,108.159,145.764,108.634z"/>
				</g>
			</g>
		</g>
		<g>
			<g>
				<g>
					<g>
						<path fill="#8095CD" d="M4.685,108.605c0,0-1.169,0.369-0.776,2.371c0.393,2.002,1.037,2.245,0.759,4.038
							c-0.278,1.793,1.782,3.158,2.114,4.269c0.332,1.111-0.424,3.077,0.473,4.563c0.488,0.808,1.72,1.439,3.336,1.599
							c3.671,0.364,6.637-1.507,7.422-4.79c0.121-0.508,0.178-1.032,0.139-1.559c-0.235-3.163-3.831-3.224-4.833-3.925
							c-1.001-0.701-1.271-3.304-2.137-3.895s-1.828,0.282-3.294-1.02C6.423,108.951,5.615,108.323,4.685,108.605z"/>
					</g>
				</g>
				<g>
					<g>
						<path fill="#FFFFFF" d="M17.187,132.591c-0.097,0-0.182-0.071-0.196-0.17c-1.415-9.862-12.201-22.651-12.31-22.779
							c-0.071-0.084-0.061-0.209,0.023-0.28c0.084-0.07,0.209-0.061,0.28,0.023c0.109,0.129,10.969,13.005,12.4,22.98
							c0.016,0.109-0.06,0.209-0.168,0.225C17.206,132.591,17.196,132.591,17.187,132.591z"/>
					</g>
				</g>
				<g>
					<g>
						<path fill="#FFFFFF" d="M8.65,114.644c-0.031,0-0.062-0.011-0.087-0.033c-1.382-1.212-3.408-1.738-3.428-1.743
							c-0.071-0.018-0.114-0.09-0.096-0.161c0.018-0.071,0.09-0.113,0.161-0.096c0.085,0.022,2.108,0.547,3.538,1.801
							c0.055,0.048,0.06,0.132,0.012,0.187C8.723,114.629,8.687,114.644,8.65,114.644z"/>
					</g>
				</g>
				<g>
					<g>
						<path fill="#FFFFFF" d="M9.882,116.433c-0.063,0-0.118-0.045-0.13-0.109c-0.339-1.852,0.545-4.465,0.583-4.575
							c0.023-0.069,0.099-0.106,0.168-0.082c0.069,0.024,0.106,0.099,0.082,0.168c-0.009,0.026-0.899,2.659-0.573,4.442
							c0.013,0.072-0.034,0.141-0.106,0.154C9.897,116.432,9.889,116.433,9.882,116.433z"/>
					</g>
				</g>
				<g>
					<g>
						<path fill="#FFFFFF" d="M11.955,119.696c-0.028,0-0.056-0.008-0.08-0.026c-1.195-0.898-4.892-1.356-4.929-1.361
							c-0.073-0.009-0.124-0.075-0.116-0.147c0.009-0.072,0.074-0.124,0.148-0.115c0.155,0.019,3.805,0.471,5.057,1.411
							c0.058,0.044,0.07,0.127,0.026,0.185C12.034,119.678,11.995,119.696,11.955,119.696z"/>
					</g>
				</g>
				<g>
					<g>
						<path fill="#FFFFFF" d="M13.334,122.114c-0.072,0-0.131-0.058-0.133-0.13c-0.027-1.439,1.511-4.556,1.577-4.688
							c0.033-0.066,0.112-0.093,0.177-0.06c0.066,0.033,0.092,0.112,0.059,0.177c-0.016,0.032-1.575,3.191-1.549,4.565
							c0.001,0.073-0.057,0.134-0.13,0.135C13.336,122.114,13.335,122.114,13.334,122.114z"/>
					</g>
				</g>
				<g>
					<g>
						<path fill="#FFFFFF" d="M8.631,123.606c-0.062,0-0.117-0.043-0.13-0.106c-0.015-0.072,0.032-0.141,0.104-0.156
							c0.03-0.006,3.106-0.612,5.413-0.227c0.072,0.012,0.121,0.08,0.109,0.153c-0.012,0.072-0.081,0.122-0.152,0.109
							c-2.261-0.378-5.287,0.219-5.318,0.225C8.648,123.605,8.639,123.606,8.631,123.606z"/>
					</g>
				</g>
				<g>
					<g>
						<path fill="#FFFFFF" d="M10.494,117.36c-0.072,0-0.131-0.058-0.133-0.13c-0.014-0.822,0.294-2.152,0.307-2.209
							c0.017-0.071,0.084-0.116,0.159-0.099c0.071,0.017,0.115,0.088,0.099,0.159c-0.003,0.014-0.313,1.355-0.3,2.144
							c0.001,0.073-0.057,0.134-0.13,0.135C10.496,117.36,10.495,117.36,10.494,117.36z"/>
					</g>
				</g>
			</g>
			<g>
				<g>
					<g>
						<path fill="#647DAD" d="M24.734,106.952c0,0,1.22,0.121,1.245,2.161c0.026,2.04-0.555,2.41,0.085,4.107
							c0.64,1.698-1.096,3.456-1.193,4.611c-0.097,1.155,1.046,2.925,0.473,4.562c-0.312,0.891-1.388,1.761-2.937,2.249
							c-3.518,1.109-6.805-0.114-8.247-3.166c-0.223-0.472-0.386-0.974-0.456-1.498c-0.419-3.144,3.089-3.941,3.925-4.833
							c0.836-0.891,0.566-3.494,1.293-4.25c0.726-0.756,1.847-0.099,3.014-1.674C23.104,107.647,23.766,106.866,24.734,106.952z"/>
					</g>
				</g>
				<g>
					<g>
						<path fill="#FFFFFF" d="M17.376,132.996c-0.104,0-0.192-0.081-0.198-0.186c-0.645-10.057,7.343-24.886,7.424-25.034
							c0.052-0.096,0.173-0.132,0.269-0.08c0.096,0.052,0.132,0.173,0.08,0.269c-0.08,0.148-8.015,14.877-7.377,24.819
							c0.007,0.109-0.076,0.204-0.185,0.211C17.384,132.996,17.38,132.996,17.376,132.996z"/>
					</g>
				</g>
				<g>
					<g>
						<path fill="#FFFFFF" d="M22.065,113.678c-0.028,0-0.056-0.008-0.08-0.026c-0.058-0.044-0.07-0.127-0.026-0.185
							c1.142-1.52,3.015-2.449,3.094-2.488c0.063-0.032,0.144-0.005,0.177,0.061c0.032,0.066,0.005,0.145-0.06,0.177
							c-0.019,0.009-1.896,0.941-2.999,2.409C22.144,113.66,22.105,113.678,22.065,113.678z"/>
					</g>
				</g>
				<g>
					<g>
						<path fill="#FFFFFF" d="M21.226,115.682c-0.072,0-0.131-0.057-0.133-0.129c-0.046-1.813-1.457-4.206-1.471-4.23
							c-0.037-0.063-0.017-0.144,0.046-0.181c0.061-0.038,0.143-0.017,0.181,0.046c0.06,0.1,1.461,2.476,1.509,4.359
							c0.001,0.073-0.056,0.134-0.129,0.136C21.228,115.682,21.227,115.682,21.226,115.682z"/>
					</g>
				</g>
				<g>
					<g>
						<path fill="#FFFFFF" d="M19.866,119.3c-0.031,0-0.062-0.011-0.087-0.033c-0.055-0.048-0.06-0.132-0.012-0.187
							c1.031-1.177,4.512-2.368,4.66-2.418c0.069-0.024,0.144,0.013,0.168,0.083c0.024,0.069-0.014,0.144-0.083,0.168
							c-0.035,0.012-3.56,1.219-4.546,2.342C19.94,119.285,19.903,119.3,19.866,119.3z"/>
					</g>
				</g>
				<g>
					<g>
						<path fill="#FFFFFF" d="M19.013,121.95c-0.062,0-0.118-0.044-0.13-0.108c-0.256-1.351-2.43-4.123-2.452-4.15
							c-0.045-0.057-0.035-0.141,0.022-0.186c0.058-0.045,0.141-0.035,0.186,0.022c0.092,0.116,2.236,2.851,2.505,4.265
							c0.014,0.072-0.033,0.141-0.106,0.155C19.029,121.949,19.021,121.95,19.013,121.95z"/>
					</g>
				</g>
				<g>
					<g>
						<path fill="#FFFFFF" d="M18.623,123.325c-0.053,0-0.103-0.032-0.123-0.084c-0.027-0.068,0.007-0.145,0.075-0.172
							c2.181-0.851,5.314-0.888,5.345-0.888c0,0,0,0,0.001,0c0.073,0,0.132,0.059,0.133,0.131c0,0.073-0.059,0.133-0.132,0.134
							c-0.031,0-3.116,0.037-5.251,0.87C18.656,123.322,18.639,123.325,18.623,123.325z"/>
					</g>
				</g>
				<g>
					<g>
						<path fill="#FFFFFF" d="M20.817,116.715c-0.062,0-0.118-0.044-0.13-0.107c-0.148-0.775-0.727-2.024-0.733-2.037
							c-0.031-0.066-0.002-0.145,0.064-0.176c0.066-0.03,0.145-0.002,0.176,0.064c0.025,0.052,0.599,1.291,0.754,2.099
							c0.014,0.072-0.033,0.141-0.105,0.155C20.833,116.714,20.825,116.715,20.817,116.715z"/>
					</g>
				</g>
			</g>
			<g>
				<g>
					<polygon fill="#FFFFFF" points="21.216,139.373 12.743,139.373 10.976,127.119 22.982,127.119 					"/>
				</g>
				<g opacity="0.67">
					<polygon fill="#9CC4EB" points="10.976,127.119 11.171,128.47 22.616,129.657 22.982,127.119 					"/>
				</g>
				<g>
					<rect x="10.194" y="125.897" fill="#FFFFFF" width="13.571" height="1.884"/>
				</g>
			</g>
		</g>
		<g>
			<g>
				<g>
					<path fill="#4D5FE1" d="M136.935,44.075H117.74c0.24-0.597,0.577-1.297,1.016-1.864c0.848-1.118,4.223-2.615,5.224-3.043
						c0.056-0.026,0.107-0.046,0.143-0.061c0.092-0.036,0.138-0.056,0.138-0.056l3.656-1.282v-0.005h0.005
						c0,0,5.28,1.445,6.654,2.135c0.669,0.332,1.358,1.67,1.889,2.952c0.041,0.102,0.087,0.209,0.133,0.322
						C136.721,43.488,136.833,43.795,136.935,44.075z"/>
				</g>
				<g>
					<g>
						<g>
							<path fill="#E08D8D" d="M127.917,37.764v0.005c0,0-0.873,1.563-3.656,1.282c0,0,0.005-0.056-0.005-0.163
								c-0.005-0.25-0.046-0.771-0.26-1.409c-0.01-0.046-0.031-0.092-0.046-0.143c-0.066-0.189-0.153-0.388-0.255-0.592
								c-0.174-0.357-0.409-0.73-0.715-1.098l0.092-0.26l1.558-4.233l0.179-0.48c0,0,0.255,0.638,0.638,1.568
								c0.22,0.526,0.475,1.144,0.751,1.792C126.763,35.343,127.401,36.768,127.917,37.764z"/>
						</g>
					</g>
					<g>
						<g>
							<path fill="#C15F60" d="M125.348,34.649c0,0,0,0,0,0.005c-0.046,0.894-0.25,2.747-1.093,4.233
								c-0.005-0.25-0.046-0.771-0.26-1.409c-0.163,0.184-0.327,0.327-0.49,0.449c-0.077-0.143-0.158-0.291-0.255-0.439l0.128-0.245
								l0.317-0.5l1.67-2.63C125.364,34.113,125.369,34.312,125.348,34.649z"/>
						</g>
					</g>
					<g>
						<g>
							<path fill="#192D52" d="M117.548,32.651c0,0,0.36,1.762,1.802,2.003l-0.901-2.469L117.548,32.651z"/>
						</g>
					</g>
					<g>
						<g>
							<path fill="#E08D8D" d="M125.466,33.735c-0.02,0.306-0.061,0.613-0.117,0.914c0,0,0,0,0,0.005
								c-0.097,0.495-0.25,0.986-0.46,1.45c-0.271,0.597-0.577,1.042-0.894,1.374c-0.163,0.184-0.327,0.327-0.49,0.449
								c-0.761,0.562-1.42,0.541-1.42,0.541c-1.44-0.654-2.528-2.482-3.202-3.963c-0.276-0.597-0.48-1.139-0.618-1.522
								c-0.123-0.347-0.184-0.562-0.184-0.562c-0.005-0.015-0.01-0.026-0.015-0.041c-0.766-1.976,1.568-3.498,3.815-3.503
								c0.133,0,0.26,0.005,0.393,0.02c0.654,0.046,1.287,0.235,1.813,0.587c0.899,0.603,1.251,1.701,1.358,2.752
								c0.005,0.056,0.01,0.112,0.015,0.169C125.502,32.882,125.491,33.342,125.466,33.735z"/>
						</g>
					</g>
					<g>
						<g>
							<path fill="#192D52" d="M122.327,28.419c0,0-0.133,5.607-6.649,4.486c0,0,0.936-5.681,4.619-5.954
								C120.992,26.899,121.918,27.244,122.327,28.419z"/>
						</g>
					</g>
					<g>
						<g>
							<path fill="#192D52" d="M121.918,29.193c0,0,0.65,2.136,2.011,3.124c0,0-0.16-0.935,0.427-1.202
								c0.587-0.267,1.388,2.016,1.839,2.914c0,0,0.698-1.659-0.477-4.596c-1.175-2.937-3.631-2.929-3.912-1.171L121.918,29.193z"/>
						</g>
					</g>
					<g>
						<g>
							<path fill="#C15F60" d="M124.507,31.6c0,0-0.28,0.23,0,0.831c0.28,0.601,0.711,0.491,0.601,0.15
								c-0.11-0.34-0.493-0.35-0.477-0.19C124.631,32.391,124.357,32.11,124.507,31.6z"/>
						</g>
					</g>
				</g>
			</g>
			<g>
				<g>
					<path fill="#E08D8D" d="M130.845,61.363l-1.067,1.149c0,0-0.305,0.188-1.079,0.352c-0.774,0.164-1.085,0.85-1.155,0.991
						c-0.07,0.141,0.096,0.251,0.399,0.102c0.202-0.1,0.311-0.412,0.745-0.295c0.194,0.052-0.07,0.535-0.293,0.735
						c-0.223,0.199-1.094,0.813-1.305,0.977c-0.211,0.164-0.176,0.422,0.551,0.094c0.677-0.306,0.85-0.439,1.079-0.569
						c0.004,0,0.321,0.023,0.461,0c0.039-0.006,0.081-0.031,0.122-0.062c0.083,0.005,0.315,0.017,0.429-0.002
						c0.019-0.003,0.039-0.011,0.06-0.022c0.137,0.009,0.268,0.019,0.383,0.025c0.446,0.023,0.727-0.703,0.856-1.02
						c0.129-0.317,1.128-1.422,1.128-1.422L130.845,61.363z"/>
				</g>
				<g>
					<path fill="#4D5FE1" d="M130.74,44.022c1.266,2.908,5.214,8.898,5.214,8.898s-0.818,1.104-1.556,2.264
						c-1.084,1.702-2.385,4.077-3.989,6.416c0,0,0.174,0.442,0.612,0.889c0.317,0.322,0.83,0.543,0.83,0.543s6.911-5.71,8.515-9.425
						c0.102-0.236,0.111-0.501,0.021-0.742c-0.595-1.578-3.056-8.082-4.195-10.645L130.74,44.022z"/>
				</g>
			</g>
		</g>
	</g>
	<path fill="#FFFFFF" d="M80.815,2.358c15.463,0,28.043,12.58,28.043,28.042s-12.58,28.042-28.043,28.042S52.773,45.862,52.773,30.4
		S65.352,2.358,80.815,2.358z"/>
	<path opacity="0.7" fill="#3CC85E" d="M80.61,0C63.709,0,49.96,13.749,49.96,30.649S63.709,61.299,80.61,61.299
		s30.649-13.749,30.649-30.649S97.51,0,80.61,0z M80.61,3.611c14.909,0,27.039,12.129,27.039,27.039S95.519,57.688,80.61,57.688
		S53.571,45.559,53.571,30.649S65.7,3.611,80.61,3.611z M71.524,34.635c-0.239-0.344-0.331-0.769-0.257-1.181
		c0.075-0.412,0.31-0.778,0.654-1.017l0.373-0.259c0.716-0.496,1.699-0.319,2.196,0.397l2.144,3.087l11.394-14.769
		c0.533-0.691,1.524-0.817,2.214-0.286l0.359,0.277c0.69,0.532,0.818,1.524,0.285,2.214L77.798,40.065
		c-0.299,0.388-0.762,0.614-1.25,0.614c-0.013,0-0.027,0-0.039-0.001c-0.503-0.012-0.97-0.264-1.257-0.677L71.524,34.635z"/>
</g>
</svg>
