<?xml version="1.0" encoding="utf-8"?>
<!-- Generator: Adobe Illustrator 22.1.0, SVG Export Plug-In . SVG Version: 6.00 Build 0)  -->
<svg version="1.1" id="Capa_1" xmlns="http://www.w3.org/2000/svg" xmlns:xlink="http://www.w3.org/1999/xlink" x="0px" y="0px"
	 width="276.204px" height="229.11px" viewBox="0 0 276.204 229.11" enable-background="new 0 0 276.204 229.11"
	 xml:space="preserve">
<g>
	<g opacity="0.7">
		<ellipse opacity="0.37" fill="#5891C2" cx="137.281" cy="222.381" rx="135.253" ry="6.729"/>
		<g>
			<g>
				<g>
					
						<linearGradient id="SVGID_1_" gradientUnits="userSpaceOnUse" x1="-9174.3086" y1="6142.3364" x2="-9126.0029" y2="6089.3369" gradientTransform="matrix(-0.4905 0.8714 0.8714 0.4905 -9774.416 5162.9502)">
						<stop  offset="0" style="stop-color:#5D9BE3"/>
						<stop  offset="1" style="stop-color:#75C6F4"/>
					</linearGradient>
					<path fill="url(#SVGID_1_)" d="M48.546,187.695c-2.193-2.556-4.313-5.226-7.007-7.247c-2.477-1.859-6.351-2.952-8.413-0.641
						c-2,2.241-0.687,5.746,0.707,8.407c-5.606-3.912-11.446-7.543-17.732-10.228c-3.111-1.329-6.503-2.439-9.831-1.832
						c-3.328,0.607-6.46,3.473-6.259,6.85c0.199,3.357,3.406,5.739,6.567,6.887c3.161,1.148,6.642,1.606,9.415,3.507
						c-2.187,0.551-4.792,1.538-5.122,3.769c-0.298,2.017,1.645,3.768,3.643,4.178c1.997,0.409,4.046-0.188,6.083-0.276
						c11.319-0.49,3.444,3.669,2.761,5.005c-0.683,1.337-0.845,3.042-0.019,4.295c0.938,1.424,2.808,1.863,4.505,2.032c0,0,0,0,0,0
						c10.189,1.014,35.422-6.229,36.321-7.627C65.392,202.861,52.213,191.969,48.546,187.695z"/>
				</g>
				<path fill="#19264F" d="M76.275,208.194c0.02-0.035,0.024-0.081,0.009-0.114c-0.007-0.015-0.021-0.037-0.064-0.049
					c-5.721-1.449-10.118-2.601-14.256-3.735c-3.843-1.052-7.373-2.067-10.788-3.101l-0.068-0.021l-0.035-0.063
					c-1.223-2.186-2.74-4.237-4.206-6.221l-0.209-0.283c-1.356-1.836-2.759-3.734-4.383-5.35c-0.032-0.032-0.054-0.029-0.063-0.027
					c-0.031,0.004-0.064,0.03-0.083,0.064c-0.037,0.065,0.003,0.104,0.016,0.117c1.677,1.668,3.111,3.62,4.497,5.509l0.235,0.319
					c1.216,1.654,2.594,3.529,3.727,5.461l0.229,0.391l-0.433-0.132c-14.418-4.4-26.604-9.173-37.254-14.591
					c-0.073-0.037-0.114,0.013-0.133,0.046c-0.016,0.028-0.021,0.059-0.014,0.082c0.002,0.007,0.008,0.026,0.045,0.045
					c4.339,2.208,8.899,4.302,13.553,6.225c1.408,0.582,2.947,1.194,4.705,1.873l0.609,0.25l-0.67,0.091
					c-3.658,0.056-7.233,0.263-10.627,0.614c-0.037,0.004-0.062,0.019-0.078,0.048c-0.022,0.04-0.022,0.097,0,0.131
					c0.006,0.01,0.018,0.028,0.067,0.024c3.802-0.394,7.81-0.605,11.914-0.63l0.056-0.016l0.09,0.014
					c7.674,2.907,16.242,5.679,26.192,8.473l1.142,0.294l-1.188,0.053l-1.02,0.006c-3.548,0.023-7.217,0.047-10.813,0.285
					c-3.932,0.261-8.059,0.864-12.99,1.897c-0.016,0.013-0.027,0.026-0.034,0.039c-0.02,0.035-0.011,0.07,0.011,0.1
					c0.029,0.04,0.069,0.055,0.116,0.045c4.98-1.044,9.182-1.648,13.225-1.9c3.509-0.219,7.085-0.242,10.542-0.265
					c0.935-0.006,1.869-0.012,2.804-0.022l0.04-0.008l0.067,0.008c4.467,1.234,9.37,2.524,15.429,4.059
					C76.214,208.238,76.249,208.24,76.275,208.194z"/>
			</g>
			<g>
				<g>
					<g>
						
							<linearGradient id="SVGID_2_" gradientUnits="userSpaceOnUse" x1="-9954.876" y1="227.6112" x2="-9912.5684" y2="157.929" gradientTransform="matrix(-1 0 0 1 -9878.3105 0)">
							<stop  offset="0" style="stop-color:#26439E"/>
							<stop  offset="1" style="stop-color:#395FC4"/>
						</linearGradient>
						<path fill="url(#SVGID_2_)" d="M65.285,169.233c-0.404-2.328-0.873-4.795-2.471-6.536c-1.598-1.741-4.736-2.276-6.232-0.447
							c-1.103,1.349-0.889,3.291-1.055,5.025c-0.166,1.735-1.294,3.777-3.023,3.565c-2.044-0.251-2.314-3.068-2.157-5.121
							c0.397-5.208-0.085-10.482-1.42-15.531c-0.588-2.223-1.45-4.557-3.343-5.863c-1.892-1.306-5.059-0.909-5.836,1.255
							c-0.674,1.877,0.537,4.433-0.984,5.723c-0.968,0.821-2.538,0.46-3.437-0.436c-0.899-0.896-1.295-2.165-1.664-3.38
							c-1.42-4.677-3.062-9.606-6.815-12.738c-3.753-3.132-10.307-3.395-12.931,0.729c-1.926,3.028-0.699,7.591,2.486,9.245
							c-2.813-0.778-5.767,1.827-6.067,4.731c-0.3,2.904,1.459,5.703,3.771,7.486c2.312,1.782,5.128,2.753,7.859,3.784
							c1.537,0.58,3.146,1.251,4.115,2.577s0.945,3.511-0.467,4.35c-0.771,0.458-1.729,0.413-2.597,0.635
							c-2.432,0.622-3.858,3.382-3.659,5.885c0.199,2.503,1.66,4.732,3.337,6.601c3.887,4.33,9.209,7.349,14.92,8.465
							c1.161,0.227,2.379,0.394,3.36,1.054c0.981,0.66,1.628,2.005,1.081,3.053c-0.368,0.704-1.167,1.1-1.549,1.798
							c-1.011,1.848,1.423,3.632,3.402,4.352l0,0c5.764,2.094,11.528,4.188,17.292,6.282c4.174,1.517,10.94,5.435,10.129-1.657
							C69.998,192.453,67.24,180.812,65.285,169.233z"/>
					</g>
					<path opacity="0.51" fill="#26439E" d="M34.721,177.514c8.992,5.054,17.463,10.978,25.297,17.681
						c-9.616-12.039-18.668-24.528-27.102-37.427c-0.696-1.065-1.387-2.133-2.075-3.204c-3.546-2.221-7.367-3.893-11.402-4.999
						c-0.37-0.102-0.169-0.662,0.198-0.561c3.686,1.011,7.192,2.5,10.479,4.431c-3.048-4.772-6.013-9.596-8.897-14.47
						c-0.194-0.329,0.346-0.577,0.54-0.25c6.428,10.866,13.28,21.478,20.527,31.813c0.352-5.023,0.703-10.046,1.055-15.069
						c0.027-0.383,0.62-0.333,0.593,0.049c-0.368,5.252-0.735,10.503-1.103,15.755c-0.001,0.013-0.004,0.023-0.006,0.035
						c7.021,9.971,14.415,19.679,22.166,29.097c-2.298-9.733-4.07-19.581-5.3-29.506c-0.047-0.379,0.539-0.484,0.586-0.103
						c1.277,10.309,3.134,20.535,5.563,30.634c0.558,0.674,1.113,1.351,1.674,2.022c2.082,2.488,4.19,4.953,6.321,7.398l-0.45,0.381
						c-3.883-4.459-7.687-8.986-11.407-13.582c-0.041-0.009-0.082-0.026-0.122-0.062c-8.433-7.487-17.643-14.048-27.473-19.574
						C34.051,177.817,34.389,177.327,34.721,177.514z"/>
				</g>
			</g>
		</g>
		<g>
			
				<linearGradient id="SVGID_4_" gradientUnits="userSpaceOnUse" x1="-9973.1982" y1="228.2386" x2="-10056.6035" y2="15.9967" gradientTransform="matrix(-1 0 0 1 -9878.3105 0)">
				<stop  offset="0" style="stop-color:#E7E7E7"/>
				<stop  offset="1" style="stop-color:#F4F4F4"/>
			</linearGradient>
			<path fill="url(#SVGID_4_)" d="M68.743,43.759h127.998c5.662,0,10.252,4.59,10.252,10.252v155.8
				c0,5.662-4.59,10.252-10.252,10.252H68.743c-5.662,0-10.252-4.59-10.252-10.252v-155.8
				C58.491,48.349,63.081,43.759,68.743,43.759z"/>
			
				<linearGradient id="SVGID_5_" gradientUnits="userSpaceOnUse" x1="-10011.0527" y1="207.8567" x2="-10011.0527" y2="66.6509" gradientTransform="matrix(-1 0 0 1 -9878.3105 0)">
				<stop  offset="0" style="stop-color:#5D9BE3"/>
				<stop  offset="1" style="stop-color:#75C6F4"/>
			</linearGradient>
			<path fill="url(#SVGID_5_)" d="M58.491,64.102V54.011c0-5.662,4.59-10.252,10.252-10.252h127.998
				c5.662,0,10.252,4.59,10.252,10.252v10.091H58.491z"/>
			<g>
				<g>
					<g>
						<path fill="#3B3E66" d="M78.18,156.435h108.447c3.384,0,6.127-2.743,6.127-6.127V94.752c0-3.384-2.743-6.127-6.127-6.127
							H78.18c-3.384,0-6.127,2.743-6.127,6.127v55.556C72.053,153.692,74.796,156.435,78.18,156.435z"/>
					</g>
				</g>
				
					<rect x="167.325" y="98.91" transform="matrix(-1 -4.499924e-11 4.499924e-11 -1 348.2111 245.9649)" fill="#0092D2" width="13.562" height="48.144"/>
				
					<rect x="146.982" y="115.173" transform="matrix(-1 -4.499924e-11 4.499924e-11 -1 307.5257 262.2276)" fill="#4A72A9" width="13.562" height="31.882"/>
				
					<rect x="126.639" y="125.618" transform="matrix(-1 -4.493218e-11 4.493218e-11 -1 266.8403 272.6731)" fill="#5F9890" width="13.562" height="21.436"/>
				
					<rect x="107.992" y="111.89" transform="matrix(-1 -4.499924e-11 4.499924e-11 -1 229.5453 258.9444)" fill="#6EA16F" width="13.562" height="35.165"/>
				
					<rect x="88.666" y="117.13" transform="matrix(-1 -4.499924e-11 4.499924e-11 -1 190.8941 264.185)" fill="#0092D2" width="13.562" height="29.924"/>
			</g>
		</g>
		<g>
			<g>
				
					<linearGradient id="SVGID_6_" gradientUnits="userSpaceOnUse" x1="-10137.0166" y1="209.58" x2="-10110.5107" y2="162.0828" gradientTransform="matrix(-1 0 0 1 -9878.3105 0)">
					<stop  offset="0" style="stop-color:#26439E"/>
					<stop  offset="1" style="stop-color:#395FC4"/>
				</linearGradient>
				<path fill="url(#SVGID_6_)" d="M244.053,181.409c-0.078,11.428,0.759,14.998,2.892,20.016c0.541,1.273,1.026,2.482,1.459,3.616
					h-0.946c-0.364-0.826-0.795-1.737-1.315-2.751c-3.573-6.966-8.195-13.112-10.312-21.471c-2.117-8.36-2.453-31.721-2.941-33.063
					C232.402,146.413,244.131,169.981,244.053,181.409z"/>
			</g>
			<g>
				
					<linearGradient id="SVGID_8_" gradientUnits="userSpaceOnUse" x1="-10131.123" y1="237.0193" x2="-10139.624" y2="104.0512" gradientTransform="matrix(-1 0 0 1 -9878.3105 0)">
					<stop  offset="0" style="stop-color:#26439E"/>
					<stop  offset="1" style="stop-color:#395FC4"/>
				</linearGradient>
				<path fill="url(#SVGID_8_)" d="M248.342,206.11c-0.437-6.899-1.02-20.574,5.444-29.872
					c7.824-11.254,10.536-32.945,10.536-32.945s2.708,33.57-4.319,42.843c-6.067,8.005-10.613,10.132-10.819,19.974H248.342z"/>
			</g>
			
				<linearGradient id="SVGID_10_" gradientUnits="userSpaceOnUse" x1="-10107.6064" y1="202.479" x2="-10108.915" y2="139.0467" gradientTransform="matrix(-1 0 0 1 -9878.3105 0)">
				<stop  offset="0" style="stop-color:#26439E"/>
				<stop  offset="1" style="stop-color:#395FC4"/>
			</linearGradient>
			<path fill="url(#SVGID_10_)" d="M239.771,193.896c0.549,1.564,1.246,3.071,2.143,4.465c1.187,1.844,2.862,4.695,3.656,7.183
				h-0.983c-0.271-0.617-0.602-1.351-0.968-2.12c-1.311-2.756-3.334-5.109-5.832-6.862c-3.582-2.513-8.296-6.715-9.145-10.322
				c-2.034-8.642-12.945-17.539-14.98-17.847C213.662,168.394,230.903,168.617,239.771,193.896z"/>
			
				<linearGradient id="SVGID_11_" gradientUnits="userSpaceOnUse" x1="-10141.4297" y1="203.1763" x2="-10142.7373" y2="139.7441" gradientTransform="matrix(-1 0 0 1 -9878.3105 0)">
				<stop  offset="0" style="stop-color:#26439E"/>
				<stop  offset="1" style="stop-color:#395FC4"/>
			</linearGradient>
			<path fill="url(#SVGID_11_)" d="M252.143,205.891c0,0-5.425-2.75,4.756-11.668c10.181-8.918,11.073-21.998,14.269-27.349
				c3.196-5.351,4.013-5.797,4.013-5.797s4.236,16.796-4.533,27.2s-12.216,5.602-15.932,9.763c-3.716,4.162-1.013,7.478-1.013,7.478
				L252.143,205.891z"/>
			<path fill="#C1BB53" d="M258.9,205.745l-3.182,15.18c-0.136,0.65-0.709,1.115-1.372,1.115h-11.862
				c-0.664,0-1.236-0.465-1.372-1.115l-3.182-15.18c-0.183-0.871,0.482-1.69,1.372-1.69h18.226
				C258.418,204.055,259.082,204.874,258.9,205.745z"/>
		</g>
		<g>
			<g>
				
					<linearGradient id="SVGID_12_" gradientUnits="userSpaceOnUse" x1="-9970.4063" y1="208.0725" x2="-10021.0732" y2="165.1021" gradientTransform="matrix(-1 0 0 1 -9866.9131 0)">
					<stop  offset="0" style="stop-color:#26439E"/>
					<stop  offset="1" style="stop-color:#395FC4"/>
				</linearGradient>
				<path fill="url(#SVGID_12_)" d="M104.144,167.983h59.313c3.035,0,5.495,2.46,5.495,5.495v17.781c0,3.035-2.46,5.495-5.495,5.495
					h-59.313c-3.035,0-5.495-2.46-5.495-5.495v-17.781C98.649,170.443,101.109,167.983,104.144,167.983z"/>
				<g>
					<path fill="#FFFFFF" d="M154.929,181.744L154.929,181.744c1.514,0,2.752-1.238,2.752-2.752v0c0-1.514-1.239-2.752-2.752-2.752
						l0,0c-1.514,0-2.752,1.239-2.752,2.752v0C152.177,180.506,153.415,181.744,154.929,181.744z"/>
					<path fill="#FFFFFF" d="M154.929,183.004c2.517,0,4.576,2.059,4.576,4.576h-9.152
						C150.353,185.063,152.412,183.004,154.929,183.004z"/>
				</g>
				<path fill="#FFFFFF" d="M130.309,186.61l-0.208,2.484l2.299-1.475c0.449,0.113,0.917,0.179,1.401,0.179
					c3.178,0,5.755-2.576,5.755-5.755s-2.576-5.755-5.755-5.755c-3.178,0-5.755,2.576-5.755,5.755
					C128.046,183.907,128.936,185.558,130.309,186.61z M131.57,183.549c0-0.244,0.2-0.444,0.444-0.444h3.427
					c0.244,0,0.444,0.2,0.444,0.444c0,0.244-0.2,0.444-0.444,0.444h-3.427C131.769,183.993,131.57,183.793,131.57,183.549z
					 M130.374,181.072c0-0.244,0.2-0.444,0.444-0.444h5.818c0.244,0,0.444,0.2,0.444,0.444c0,0.244-0.2,0.444-0.444,0.444h-5.818
					C130.574,181.515,130.374,181.316,130.374,181.072z"/>
			</g>
			<g>
				<path fill="#FFFFFF" d="M117.061,180.49c-0.899,0.009-0.937,0.009-1.277-0.066c-0.719-0.151,0.123-1.022-0.322-2.612
					c-0.445-1.599-1.996-1.504-1.921-0.757c0.076,0.738,0.085,2.612-0.435,3.075c-0.293,0.255-0.681,0.653-0.975,0.956
					c-0.265,0.274-0.625,0.435-1.003,0.435l-0.293-0.01l-0.028,3.984v0.246h0.009l1.646,0.01c0.795,0.899,2.318,1.06,2.318,1.06
					l1.949,0.009c0.852,0.01,1.58-0.662,1.684-1.571l0.341-2.716C118.887,181.445,118.083,180.48,117.061,180.49z"/>
				<polygon fill="#FFFFFF" points="109.413,179.916 106.451,179.899 106.451,187.412 109.413,187.429 				"/>
			</g>
		</g>
		<g>
			<g>
				<g>
					<path fill="#273E80" d="M48.319,217.032l-0.172,2.498c-0.065,0.944,0.647,1.761,1.591,1.826l9.991,0.13
						c0.527,0.036,0.727-0.661,0.266-0.917c-2.402-1.337-4.124-2.991-7.652-5.412L48.319,217.032z"/>
					
						<linearGradient id="SVGID_13_" gradientUnits="userSpaceOnUse" x1="-9749.4727" y1="-169.9438" x2="-9762.2813" y2="-169.9438" gradientTransform="matrix(-0.9976 -0.0688 -0.0688 0.9976 -9694.8701 -303.6884)">
						<stop  offset="0.0176" style="stop-color:#DCB370"/>
						<stop  offset="1" style="stop-color:#EACA94"/>
					</linearGradient>
					<path fill="url(#SVGID_13_)" d="M54.461,179.662l-2.117,35.492c0,0,2.563,2.127,1.796,2.438
						c-0.839,0.34-5.821-0.561-5.821-0.561l-3.953-38.812L54.461,179.662z"/>
				</g>
				<g>
					<path fill="#273E80" d="M57.263,217.032l-0.172,2.498c-0.065,0.944,0.647,1.761,1.59,1.826l9.991,0.13
						c0.527,0.036,0.727-0.661,0.266-0.917c-2.402-1.337-4.125-2.991-7.652-5.412L57.263,217.032z"/>
					
						<linearGradient id="SVGID_14_" gradientUnits="userSpaceOnUse" x1="-9758.3955" y1="-170.5592" x2="-9771.2041" y2="-170.5592" gradientTransform="matrix(-0.9976 -0.0688 -0.0688 0.9976 -9694.8701 -303.6884)">
						<stop  offset="0.0176" style="stop-color:#DCB370"/>
						<stop  offset="1" style="stop-color:#EACA94"/>
					</linearGradient>
					<path fill="url(#SVGID_14_)" d="M63.405,179.662l-2.117,35.492c0,0,2.562,2.127,1.796,2.438
						c-0.838,0.34-5.821-0.561-5.821-0.561L53.31,178.22L63.405,179.662z"/>
				</g>
				<g>
					
						<linearGradient id="SVGID_15_" gradientUnits="userSpaceOnUse" x1="-9947.8721" y1="110.5241" x2="-9928.8779" y2="110.5241" gradientTransform="matrix(-1 0 0 1 -9878.3105 0)">
						<stop  offset="0" style="stop-color:#26439E"/>
						<stop  offset="1" style="stop-color:#152665"/>
					</linearGradient>
					<path fill="url(#SVGID_15_)" d="M60.884,124.111c3.309-0.58,6.144-2.768,7.354-5.902c0.515-1.333,0.755-2.864,0.236-4.396
						c-1.685-4.974,1.602-6.819,1.016-9.36c-0.856-3.717-4.653-10.002-10.163-6.793c0,0-3.744-2.193-5.349,0.267
						c-1.605,2.46-2.46,5.937-1.551,8.077c0.909,2.14,1.365,3.371-0.695,5.937C48.684,115.739,51.58,125.742,60.884,124.111z"/>
					<path fill="#80E9CF" d="M47.522,127.047c-0.576,4.611,1.083,21.798,1.083,21.798H65.12c0,0-0.76-8.489,2.07-10.952
						c2.83-2.463,2.044-7.703,2.044-7.703s6.358,8.122,8.821,8.384c2.463,0.262,19.174-10.663,19.174-10.663l-1.651-2.699
						c0,0-13.384,6.218-14.799,5.956c-1.415-0.262-6.952-11.144-9.083-12.227c-2.131-1.083-10.009-3.581-10.009-3.581L56.5,114.89
						c0,0-10.934,1.956-12.821,2.585s-11.808,15.93-11.808,15.93l13.205,15.93l2.201-1.747l-7.161-13.694L47.522,127.047z"/>
					
						<linearGradient id="SVGID_16_" gradientUnits="userSpaceOnUse" x1="-9791.8574" y1="151.0265" x2="-9794.9053" y2="147.6241" gradientTransform="matrix(-1 0 0 1 -9744.9287 0)">
						<stop  offset="0.0176" style="stop-color:#DCB370"/>
						<stop  offset="1" style="stop-color:#EACA94"/>
					</linearGradient>
					<path fill="url(#SVGID_16_)" d="M47.278,147.588c0,0,3.301,2.201,2.148,4.349c-1.153,2.148-4.349-2.603-4.349-2.603
						L47.278,147.588z"/>
					
						<linearGradient id="SVGID_17_" gradientUnits="userSpaceOnUse" x1="-6653.8701" y1="8281.8857" x2="-6656.9175" y2="8278.4834" gradientTransform="matrix(-0.1032 0.9947 0.9947 0.1032 -8825.6309 5889.9927)">
						<stop  offset="0.0176" style="stop-color:#DCB370"/>
						<stop  offset="1" style="stop-color:#EACA94"/>
					</linearGradient>
					<path fill="url(#SVGID_17_)" d="M95.655,125.378c0,0,2.53-3.057,4.548-1.688s-3.037,4.057-3.037,4.057L95.655,125.378z"/>
					
						<linearGradient id="SVGID_18_" gradientUnits="userSpaceOnUse" x1="-9806.7578" y1="113.2288" x2="-9801.4912" y2="113.2288" gradientTransform="matrix(-1 0 0 1 -9744.9287 0)">
						<stop  offset="0.0176" style="stop-color:#DCB370"/>
						<stop  offset="1" style="stop-color:#EACA94"/>
					</linearGradient>
					<polygon fill="url(#SVGID_18_)" points="61.829,112.485 61.829,115.476 59.574,117.902 56.563,114.891 56.563,108.556 					"/>
					
						<linearGradient id="SVGID_19_" gradientUnits="userSpaceOnUse" x1="-9811.541" y1="108.237" x2="-9799.958" y2="108.237" gradientTransform="matrix(-1 0 0 1 -9744.9287 0)">
						<stop  offset="0.0176" style="stop-color:#DCB370"/>
						<stop  offset="1" style="stop-color:#EACA94"/>
					</linearGradient>
					<path fill="url(#SVGID_19_)" d="M66.613,105.258c0,0-0.105,7.977-4.992,8.056c-4.849,0.078-4.999-3.969-4.999-3.969
						s-1.301-0.352-1.564-2.092c-0.196-1.29,0.665-2.385,1.857-1.408c0,0,2.112-1.707,2.503-2.685
						C59.418,103.159,65.244,105.571,66.613,105.258z"/>
					
						<linearGradient id="SVGID_20_" gradientUnits="userSpaceOnUse" x1="-9784.457" y1="193.102" x2="-9817.5742" y2="158.7274" gradientTransform="matrix(-1 0 0 1 -9744.9287 0)">
						<stop  offset="0" style="stop-color:#5D9BE3"/>
						<stop  offset="1" style="stop-color:#75C6F4"/>
					</linearGradient>
					<path fill="url(#SVGID_20_)" d="M65.12,148.845c0,0,5.109,7.476,4.899,15.58c-0.21,8.105-2.515,34.584-2.515,34.584H44.448
						c0,0-1.84-34.557-0.978-37.274c2.725-8.594,5.03-12.89,5.03-12.89H65.12z"/>
				</g>
				<path opacity="0.48" fill="#AB132C" d="M63.101,148.845c-0.117-2.042-0.381-9.695,2.091-11.376
					c2.858-1.943,4.042-7.279,4.042-7.279s0.786,5.24-2.044,7.703c-2.83,2.463-2.07,10.952-2.07,10.952H63.101z"/>
				<path opacity="0.54" fill="#5891C2" d="M67.249,167.077c0.686-6.973-4.115-17.719-4.115-17.719s-0.015-0.194-0.033-0.513h2.019
					c0,0,5.109,7.476,4.899,15.58c-0.21,8.105-2.515,34.584-2.515,34.584h-1.359C66.269,192.495,66.68,172.864,67.249,167.077z"/>
			</g>
			<g>
				
					<linearGradient id="SVGID_22_" gradientUnits="userSpaceOnUse" x1="-9954.3545" y1="216.6258" x2="-9994.5039" y2="154.7281" gradientTransform="matrix(-1 0 0 1 -9762.7529 0)">
					<stop  offset="0" style="stop-color:#26439E"/>
					<stop  offset="1" style="stop-color:#395FC4"/>
				</linearGradient>
				<path fill="url(#SVGID_22_)" d="M195.65,217.244l5.738,0.073l1.054-33.888l9.442-16.886l0.59,4.909
					c-0.201,0.604,6.097,41.466,6.644,45.012h5.509c0.149-1.036,0.842-4.794,2.084-17.416c1.614-16.383,0.424-37.139-0.1-44.614
					c-2.343,0.392-17.192,2.691-27.211-0.584c-1.664,3.87-8.163,19.074-8.347,20.791C190.841,176.608,195.65,217.244,195.65,217.244
					z"/>
				
					<linearGradient id="SVGID_23_" gradientUnits="userSpaceOnUse" x1="-9993.6953" y1="167.8574" x2="-9959.1631" y2="100.6851" gradientTransform="matrix(-1 0 0 1 -9762.7529 0)">
					<stop  offset="0" style="stop-color:#5D9BE3"/>
					<stop  offset="1" style="stop-color:#75C6F4"/>
				</linearGradient>
				<path fill="url(#SVGID_23_)" d="M198.901,130.167l0.184,23.579c10.898,3.726,27.842,0.633,27.842,0.633l-0.429-16.084
					c0,0,5.308-1.055,6.996-1.406c1.687-0.352,1.589-18.577-2.7-21.53c-4.289-2.953-13.923-2.828-13.923-2.828l-8.715,0.261
					c0,0-7.312,1.722-9.421,2.988c-2.109,1.266-7.443,8.412-8.226,8.999c-0.844,0.633-12.181-15.081-12.181-15.081l-3.287,2.215
					c0,0,12.192,25.842,14.765,25.451C191.774,137.065,198.901,130.167,198.901,130.167z"/>
				<path fill="#80E9CF" d="M198.901,130.167l0.184,23.579c10.898,3.726,27.842,0.633,27.842,0.633l-0.429-16.084
					c0,0,5.308-1.055,6.996-1.406c1.687-0.352,1.589-18.577-2.7-21.53c-4.289-2.953-13.923-2.828-13.923-2.828l-8.715,0.261
					c0,0-7.312,1.722-9.421,2.988c-2.109,1.266-7.443,8.412-8.226,8.999c-0.844,0.633-12.181-15.081-12.181-15.081l-3.287,2.215
					c0,0,12.192,25.842,14.765,25.451C191.774,137.065,198.901,130.167,198.901,130.167z"/>
				<path fill="#FFFFFF" d="M207.237,124.989h14.749c0.743,0,1.345,0.602,1.345,1.345v18.204c0,0.743-0.602,1.345-1.345,1.345
					h-14.749c-0.743,0-1.345-0.602-1.345-1.345v-18.204C205.892,125.591,206.494,124.989,207.237,124.989z"/>
				<g>
					
						<linearGradient id="SVGID_24_" gradientUnits="userSpaceOnUse" x1="-10097.7168" y1="101.9039" x2="-10083.0811" y2="101.9039" gradientTransform="matrix(-1 0 0 1 -9878.3105 0)">
						<stop  offset="0" style="stop-color:#26439E"/>
						<stop  offset="1" style="stop-color:#152665"/>
					</linearGradient>
					<path fill="url(#SVGID_24_)" d="M205.472,103.707c0.01-1.24,0.145-2.14,0.145-2.14c3.773,1.457,7.535-0.186,7.535-0.186
						c1.313,1.871,2.605,1.726,2.605,1.726c1.488-1.22,2.016,0.331,1.778,1.736c-0.165,0.941-0.641,1.199-0.941,1.282v3.132
						c0.269-0.207,1.798-1.385,2.553-3.597c0.816-2.429-0.165-10.667-4.775-9.716c0,0-1.395-2.14-4.94-1.116
						C205.906,95.862,203.518,99.262,205.472,103.707z"/>
					
						<linearGradient id="SVGID_25_" gradientUnits="userSpaceOnUse" x1="-9975.3154" y1="116.4491" x2="-9975.7686" y2="111.5135" gradientTransform="matrix(-1 0 0 1 -9762.7529 0)">
						<stop  offset="0" style="stop-color:#EACA94"/>
						<stop  offset="0.9824" style="stop-color:#DCB370"/>
					</linearGradient>
					<path fill="url(#SVGID_25_)" d="M209.39,111.127v1.725l2.489,3.372c0.129,0.16,0.365,0.177,0.517,0.039l4.197-3.833v-6.299
						c-0.15,0.04-0.257,0.03-0.257,0.03C215.879,109.405,212.782,112.078,209.39,111.127z"/>
					
						<linearGradient id="SVGID_26_" gradientUnits="userSpaceOnUse" x1="-9968.0527" y1="110.0727" x2="-9975.9092" y2="102.7926" gradientTransform="matrix(-1 0 0 1 -9762.7529 0)">
						<stop  offset="0.0176" style="stop-color:#DCB370"/>
						<stop  offset="1" style="stop-color:#EACA94"/>
					</linearGradient>
					<path fill="url(#SVGID_26_)" d="M205.617,101.568c0,0-1.243,7.893,3.51,9.479c3.494,1.166,6.741-1.56,7.208-4.887
						c0,0,0.954,0.091,1.196-1.317c0.242-1.408-0.288-2.952-1.771-1.741c0,0-1.294,0.154-2.611-1.726
						C213.149,101.376,209.39,103.022,205.617,101.568z"/>
				</g>
				
					<linearGradient id="SVGID_27_" gradientUnits="userSpaceOnUse" x1="-9940.0137" y1="111.966" x2="-9937.2109" y2="106.5127" gradientTransform="matrix(-1 0 0 1 -9762.7529 0)">
					<stop  offset="0.0176" style="stop-color:#DCB370"/>
					<stop  offset="1" style="stop-color:#EACA94"/>
				</linearGradient>
				<path fill="url(#SVGID_27_)" d="M178.117,109.927c0,0-2.18-4.465-3.726-3.392c-1.547,1.072,0.861,5.203,0.861,5.203
					L178.117,109.927z"/>
				
					<linearGradient id="SVGID_28_" gradientUnits="userSpaceOnUse" x1="-9000.3486" y1="6642.394" x2="-8997.5449" y2="6636.9409" gradientTransform="matrix(-0.4777 0.8785 0.8785 0.4777 -9924.7441 4870.23)">
					<stop  offset="0.0176" style="stop-color:#DCB370"/>
					<stop  offset="1" style="stop-color:#EACA94"/>
				</linearGradient>
				<path fill="url(#SVGID_28_)" d="M208.683,134.769c0,0-4.963-0.218-4.76,1.653c0.203,1.871,4.982,1.729,4.982,1.729
					L208.683,134.769z"/>
				<path fill="#152665" d="M224.253,216.425c0,0.156,3.954,3.814,3.496,5.916c-0.458,2.102-6.153,1.626-6.945,0.958
					c-1.29-1.09-1.713-3.643-1.38-6.835L224.253,216.425z"/>
				<path fill="#152665" d="M189.401,222.026c-0.833,0-1.197-1.076-0.52-1.561c0.006-0.005,0.012-0.009,0.019-0.013
					c1.086-0.763,5.81-2.867,7.044-3.209l5.298,0.05c0.057,0.862,0.034,2.518-0.115,3.711c-0.073,0.582-0.563,1.021-1.15,1.021
					H189.401z"/>
				<path fill="#80E9CF" d="M208.715,134.5c0,0,16.488-2.622,17.352-3.794c0.864-1.172-1.049-14.56-1.049-14.56l6.393-0.227
					c3.677,4.186,3.686,20.636,2.083,20.97c-1.687,0.352-6.996,1.406-6.996,1.406s-0.149,0.016-0.421,0.045
					c-2.093,0.223-13.477,0.178-17.41,0.233L208.715,134.5z"/>
				<path opacity="0.65" fill="#5D9BE3" d="M208.668,138.573c0,0,15.671,2.168,15.919,2.745c0.186,0.437,0.303,9.176,0.348,13.373
					c1.259-0.178,1.993-0.312,1.993-0.312l-0.43-16.084c0,0-0.149,0.017-0.42,0.045
					C223.984,138.562,212.601,138.517,208.668,138.573z"/>
				<path fill="#5D9BE3" d="M223.367,131.77l0.602-10.195c0,0,1.727,5.614,1.851,9.871L223.367,131.77z"/>
				<path opacity="0.51" fill="#26439E" d="M211.884,166.543l-9.441,16.885l-1.055,33.888l-0.663-0.008
					c-0.98-9.246-3.314-32.822-1.928-35.395C200.525,178.705,211.884,166.543,211.884,166.543z"/>
				<path opacity="0.51" fill="#26439E" d="M226.597,154.226c0.517,7.292,1.743,28.284,0.115,44.821
					c-1.243,12.622-1.937,16.381-2.085,17.416h-1.908c3.658-10.865,2.216-61.772,2.216-61.772L226.597,154.226z"/>
			</g>
		</g>
	</g>
	<path fill="#FFFFFF" d="M130.647,3.141c20.6,0,37.359,16.759,37.359,37.358s-16.759,37.358-37.359,37.358
		S93.289,61.098,93.289,40.499S110.048,3.141,130.647,3.141z"/>
	<path opacity="0.6" fill="#3CC85E" d="M130.374,0c-22.515,0-40.832,18.317-40.832,40.832s18.317,40.832,40.832,40.832
		s40.832-18.317,40.832-40.832S152.889,0,130.374,0z M130.374,4.81c19.863,0,36.022,16.159,36.022,36.021
		s-16.16,36.021-36.022,36.021S94.353,60.694,94.353,40.832S110.511,4.81,130.374,4.81z M118.27,46.141
		c-0.318-0.458-0.441-1.024-0.342-1.573s0.412-1.036,0.871-1.355l0.497-0.345c0.955-0.66,2.264-0.425,2.926,0.529l2.856,4.113
		l15.179-19.675c0.71-0.92,2.031-1.089,2.95-0.381l0.478,0.369c0.919,0.709,1.09,2.03,0.38,2.949l-17.437,22.603
		c-0.398,0.517-1.014,0.819-1.665,0.819c-0.017,0-0.035,0-0.053-0.001c-0.67-0.016-1.292-0.352-1.675-0.902L118.27,46.141z"/>
</g>
</svg>
