<?xml version="1.0" encoding="utf-8"?>
<!-- Generator: Adobe Illustrator 22.1.0, SVG Export Plug-In . SVG Version: 6.00 Build 0)  -->
<svg version="1.1" id="Capa_1" xmlns="http://www.w3.org/2000/svg" xmlns:xlink="http://www.w3.org/1999/xlink" x="0px" y="0px"
	 width="294.072px" height="231.19px" viewBox="0 0 294.072 231.19" enable-background="new 0 0 294.072 231.19"
	 xml:space="preserve">
<g>
	<g>
		<g opacity="0.6">
			<ellipse opacity="0.37" fill="#5891C2" cx="147.036" cy="223.875" rx="147.036" ry="7.315"/>
			<g>
				<g>
					<g>
						
							<linearGradient id="SVGID_1_" gradientUnits="userSpaceOnUse" x1="-8681.7578" y1="5882.9111" x2="-8629.2441" y2="5825.2944" gradientTransform="matrix(-0.4905 0.8714 0.8714 0.4905 -9273.165 4869.9019)">
							<stop  offset="0" style="stop-color:#5D9BE3"/>
							<stop  offset="1" style="stop-color:#75C6F4"/>
						</linearGradient>
						<path fill="url(#SVGID_1_)" d="M79.57,197.167c-2.384-2.779-4.689-5.681-7.618-7.879c-2.693-2.021-6.904-3.209-9.146-0.697
							c-2.174,2.436-0.746,6.247,0.768,9.139c-6.094-4.252-12.443-8.2-19.277-11.119c-3.382-1.445-7.07-2.651-10.688-1.991
							c-3.618,0.66-7.022,3.776-6.804,7.447c0.217,3.649,3.703,6.239,7.139,7.487c3.436,1.248,7.22,1.746,10.235,3.813
							c-2.378,0.599-5.209,1.672-5.568,4.098c-0.324,2.193,1.789,4.097,3.96,4.542c2.172,0.445,4.398-0.205,6.613-0.3
							c12.305-0.532,3.744,3.988,3.001,5.441c-0.742,1.453-0.919,3.307-0.021,4.669c1.02,1.548,3.053,2.025,4.897,2.209c0,0,0,0,0,0
							c11.077,1.102,38.507-6.771,39.485-8.292C97.884,213.654,83.557,201.814,79.57,197.167z"/>
					</g>
					<path fill="#19264F" d="M109.715,219.452c0.022-0.038,0.026-0.088,0.01-0.124c-0.007-0.016-0.022-0.041-0.069-0.053
						c-6.22-1.576-10.999-2.827-15.498-4.06c-4.178-1.144-8.015-2.247-11.728-3.371l-0.074-0.022l-0.038-0.068
						c-1.329-2.377-2.978-4.607-4.573-6.763l-0.228-0.308c-1.474-1.996-2.999-4.06-4.765-5.816c-0.035-0.035-0.059-0.031-0.069-0.03
						c-0.033,0.005-0.069,0.033-0.09,0.07c-0.04,0.071,0.003,0.113,0.017,0.127c1.823,1.813,3.382,3.935,4.889,5.989l0.255,0.347
						c1.322,1.798,2.82,3.836,4.051,5.936l0.249,0.425l-0.471-0.144c-15.674-4.783-28.922-9.972-40.5-15.862
						c-0.079-0.04-0.124,0.014-0.145,0.05c-0.017,0.03-0.023,0.064-0.016,0.089c0.003,0.007,0.009,0.029,0.049,0.049
						c4.717,2.4,9.674,4.677,14.734,6.767c1.53,0.632,3.203,1.298,5.115,2.036l0.662,0.272l-0.728,0.099
						c-3.976,0.061-7.863,0.285-11.553,0.668c-0.041,0.004-0.068,0.021-0.085,0.052c-0.024,0.043-0.024,0.106,0,0.142
						c0.007,0.011,0.02,0.031,0.072,0.026c4.133-0.428,8.491-0.658,12.952-0.684l0.061-0.017l0.098,0.015
						c8.343,3.161,17.657,6.173,28.474,9.211l1.241,0.32l-1.291,0.058l-1.109,0.007c-3.857,0.026-7.846,0.051-11.755,0.31
						c-4.275,0.284-8.761,0.939-14.122,2.062c-0.017,0.014-0.029,0.028-0.037,0.042c-0.021,0.038-0.012,0.076,0.012,0.109
						c0.032,0.043,0.075,0.06,0.126,0.049c5.414-1.135,9.982-1.791,14.377-2.065c3.815-0.238,7.702-0.263,11.46-0.288
						c1.016-0.007,2.032-0.013,3.048-0.024l0.043-0.008l0.073,0.009c4.857,1.342,10.187,2.744,16.773,4.413
						C109.649,219.5,109.687,219.502,109.715,219.452z"/>
				</g>
				<g>
					<g>
						<g>
							
								<linearGradient id="SVGID_2_" gradientUnits="userSpaceOnUse" x1="-9280.6455" y1="240.5608" x2="-9234.6523" y2="164.808" gradientTransform="matrix(-1 0 0 1 -9170.6143 0)">
								<stop  offset="0" style="stop-color:#26439E"/>
								<stop  offset="1" style="stop-color:#395FC4"/>
							</linearGradient>
							<path fill="url(#SVGID_2_)" d="M97.768,177.096c-0.439-2.531-0.949-5.213-2.686-7.105c-1.737-1.892-5.149-2.474-6.775-0.486
								c-1.199,1.466-0.967,3.578-1.146,5.463c-0.18,1.886-1.407,4.106-3.287,3.876c-2.222-0.273-2.515-3.335-2.345-5.567
								c0.431-5.662-0.093-11.395-1.543-16.884c-0.639-2.417-1.577-4.953-3.634-6.373c-2.057-1.42-5.5-0.988-6.345,1.364
								c-0.733,2.041,0.584,4.819-1.07,6.222c-1.052,0.893-2.759,0.5-3.736-0.474c-0.977-0.974-1.408-2.354-1.809-3.674
								c-1.544-5.085-3.329-10.443-7.408-13.847c-4.08-3.405-11.205-3.691-14.057,0.792c-2.094,3.291-0.76,8.253,2.702,10.05
								c-3.058-0.846-6.27,1.986-6.596,5.143c-0.326,3.157,1.586,6.2,4.099,8.138c2.513,1.938,5.574,2.993,8.543,4.114
								c1.671,0.631,3.421,1.36,4.473,2.802s1.027,3.816-0.508,4.729c-0.838,0.498-1.879,0.449-2.823,0.69
								c-2.644,0.676-4.194,3.677-3.978,6.397c0.216,2.721,1.804,5.145,3.628,7.176c4.226,4.707,10.011,7.989,16.22,9.202
								c1.262,0.246,2.586,0.428,3.653,1.145c1.067,0.718,1.77,2.179,1.175,3.319c-0.4,0.766-1.269,1.196-1.684,1.954
								c-1.099,2.009,1.547,3.949,3.699,4.731l0,0c6.266,2.277,12.533,4.553,18.799,6.83c4.537,1.649,11.893,5.908,11.012-1.802
								C102.892,202.339,99.893,189.684,97.768,177.096z"/>
						</g>
						<path opacity="0.51" fill="#26439E" d="M64.541,186.099c9.776,5.495,18.984,11.934,27.501,19.221
							c-10.454-13.088-20.294-26.665-29.463-40.687c-0.757-1.158-1.508-2.319-2.255-3.483c-3.855-2.414-8.009-4.232-12.395-5.435
							c-0.402-0.11-0.184-0.719,0.215-0.61c4.007,1.099,7.819,2.718,11.392,4.817c-3.314-5.188-6.537-10.432-9.672-15.731
							c-0.211-0.357,0.377-0.627,0.587-0.272c6.988,11.812,14.437,23.349,22.315,34.584c0.382-5.461,0.764-10.921,1.146-16.382
							c0.029-0.416,0.674-0.362,0.645,0.054c-0.4,5.709-0.799,11.418-1.199,17.127c-0.001,0.014-0.004,0.026-0.007,0.038
							c7.632,10.84,15.671,21.394,24.097,31.632c-2.498-10.581-4.425-21.286-5.761-32.076c-0.051-0.411,0.586-0.526,0.637-0.112
							c1.388,11.207,3.407,22.324,6.047,33.303c0.607,0.733,1.21,1.468,1.82,2.198c2.263,2.704,4.555,5.384,6.872,8.042
							l-0.489,0.414c-4.221-4.847-8.357-9.769-12.4-14.765c-0.044-0.009-0.089-0.029-0.133-0.068
							c-9.168-8.139-19.18-15.272-29.867-21.279C63.813,186.429,64.181,185.896,64.541,186.099z"/>
					</g>
				</g>
			</g>
		</g>
	</g>
	<g opacity="0.6">
		<g>
			<g>
				<path fill="#C6D8FD" d="M180.577,221.166h-67.491c-8.038,0-14.615-6.577-14.615-14.615V31.511
					c0-8.038,6.577-14.615,14.615-14.615h67.491c8.038,0,14.615,6.577,14.615,14.615v175.039
					C195.192,214.589,188.615,221.166,180.577,221.166z"/>
				<path fill="#C6D8FD" d="M193.707,76.157h-3.739c-2.205,0-4.01-1.804-4.01-4.01V55.333c0-2.205,1.804-4.01,4.01-4.01h3.739
					c2.205,0,4.01,1.804,4.01,4.01v16.814C197.717,74.353,195.912,76.157,193.707,76.157z"/>
				<path fill="#C6D8FD" d="M194.705,97.33h-5.735c-1.656,0-3.012-1.355-3.012-3.012v-7.987c0-1.656,1.355-3.012,3.012-3.012h5.735
					c1.656,0,3.012,1.355,3.012,3.012v7.987C197.717,95.974,196.361,97.33,194.705,97.33z"/>
				<rect x="92.77" y="32.832" fill="#DEE7FD" width="0.67" height="8.861"/>
				<rect x="92.77" y="44.151" fill="#DEE7FD" width="0.67" height="2.776"/>
				<path opacity="0.6" fill="#2F54C6" d="M177.222,221.166h-67.491c-8.038,0-14.615-6.577-14.615-14.615V31.511
					c0-8.038,6.577-14.615,14.615-14.615h67.491c8.038,0,14.615,6.577,14.615,14.615v175.04
					C191.837,214.589,185.26,221.166,177.222,221.166z"/>
				<path fill="#2F54C6" d="M147.836,211.812c0,2.408-1.952,4.359-4.359,4.359s-4.359-1.952-4.359-4.359
					c0-2.407,1.952-4.359,4.359-4.359S147.836,209.404,147.836,211.812z"/>
				<rect x="95.116" y="28.153" fill="#DEE7FD" width="96.721" height="175.541"/>
				<rect x="95.116" y="28.153" fill="#DEE7FD" width="96.721" height="175.541"/>
				<path fill="#FFFFFF" d="M173.581,90.325h-60.208c-5.464,0-9.935-4.471-9.935-9.935v-33.3c0-5.464,4.471-9.935,9.935-9.935
					h60.208c5.464,0,9.935,4.471,9.935,9.935v33.3C183.516,85.855,179.045,90.325,173.581,90.325z"/>
				
					<ellipse transform="matrix(0.9226 -0.3858 0.3858 0.9226 -10.1124 48.468)" fill="#DEE7FD" cx="115.714" cy="49.432" rx="8.867" ry="8.867"/>
				<path fill="#FFFFFF" d="M123.033,49.431c0,1.264-0.321,2.45-0.884,3.486c-1.234,2.281-3.652,3.832-6.434,3.832
					c-2.782,0-5.199-1.551-6.434-3.832c-0.564-1.036-0.884-2.222-0.884-3.486c0-4.043,3.276-7.318,7.318-7.318
					C119.757,42.112,123.033,45.388,123.033,49.431z"/>
				<path fill="#C6D8FD" d="M122.148,52.917c-1.234,2.281-3.652,3.832-6.434,3.832c-2.782,0-5.199-1.551-6.434-3.832
					c1.842-1.231,4.054-1.949,6.434-1.949C118.095,50.967,120.306,51.686,122.148,52.917z"/>
				<circle fill="#C6D8FD" cx="115.714" cy="46.927" r="3.26"/>
				<path fill="#FFFFFF" d="M176.186,113.85h-65.418c-4.032,0-7.33-3.299-7.33-7.33v-3.952c0-4.032,3.299-7.33,7.33-7.33h65.418
					c4.031,0,7.33,3.299,7.33,7.33v3.952C183.516,110.552,180.217,113.85,176.186,113.85z"/>
				<path fill="#2F54C6" d="M132.379,22.077c0-0.851,0.69-1.542,1.542-1.542s1.542,0.69,1.542,1.542c0,0.852-0.69,1.542-1.542,1.542
					S132.379,22.928,132.379,22.077z"/>
				<path fill="#2F54C6" d="M139.247,20.535h12.809c0.848,0,1.542,0.694,1.542,1.542l0,0c0,0.848-0.694,1.542-1.542,1.542h-12.809
					c-0.848,0-1.542-0.694-1.542-1.542l0,0C137.705,21.229,138.399,20.535,139.247,20.535z"/>
			</g>
			<g>
				<path opacity="0.6" fill="#2F54C6" d="M195.123,115.651l9.467,26.1c0.513,1.414-0.224,2.989-1.638,3.502l-49.686,18.023
					c-1.413,0.513-2.989-0.224-3.502-1.638l-9.467-26.1c-0.268-0.739-0.194-1.524,0.138-2.178c0.306-0.593,0.825-1.08,1.5-1.324
					l49.686-18.023c0.675-0.245,1.385-0.204,2,0.055C194.295,114.357,194.855,114.913,195.123,115.651z"/>
				<path fill="#A9C4FC" d="M193.62,114.069l-14.198,23.372c-2.712,4.464-8.164,6.441-13.107,4.754l-25.88-8.834
					c0.306-0.593,0.825-1.08,1.5-1.324l49.686-18.023C192.295,113.769,193.005,113.809,193.62,114.069z"/>
			</g>
			<g>
				<path opacity="0.6" fill="#2F54C6" d="M179.54,160.505l-0.455,23.512c-0.025,1.273-1.087,2.295-2.36,2.27l-44.76-0.866
					c-1.273-0.025-2.295-1.087-2.27-2.36l0.455-23.512c0.013-0.666,0.31-1.264,0.772-1.68c0.422-0.376,0.981-0.603,1.588-0.591
					l44.76,0.866c0.608,0.012,1.157,0.26,1.564,0.652C179.279,159.23,179.553,159.84,179.54,160.505z"/>
				<path fill="#A9C4FC" d="M178.833,158.797l-18.333,14.157c-3.501,2.704-8.413,2.609-11.807-0.228l-17.772-14.856
					c0.422-0.376,0.981-0.603,1.588-0.591l44.76,0.866C177.877,158.157,178.426,158.405,178.833,158.797z"/>
			</g>
			<g>
				<defs>
					<rect id="SVGID_382_" x="95.116" y="28.153" width="96.721" height="175.541"/>
				</defs>
				<clipPath id="SVGID_4_">
					<use xlink:href="#SVGID_382_"  overflow="visible"/>
				</clipPath>
				<g clip-path="url(#SVGID_4_)">
					<path fill="#1E2A4C" d="M151.384,68.501c0-4.021-1.34-19.845,5.25-21.186c2.085-2.197,12.411-2.422,14,3.165
						c2.085,7.335-1.005,25.244-1.005,25.244L151.384,68.501"/>
					<path fill="#1E2A4C" d="M170.997,75.762c-0.007,0-0.014,0-0.02-0.001c-0.092-0.011-0.157-0.095-0.146-0.187
						c0.022-0.18,2.176-18.084-0.226-25.189c-0.656-1.941-2.535-3.305-5.293-3.841c-3.596-0.7-7.485,0.173-8.559,1.422
						c-0.06,0.07-0.166,0.078-0.236,0.018c-0.07-0.06-0.078-0.166-0.018-0.236c1.256-1.461,5.485-2.192,8.877-1.533
						c2.88,0.56,4.85,2.003,5.547,4.063c2.426,7.177,0.263,25.156,0.241,25.337C171.153,75.699,171.081,75.762,170.997,75.762z"/>
					<path fill="#E4897B" d="M165.085,79.501l0.163,0.358l0.205,0.421c0.137,0.284,0.289,0.575,0.442,0.861
						c0.315,0.572,0.643,1.145,1.007,1.697c0.704,1.12,1.481,2.203,2.328,3.229c0.864,1.01,1.769,1.987,2.742,2.898
						c0.5,0.437,0.988,0.894,1.51,1.308l0.786,0.62l0.186,0.147c0,0,0.014,0.018-0.003,0.008c-0.023-0.004-0.103-0.041-0.262-0.054
						c-0.164-0.022-0.392,0.006-0.567,0.083c-0.169,0.065-0.257,0.144-0.286,0.185c-0.043,0.063,0.074-0.039,0.175-0.214
						c0.22-0.361,0.443-0.943,0.622-1.542c0.374-1.22,0.631-2.59,0.865-3.964c0.233-1.38,0.416-2.79,0.566-4.207
						c0.177-1.413,0.301-2.854,0.438-4.262l2.583-0.038c0.162,1.491,0.231,2.95,0.293,4.435c0.032,1.48,0.03,2.965-0.031,4.47
						c-0.071,1.508-0.205,3.019-0.526,4.616c-0.178,0.803-0.378,1.619-0.815,2.553c-0.232,0.467-0.513,0.985-1.086,1.545
						c-0.301,0.28-0.694,0.563-1.201,0.761c-0.518,0.198-1.114,0.26-1.638,0.196c-0.518-0.066-0.944-0.227-1.288-0.397
						c-0.18-0.087-0.314-0.175-0.47-0.269l-0.255-0.171l-0.973-0.66c-0.648-0.442-1.26-0.934-1.873-1.424
						c-1.203-1.008-2.341-2.095-3.384-3.269c-1.032-1.183-1.999-2.424-2.861-3.744c-0.431-0.66-0.825-1.346-1.206-2.045
						c-0.187-0.354-0.374-0.705-0.546-1.076l-0.254-0.564c-0.088-0.202-0.156-0.365-0.262-0.643L165.085,79.501z"/>
					<polygon fill="#DEE7FD" points="167.353,82.966 162.847,89.177 164.709,91.008 169.505,85.243 					"/>
					<path fill="#A9C4FC" d="M160.29,74.767c5.072,1.365,8.569,8.456,8.569,8.456L163,91.436c0,0-7.039-8.855-6.869-11.671
						C156.309,76.833,157.233,73.945,160.29,74.767z"/>
					<path fill="#E4897B" d="M176.077,77.722l-1.34-5.335l5.117,1.492c0,0-0.146,3.602-1.91,4.779L176.077,77.722z"/>
					<polygon fill="#E4897B" points="176.348,68.056 179.941,69.872 179.854,73.879 174.737,72.387 					"/>
					<path fill="#E4897B" d="M112.11,70.031l-4.683-2.885l4.706-2.504c0,0,2.409,2.681,1.968,4.755L112.11,70.031z"/>
					<polygon fill="#E4897B" points="105.558,62.919 109.399,61.712 112.133,64.642 107.427,67.146 					"/>
					<polygon fill="#E4897B" points="109.696,199.467 114.624,199.949 119.751,188.221 114.823,187.74 					"/>
					<polygon fill="#E4897B" points="59.691,163.565 62.502,167.821 73.263,162.68 70.452,158.424 					"/>
					<path fill="#26395A" d="M63.68,167.377l-1.671-5.482c-0.061-0.199-0.249-0.319-0.452-0.288l-4.527,0.697
						c-0.47,0.072-0.777,0.589-0.629,1.047c0.615,1.901,1.008,2.788,1.743,5.199c0.452,1.483,1.234,4.83,1.858,6.878
						c0.61,2.003,2.683,1.54,2.606,0.631c-0.343-4.074,0.331-6.157,1.021-7.775C63.753,167.993,63.769,167.669,63.68,167.377z"/>
					<path fill="#26395A" d="M115.278,198.426h-6.051c-0.22,0-0.419,0.153-0.478,0.368l-1.316,4.788
						c-0.136,0.497,0.229,0.967,0.738,0.958c2.115-0.036,3.147-0.16,5.808-0.16c1.637,0,5.869,0.17,8.129,0.17
						c2.211,0,2.674-2.235,1.759-2.438c-4.102-0.908-6.467-2.16-7.733-3.354C115.907,198.542,115.6,198.426,115.278,198.426z"/>
					<polygon fill="#CE6F64" points="119.748,188.224 117.107,194.27 111.967,194.27 114.819,187.743 					"/>
					<polygon fill="#CE6F64" points="70.448,158.424 73.26,162.682 67.712,165.33 64.9,161.072 					"/>
					<path fill="#A9C4FC" d="M164.688,77.391c0,0,1.665,1.966-17.652,25.341c-7.095-4.152-14.428-8.442-17.881-10.463
						c4.558-7.102,7.192-11.584,12.453-28.554c0,0,4.223,1.377,8.178,3.442c5.354,2.796,7.821,4.538,8.119,4.751
						C161.207,74.267,164.688,77.391,164.688,77.391z"/>
					<path fill="#E4897B" d="M155.941,58.486c-1.016,2.912-3.306,7.998-6.154,8.672c0,0-0.836,3.068,4.018,5.908
						c5.338,3.123,4.101-1.157,4.101-1.157c-2.506-2.4-1.166-4.518,0.529-6.251L155.941,58.486z"/>
					<g>
						<path fill="#E4897B" d="M162.344,75.373c-1.258-1.051-2.87-2.344-4.437-3.467c-2.505-1.792-5.029-3.136-8.121-4.752
							c-1.582-0.829-3.203-1.548-4.583-2.102c-0.222,0.37-0.042,1.497,0.638,3.148c2.573,3.318,8.548,8.201,13.535,9.17
							C161.694,77.039,162.422,76.304,162.344,75.373z"/>
						<path fill="#DEE7FD" d="M145.84,68.201c0.932,2.262,2.809,5.513,5.933,9.196c3.532,0.245,5.962,0.209,7.602-0.026
							C154.389,76.402,148.414,71.519,145.84,68.201z"/>
					</g>
					<path fill="#CE6F64" d="M156.957,61.411l1.477,4.243c-0.403,0.409-0.783,0.841-1.094,1.295
						c-1.019-0.812-2.113-2.79-1.549-4.025C156.073,62.308,156.704,61.626,156.957,61.411z"/>
					<path fill="#E4897B" d="M155.993,52.693c-1.386,4.869-2.077,6.9-0.531,10.194c2.325,4.955,8.608,5.593,11.421,1.236
						c2.532-3.921,4.373-11.225,0.376-14.765C163.321,45.871,157.379,47.824,155.993,52.693z"/>
					<path fill="#1E2A4C" d="M154.567,55.749c3.462,1.291,11.607-3.007,13.823-5.641c0.298-4.058-9.224-2.457-9.224-2.457
						S154.083,46.105,154.567,55.749z"/>
					<path fill="#E4897B" d="M153.738,56.733c-0.25,1.019-0.005,2.059,0.454,2.789c0.691,1.098,1.904,0.69,2.44-0.416
						c0.482-0.996,0.703-2.768-0.34-3.484C155.264,54.915,154.024,55.567,153.738,56.733z"/>
					<path fill="#2F54C6" d="M147.036,102.731c0,0,0.293,45.924-7.852,59.181c-8.471,13.789-19.517,30.598-19.517,30.598
						l-9.56-0.462c0,0,11.151-24.878,15.358-36.423c5.799-15.916,8.477-60.555,8.477-60.555L147.036,102.731z"/>
					<path fill="#2C4EA5" d="M136.863,104.002c-1.266,0.933-2.64,2.647-3.946,4.592c-0.297,3.413-0.66,7.258-1.091,11.279
						C134.741,115.924,137.049,108.973,136.863,104.002z"/>
					<path fill="#2F54C6" d="M142.314,99.969c0,0-20.236,28.722-32.852,44.201c-10.19,12.502-39.68,21.431-39.68,21.431
						l-3.597-6.035c0,0,23.461-13.092,30.457-21.551c22.393-27.074,22.116-41.117,32.513-45.745L142.314,99.969z"/>
					<path fill="#26395A" d="M129.502,91.063l-1.743,1.129c-0.135,0.088-0.062,0.3,0.144,0.421l18.752,10.972
						c0.161,0.094,0.341,0.093,0.41-0.002l1.098-1.506c0.076-0.104-0.009-0.28-0.185-0.383l-18.107-10.595
						C129.739,91.021,129.589,91.007,129.502,91.063z"/>
					<path fill="#2F54C6" d="M130.749,94.51l-0.485-0.284c-0.097-0.057-0.141-0.149-0.099-0.206l1.444-1.946
						c0.042-0.057,0.156-0.057,0.252-0.001l0.485,0.284c0.097,0.057,0.141,0.149,0.099,0.206l-1.444,1.946
						C130.959,94.567,130.846,94.567,130.749,94.51z"/>
					<path fill="#2F54C6" d="M145.191,102.961l-0.485-0.284c-0.097-0.057-0.141-0.149-0.099-0.206l1.444-1.946
						c0.042-0.057,0.156-0.057,0.252-0.001l0.485,0.284c0.097,0.056,0.141,0.149,0.099,0.206l-1.444,1.946
						C145.401,103.017,145.288,103.018,145.191,102.961z"/>
					<path fill="#2F54C6" d="M137.97,98.736l-0.485-0.284c-0.097-0.056-0.141-0.149-0.099-0.206l1.444-1.946
						c0.042-0.057,0.156-0.057,0.252-0.001l0.485,0.284c0.097,0.056,0.141,0.149,0.099,0.206l-1.444,1.946
						C138.18,98.792,138.067,98.792,137.97,98.736z"/>
					<path fill="#1E2A4C" d="M162.917,62.166c-0.013,0-0.027-0.002-0.04-0.007c-1.827-0.643-2.222-2.19-2.238-2.255
						c-0.016-0.065,0.024-0.13,0.088-0.146c0.068-0.016,0.131,0.024,0.146,0.088c0.004,0.015,0.385,1.487,2.083,2.085
						c0.063,0.022,0.096,0.091,0.074,0.154C163.013,62.135,162.967,62.166,162.917,62.166z"/>
					<path fill="#E4897B" d="M140.132,71.402c-1.268,1.016-2.477,1.832-3.758,2.673c-1.266,0.832-2.579,1.587-3.917,2.305
						c-2.663,1.454-5.487,2.668-8.45,3.578c-0.365,0.124-0.75,0.208-1.124,0.312c-0.391,0.098-0.72,0.201-1.163,0.293
						c-0.907,0.204-1.914,0.279-2.932,0.152c-1.02-0.123-2.05-0.48-2.921-1.022c-0.874-0.543-1.577-1.244-2.134-1.973
						c-1.115-1.473-1.678-3.062-2.091-4.6c-0.207-0.773-0.337-1.551-0.432-2.325c-0.096-0.785-0.156-1.524-0.151-2.362l2.574-0.218
						c0.301,1.268,0.734,2.627,1.253,3.823c0.511,1.209,1.189,2.311,1.947,3.075c0.776,0.771,1.539,1.102,2.376,1.107
						c0.427-0.006,0.889-0.058,1.39-0.218c0.585-0.187,1.27-0.401,1.895-0.631c2.548-0.946,5.046-2.139,7.46-3.519
						c1.214-0.676,2.384-1.438,3.56-2.184c1.155-0.746,2.344-1.581,3.374-2.346L140.132,71.402z"/>
					<polygon fill="#DEE7FD" points="131.842,69.646 134.16,76.655 136.338,75.352 134.299,68.398 					"/>
					<path fill="#A9C4FC" d="M141.609,63.715c-2.11-0.504-8.605,4.445-8.605,4.445l2.755,8.787c0,0,6.816-3.771,7.418-6.527
						C143.804,67.549,144.017,64.289,141.609,63.715z"/>
					<path fill="#577AFA" d="M64.196,170.249c-0.114,0-0.222-0.03-0.322-0.09c-0.557-0.331-0.712-1.516-0.755-2.194
						c-0.003-0.048,0.023-0.094,0.066-0.116c0.043-0.021,0.095-0.016,0.132,0.015c0.161,0.134,1.568,1.323,1.485,1.97
						c-0.013,0.102-0.068,0.241-0.255,0.329C64.425,170.221,64.307,170.249,64.196,170.249z M63.384,168.242
						c0.089,0.901,0.313,1.531,0.614,1.71c0.128,0.077,0.274,0.073,0.447-0.007c0.093-0.044,0.112-0.098,0.117-0.141
						C64.605,169.463,63.933,168.735,63.384,168.242z"/>
					<path fill="#577AFA" d="M65.042,168.793c-0.616,0-1.555-0.434-1.886-0.747c-0.031-0.029-0.044-0.073-0.034-0.115
						c0.01-0.042,0.041-0.075,0.082-0.088c0.06-0.018,1.466-0.439,2.098-0.052c0.168,0.103,0.27,0.252,0.304,0.442
						c0.053,0.3-0.105,0.434-0.204,0.487C65.306,168.771,65.182,168.793,65.042,168.793z M63.501,168.013
						c0.512,0.351,1.473,0.665,1.786,0.494c0.052-0.028,0.107-0.079,0.08-0.232c-0.021-0.121-0.084-0.212-0.192-0.278
						C64.798,167.764,63.976,167.897,63.501,168.013z"/>
					<path fill="#577AFA" d="M117.962,199.426c-0.583,0-1.216-0.113-1.656-0.211c-0.05-0.011-0.088-0.053-0.094-0.105
						c-0.006-0.051,0.022-0.101,0.069-0.122c0.408-0.192,2.469-1.128,3.017-0.755c0.075,0.05,0.162,0.149,0.152,0.329
						c-0.014,0.242-0.117,0.437-0.307,0.581C118.865,199.353,118.429,199.426,117.962,199.426z M116.724,199.053
						c0.66,0.12,1.797,0.257,2.273-0.103c0.132-0.1,0.202-0.232,0.211-0.403c0.004-0.071-0.021-0.098-0.046-0.115
						C118.866,198.232,117.627,198.661,116.724,199.053z"/>
					<path fill="#577AFA" d="M116.333,199.218c-0.028,0-0.056-0.01-0.078-0.029c-0.034-0.029-0.05-0.075-0.04-0.119
						c0.021-0.094,0.528-2.285,1.733-2.134c0.311,0.037,0.397,0.194,0.414,0.319c0.077,0.571-1.3,1.675-1.983,1.954
						C116.364,199.215,116.348,199.218,116.333,199.218z M117.837,197.171c-0.724,0-1.159,1.174-1.318,1.702
						c0.696-0.382,1.648-1.254,1.603-1.585c-0.008-0.059-0.076-0.097-0.203-0.112C117.892,197.172,117.864,197.171,117.837,197.171z
						"/>
				</g>
			</g>
		</g>
	</g>
	<g opacity="0.6">
		<g>
			
				<linearGradient id="SVGID_5_" gradientUnits="userSpaceOnUse" x1="-9384.873" y1="206.1317" x2="-9350.0449" y2="143.7203" gradientTransform="matrix(-1 0 0 1 -9170.6143 0)">
				<stop  offset="0" style="stop-color:#26439E"/>
				<stop  offset="1" style="stop-color:#395FC4"/>
			</linearGradient>
			<path fill="url(#SVGID_5_)" d="M195.004,169.115c-0.102,15.016,0.997,19.707,3.8,26.3c0.711,1.673,1.348,3.261,1.917,4.751
				h-1.243c-0.478-1.085-1.044-2.283-1.728-3.615c-4.695-9.153-10.768-17.229-13.549-28.213
				c-2.781-10.985-3.223-41.682-3.864-43.444C179.696,123.131,195.107,154.099,195.004,169.115z"/>
		</g>
		<g>
			
				<linearGradient id="SVGID_6_" gradientUnits="userSpaceOnUse" x1="-9377.1299" y1="242.187" x2="-9388.2998" y2="67.4667" gradientTransform="matrix(-1 0 0 1 -9170.6143 0)">
				<stop  offset="0" style="stop-color:#26439E"/>
				<stop  offset="1" style="stop-color:#395FC4"/>
			</linearGradient>
			<path fill="url(#SVGID_6_)" d="M200.641,201.572c-0.574-9.065-1.341-27.034,7.153-39.252
				c10.28-14.787,13.845-43.289,13.845-43.289s3.558,44.111-5.676,56.295c-7.972,10.519-13.945,13.313-14.216,26.246H200.641z"/>
		</g>
		
			<linearGradient id="SVGID_8_" gradientUnits="userSpaceOnUse" x1="-9346.2285" y1="196.801" x2="-9347.9473" y2="113.4509" gradientTransform="matrix(-1 0 0 1 -9170.6143 0)">
			<stop  offset="0" style="stop-color:#26439E"/>
			<stop  offset="1" style="stop-color:#395FC4"/>
		</linearGradient>
		<path fill="url(#SVGID_8_)" d="M189.379,185.522c0.721,2.055,1.638,4.036,2.816,5.867c1.559,2.423,3.761,6.17,4.803,9.438h-1.291
			c-0.356-0.811-0.791-1.775-1.271-2.785c-1.723-3.622-4.38-6.713-7.664-9.016c-4.707-3.302-10.901-8.824-12.017-13.563
			c-2.672-11.355-17.009-23.046-19.683-23.451C155.072,152.013,177.726,152.306,189.379,185.522z"/>
		
			<linearGradient id="SVGID_10_" gradientUnits="userSpaceOnUse" x1="-9390.6719" y1="197.7173" x2="-9392.3906" y2="114.3673" gradientTransform="matrix(-1 0 0 1 -9170.6143 0)">
			<stop  offset="0" style="stop-color:#26439E"/>
			<stop  offset="1" style="stop-color:#395FC4"/>
		</linearGradient>
		<path fill="url(#SVGID_10_)" d="M205.635,201.284c0,0-7.129-3.613,6.25-15.331c13.378-11.718,14.55-28.905,18.749-35.936
			c4.199-7.031,5.273-7.617,5.273-7.617s5.566,22.07-5.957,35.741c-11.523,13.671-16.052,7.361-20.934,12.829
			c-4.883,5.468-1.331,9.826-1.331,9.826L205.635,201.284z"/>
		<path fill="#C1BB53" d="M214.514,201.093l-4.181,19.947c-0.179,0.853-0.931,1.464-1.803,1.464h-15.587
			c-0.872,0-1.624-0.611-1.803-1.464l-4.181-19.947c-0.24-1.145,0.634-2.22,1.803-2.22h23.949
			C213.88,198.872,214.754,199.948,214.514,201.093z"/>
	</g>
	<path fill="#FFFFFF" d="M220.549,3.141c20.6,0,37.359,16.759,37.359,37.358s-16.759,37.358-37.359,37.358
		s-37.358-16.759-37.358-37.358S199.949,3.141,220.549,3.141z"/>
	<path opacity="0.6" fill="#3CC85E" d="M220.275,0c-22.515,0-40.832,18.317-40.832,40.832s18.317,40.832,40.832,40.832
		s40.832-18.317,40.832-40.832S242.79,0,220.275,0z M220.275,4.81c19.863,0,36.022,16.159,36.022,36.021
		s-16.16,36.021-36.022,36.021s-36.021-16.159-36.021-36.021S200.413,4.81,220.275,4.81z M208.171,46.141
		c-0.318-0.458-0.441-1.024-0.342-1.573s0.412-1.036,0.871-1.355l0.497-0.345c0.955-0.66,2.264-0.425,2.926,0.529l2.856,4.113
		l15.179-19.675c0.71-0.92,2.031-1.089,2.95-0.381l0.478,0.369c0.919,0.709,1.09,2.03,0.38,2.949l-17.437,22.603
		c-0.398,0.517-1.014,0.819-1.665,0.819c-0.017,0-0.035,0-0.053-0.001c-0.67-0.016-1.292-0.352-1.675-0.902L208.171,46.141z"/>
</g>
</svg>
