<svg id="Capa_1" data-name="Capa 1" xmlns="http://www.w3.org/2000/svg" viewBox="0 0 34.75 34.75"><defs><style>.cls-1{fill:#64b8ff;}.cls-2{fill:#fff;}.cls-3{fill:#15ff8b;}</style></defs><title>notificacion-bell-active</title><rect class="cls-1" x="1" y="1" width="33.75" height="33.75" rx="12" ry="12"/><path class="cls-2" d="M24.39,22.07l-.12-.13c-.65-.68-1.73-1.83-1.73-5a4.86,4.86,0,0,0-3.93-4.77l-.2,0v-.87a.79.79,0,1,0-1.57,0v.87l-.2,0a4.86,4.86,0,0,0-3.93,4.77c0,3.19-1.09,4.34-1.74,5l-.12.13a.76.76,0,0,0-.21.53.79.79,0,0,0,.79.78h3.78a2.47,2.47,0,0,0,4.82,0h3.79a.77.77,0,0,0,.78-.78A.7.7,0,0,0,24.39,22.07Zm-12.32.26.3-.4a8,8,0,0,0,1.39-5,3.87,3.87,0,1,1,7.73,0,8,8,0,0,0,1.38,5l.31.4Z"/><path class="cls-3" d="M5.56,10.12a4.56,4.56,0,1,1,4.56-4.56A4.56,4.56,0,0,1,5.56,10.12Z"/><path class="cls-2" d="M5.56,2A3.56,3.56,0,1,1,2,5.56,3.56,3.56,0,0,1,5.56,2m0-2a5.56,5.56,0,1,0,5.56,5.56A5.56,5.56,0,0,0,5.56,0Z"/></svg>